<svg xmlns="http://www.w3.org/2000/svg" xmlns:xlink="http://www.w3.org/1999/xlink" viewBox="0 0 146.31 146.79"><defs><style>.cls-1{fill:url(#linear-gradient);}.cls-2{fill:url(#linear-gradient-2);}.cls-3{fill:url(#linear-gradient-3);}.cls-4{fill:url(#linear-gradient-4);}.cls-5{fill:url(#linear-gradient-5);}.cls-6{fill:url(#linear-gradient-6);}</style><linearGradient id="linear-gradient" x1="49.21" y1="73.91" x2="73.61" y2="73.91" gradientUnits="userSpaceOnUse"><stop offset="0" stop-color="#6cc4c7"/><stop offset="0.5" stop-color="#4ea5c6"/><stop offset="1" stop-color="#2c82c5"/></linearGradient><linearGradient id="linear-gradient-2" x1="27.28" y1="73.88" x2="50.52" y2="73.88" xlink:href="#linear-gradient"/><linearGradient id="linear-gradient-3" x1="72.73" y1="73.91" x2="95.58" y2="73.91" xlink:href="#linear-gradient"/><linearGradient id="linear-gradient-4" x1="15.86" y1="73.52" x2="130.84" y2="73.52" xlink:href="#linear-gradient"/><linearGradient id="linear-gradient-5" x1="94.58" y1="73.7" x2="118.96" y2="73.7" xlink:href="#linear-gradient"/><linearGradient id="linear-gradient-6" x1="0" y1="73.4" x2="146.31" y2="73.4" xlink:href="#linear-gradient"/></defs><title>24_7</title><g id="Layer_2" data-name="Layer 2"><g id="Layer_1-2" data-name="Layer 1"><path class="cls-1" d="M73.61,79.86a4,4,0,0,0-2.24-3.59c-1.79-.6-1.75-1.11-1.87-2.65,0-.32,0-.67,0-1,0-.6,0-1.19,0-1.77s0-1.18,0-1.77h0V68c0-1.25.09-2.57.09-3.92a16.92,16.92,0,0,0-.21-2.83c-.35-1.57-1.19-3.45-2.92-4.13a2.27,2.27,0,0,0-.67-.1,6,6,0,0,0-4,2.1,77.3,77.3,0,0,0-4.78,7.07c-2.31,3.51-4.7,7-6.93,10.61a5.89,5.89,0,0,0-1,3c0,2.29,2,3.8,4.64,3.82,1.39.06,2.81.13,4.24.13.55,0,1.1,0,1.65,0H60c1.41.19,1.28,0,1.47,1.46,0,.08,0,.17,0,.26s0,.32,0,.48c-.08,2.05.95,4.69,3.92,4.75h.23c3.14,0,3.9-2.86,3.9-4.89v-.2c.12-1.47.13-1.65,1.58-2.22A4.24,4.24,0,0,0,73.6,80Zm-2,0v0c.09.38-.9,1.66-1.1,1.65a3.87,3.87,0,0,0-3,4.13v.2c-.12,2-.28,2.85-1.9,2.89h-.15c-1.66-.13-1.89-1-2-2.75,0-.13,0-.26,0-.39s0-.23,0-.35A3.33,3.33,0,0,0,60,81.8h-.37c-.52,0-1,0-1.56,0-1.36,0-2.75-.07-4.15-.13-2.13-.17-2.7-.85-2.73-1.83a3.94,3.94,0,0,1,.69-2c2.2-3.56,4.58-7,6.9-10.57a76.65,76.65,0,0,1,4.64-6.89,4.35,4.35,0,0,1,2.42-1.38H66c.31,0,1.46,1.59,1.54,2.55a15,15,0,0,1,.18,2.5c0,.94,0,1.92-.07,2.92h0v1c0,.94,0,1.87,0,2.77,0,.56,0,1.11,0,1.66,0,.38,0,.77,0,1.16a4.21,4.21,0,0,0,3.33,4.58S71.73,79.43,71.61,79.86Z"/><path class="cls-2" d="M45.51,82.71c-.71,0-1.42,0-2.13,0H41.27c.42-.45.84-.9,1.26-1.32,1.7-1.73,3.55-3.39,5.21-5.31a11.73,11.73,0,0,0,2.78-7.68A11.55,11.55,0,0,0,49,62.56a11.89,11.89,0,0,0-10.14-5.72,11.16,11.16,0,0,0-2,.17,11.82,11.82,0,0,0-9.43,9.39A9.37,9.37,0,0,0,27.29,68a4.07,4.07,0,0,0,3.05,4.19,3.93,3.93,0,0,0,1.16.18c2.09,0,3.54-1.81,4-4.21.44-2,1.31-3.06,2.72-3.06h.18a6,6,0,0,1,3.78,2,1.9,1.9,0,0,1,.45,1.21,4.14,4.14,0,0,1-1.4,2.66c-4,4.06-8.08,8.08-12,12.31a6.35,6.35,0,0,0-1.57,3.85,2.7,2.7,0,0,0,.19,1,5.44,5.44,0,0,0,4.4,2.56c1.81.09,3.61.12,5.41.12,2.16,0,4.31,0,6.45,0h1.5c2.08.1,4.7-.83,4.75-3.85q0-.14,0-.27C50.43,84.22,48.27,82.71,45.51,82.71Zm2.85,4.23c-.19,1.79-.77,1.8-2.75,2h-1.5c-2.16,0-4.31,0-6.45,0-1.78,0-3.55,0-5.3-.12-.9,0-2.67-1-2.66-1.32a.77.77,0,0,1,0-.27,4.54,4.54,0,0,1,1-2.5c3.83-4.18,7.89-8.19,11.91-12.26a6,6,0,0,0,2-4.06,3.92,3.92,0,0,0-.87-2.45,7.89,7.89,0,0,0-5.23-2.79h-.3c-2.7,0-4.25,2.27-4.68,4.68-.43,2-1.23,2.6-2,2.6a2,2,0,0,1-.58-.09c-1.4-.5-1.56-1-1.64-2.27a7.41,7.41,0,0,1,.13-1.29A9.83,9.83,0,0,1,37.24,59a9.18,9.18,0,0,1,1.61-.14,9.91,9.91,0,0,1,8.42,4.73,9.55,9.55,0,0,1,1.26,4.82,9.74,9.74,0,0,1-2.28,6.37c-1.56,1.79-3.38,3.43-5.13,5.22-.73.74-1.42,1.5-2.11,2.24l-.43.45.22.58.3.81.24.65h4.06c.7,0,1.39,0,2.07,0,2.38.2,2.82.66,2.91,2.06Z"/><path class="cls-3" d="M87.18,54.45q-6,16.34-11.95,32.68c-.76,2.08-1.43,4.17-2.3,6.75l-.2.58.43.44c.67.56,1.29,2.16,3,2.64a2.59,2.59,0,0,0,.53.05,7,7,0,0,0,3.56-1.51c1.08-.87,1.07-2,1.35-2.6q3.3-9,6.56-18.09,3.46-9.54,6.94-19.07a6.74,6.74,0,0,0,.46-2.28,3.6,3.6,0,0,0-2.41-3.43,4.54,4.54,0,0,0-1.77-.39c-2,0-3.16,1.62-3.83,3.16C87.39,53.8,87.29,54.16,87.18,54.45Zm1.88.69c.14-.38.23-.7.33-.93.62-1.37,1.24-2,2-2a2.56,2.56,0,0,1,1,.23c1,.49,1.14.85,1.19,1.59a4.82,4.82,0,0,1-.34,1.59q-3.48,9.53-6.94,19.07-3.28,9-6.56,18.09a5.84,5.84,0,0,1-.61,1.64,5.56,5.56,0,0,1-2.42,1.15h-.13c-.21.06-.86-.75-1.57-1.6.79-2.35,1.42-4.29,2.11-6.18Q83.07,71.47,89.06,55.13Z"/><path class="cls-4" d="M90.91,21.09a3.08,3.08,0,0,0-2.72-3,60.24,60.24,0,0,0-15.27-2,53.06,53.06,0,0,0-9.72.89A58,58,0,0,0,16.33,66.17a53.39,53.39,0,0,0-.47,7.09c0,20.07,11,40,28.59,49.94A58.94,58.94,0,0,0,73.54,131,56.45,56.45,0,0,0,122,103.65c6-9.76,8.9-19.73,8.89-29.77,0-9.77-2.75-19.59-8-29.36-2.35-4.38-5.32-8.13-10.45-8.14a12.93,12.93,0,0,0-3.39.49l-1.73,0c-.37,0-.75,0-1.15,0s-1,.07-1.46.07c-7.86,0-13.92-5.75-13.92-13.12a13.9,13.9,0,0,1,.16-2.08A4.55,4.55,0,0,0,90.91,21.09ZM104.63,39c.54,0,1.09,0,1.64-.08.31,0,.63,0,1,0,.58,0,1.2,0,1.84,0h.14l.13,0a11,11,0,0,1,3-.46c4,0,6.35,2.8,8.69,7.09,5.16,9.54,7.8,19,7.8,28.41,0,9.66-2.79,19.24-8.6,28.73A54.44,54.44,0,0,1,73.54,129a56.94,56.94,0,0,1-28.11-7.52c-16.88-9.55-27.59-28.86-27.58-48.2a51.4,51.4,0,0,1,.45-6.83A56,56,0,0,1,63.57,18.91a51.1,51.1,0,0,1,9.35-.86,58.27,58.27,0,0,1,14.77,2c1.13.39,1.16.4,1.22,1.05a2.57,2.57,0,0,1,0,.38,15.9,15.9,0,0,0-.18,2.38C88.72,32.37,95.77,38.95,104.63,39Z"/><path class="cls-5" d="M94.58,60.92c-.08,2.5,2,3.84,4.09,3.84.73,0,1.46,0,2.17,0h6.25a4,4,0,0,1-.26.59c-3.31,5.63-4.06,11.7-4.06,17.76,0,1.15,0,2.3.07,3.46a4,4,0,0,0,4.06,4.18H107c2.47,0,3.72-2.11,3.86-4a13.13,13.13,0,0,0,.09-1.6c0-.32,0-.63,0-.94q-.05-1-.05-2a26.06,26.06,0,0,1,6.9-18.43A5.29,5.29,0,0,0,119,60.53a2.86,2.86,0,0,0-.29-1.34,5.55,5.55,0,0,0-4.14-2.43c-1.4-.11-2.8-.14-4.19-.14-1.9,0-3.78.06-5.63.06H101.5c-.87,0-1.74,0-2.62,0a4,4,0,0,0-4.3,3.94Q94.58,60.78,94.58,60.92Zm2-.18c.16-1.53.71-1.89,2.36-2,.85,0,1.7,0,2.56,0h3.21c1.89,0,3.77-.06,5.63-.06,1.36,0,2.71,0,4,.14a3.83,3.83,0,0,1,2.53,1.38,1,1,0,0,1,.06.4,3.5,3.5,0,0,1-.65,2,28.08,28.08,0,0,0-7.43,19.78q0,1,.05,2.06c0,.28,0,.56,0,.84a11.15,11.15,0,0,1-.08,1.36c-.28,1.55-.65,2.2-1.94,2.26h0c-1.45-.07-1.91-.67-2.07-2.25,0-1.13-.07-2.26-.07-3.38,0-5.92.73-11.57,3.78-16.75a23.24,23.24,0,0,0,.94-2.22l.58-1.38h-9.23c-.7,0-1.39,0-2.07,0-1.64-.21-2.12-.47-2.2-1.84Z"/><path class="cls-6" d="M146.11,73.23c-.11-.78-1.25-2-1.91-2a3.9,3.9,0,0,0-2.54,1.66c-.45.61-.29,1.69-.33,2.56a66.19,66.19,0,0,1-6.7,27.42c-10.94,21.74-28.46,35-52.54,38-26.68,3.32-48.61-6.35-64.31-28.27C4.07,93.52,1.33,72.15,9.48,50.25c9.25-24.83,27.6-39.72,53.93-44,17-2.75,32.79,1.1,47.26,10.36A53.26,53.26,0,0,1,115,20.07c-.1.29-.2.58-.3.88H105.4c-1.88,0-3.77.26-3.82,2.6s2,2.58,3.78,2.59q8.16,0,16.33,0c3.29,0,4.17-.9,4.19-4.28,0-4.39,0-8.78,0-13.18a37.35,37.35,0,0,0-.1-4.21C125.57,2.93,124.69,1.55,123,2a4.71,4.71,0,0,0-2.36,2.55c-.4.88-.12,2.07-.12,3.12,0,2.86,0,5.71,0,9a13.21,13.21,0,0,1-1.7-.61c-.52-.32-1-.71-1.5-1.06C103.54,5.12,89,0,73.91,0A74.57,74.57,0,0,0,45.53,5.88C21.76,15.6,6.79,33.67,1.65,59-3.33,83.5,3,105.28,20,123.72c20.81,22.65,53.52,29,81,17.44,27.13-11.37,42.22-32.43,45.17-61.88A25.68,25.68,0,0,0,146.11,73.23Z"/></g></g></svg>