<svg xmlns="http://www.w3.org/2000/svg" viewBox="0 0 231.04 231.04"><defs><style>.cls-1{fill:#fff;}</style></defs><title>breed_white</title><g id="Layer_2" data-name="Layer 2"><g id="Layer_1-2" data-name="Layer 1"><path class="cls-1" d="M194.08,108v1h-5.3c-2.13,0-3.77,0-5.3-.1h0a6.06,6.06,0,0,1-5.18-4.78,63.62,63.62,0,0,0-21.54-37.68,61.5,61.5,0,0,0-29.51-14.11,5.78,5.78,0,0,1-5.22-6q0-.14,0-.27c0-1.3.05-2.62.05-3.95,0-.93,0-1.86,0-2.78s0-1.9,0-2.86V36l3.74-3.42.44,0c17.35,1.59,34.29,9.83,47.75,23.16,13.69,13.57,22.19,31,23.89,49l0,.44L194.52,109h-.44v-1l-.74-.67,2.82-3.1.74.67-1,.09c-1.66-17.54-9.93-34.51-23.31-47.77-13.15-13-29.69-21-46.53-22.59l.09-1,.67.74-3.09,2.82-.67-.74h1c0,.95,0,1.9,0,2.85s0,1.85,0,2.79c0,1.34,0,2.68-.05,4v.21c.09,1.77.46,3.42,3.58,4.06a63.51,63.51,0,0,1,30.46,14.56,65.63,65.63,0,0,1,22.2,38.83c.18,1.33,1.93,3.16,3.3,3.14h0c1.49.07,3.09.1,5.2.1h5.3v1l-.74-.67Zm-67.66,88.29-.62.79-3.51-2.76,0-.42c0-.15,0-.29-.05-.43h0a9.8,9.8,0,0,1-.11-1.34h0q0-2.89,0-5.77,0-1.09,0-2.18h0v-2.62l2.67-3.32.34-.08c29.34-6.46,46.67-23.6,53.55-53l.08-.34,3.31-2.63h12.17l3.42,3.71,0,.44c-2.52,30.74-29.74,65.52-71,70.92l-.42.05-.33-.26.62-.79-.13-1c40.27-5.21,66.89-39.34,69.3-69.09l1,.08-.74.68-2.53-2.74H182.72l-2.49,2-.62-.78,1,.23c-6.92,30-25.13,48-55.08,54.48l-.21-1,.78.63-2,2.49v1.92h0q0,1.09,0,2.18,0,2.88,0,5.77h0a7.92,7.92,0,0,0,.09,1.08h0c0,.14,0,.29.06.47l-1,.11.62-.79,3.18,2.51-.62.79-.13-1Zm-10.81-31.79v1h-.12a50.68,50.68,0,0,1-36.19-15.17,49.81,49.81,0,0,1-14.52-35.21q0-.26,0-.53a51,51,0,0,1,50.74-50.46q.89,0,1.79,0h0a50.79,50.79,0,0,1,48.95,50.75q0,.14,0,.28a49.75,49.75,0,0,1-14.65,35.27,50.46,50.46,0,0,1-36,15v-2a48.46,48.46,0,0,0,34.59-14.43,47.75,47.75,0,0,0,14.07-33.86q0-.14,0-.27a48.79,48.79,0,0,0-47-48.77h0q-.87,0-1.72,0a49,49,0,0,0-48.75,48.48q0,.25,0,.51a47.81,47.81,0,0,0,13.94,33.8,48.67,48.67,0,0,0,34.77,14.58h.12ZM108,191.71h1a12.55,12.55,0,0,1-.14,1.64h0c0,.16,0,.3-.05.43l0,.42-3.79,3-.41,0c-36.16-4.13-66.74-34.44-71.27-70.63l-.06-.45,3.41-3.86H49l3.31,2.64.08.34c6.71,29.25,24,46.36,53.54,52.89l.34.08,2.67,3.32v2.75q0,1.28,0,2.57c0,1.62,0,3.25,0,4.88h-2c0-1.63,0-3.26,0-4.87q0-1.29,0-2.57v-2l-2-2.49.78-.63-.21,1c-30.11-6.56-48.31-24.54-55.06-54.4l1-.22-.62.78-2.49-2H37.53L35,127.1l-.75-.66,1-.12c4.38,35.23,34.32,64.91,69.51,68.9l-.11,1-.63-.78,3.14-2.52.63.78-1-.1c0-.18,0-.34.06-.49h0a10.68,10.68,0,0,0,.12-1.39h1ZM51.43,63.44l-.78-.63C64.38,45.88,82.57,35.6,104.58,32.34l.45-.07,3.94,3.4v.46q0,1.39,0,2.75c0,.92,0,1.82,0,2.71,0,1.9,0,3.76-.11,5.65-.27,3.21-3.33,4.61-4.86,5h0c-26.15,5.86-42.41,21-50.2,46.89h0A16.42,16.42,0,0,0,53,102.8h0A6,6,0,0,1,46.63,109l-.6,0h0c-1-.05-2.08-.07-3.44-.07l-2.68,0h0l-3.1,0h-.45l-3.41-3.84.05-.45A80.65,80.65,0,0,1,50.65,62.81l.78.63.78.63A78.64,78.64,0,0,0,35,104.94l-1-.12.75-.66,2.81,3.17-.75.66v-1l3.08,0h0l2.7,0c1.38,0,2.5,0,3.54.08h.5c2.85-.09,4.15-1.36,4.38-4.33h0a18,18,0,0,1,.9-4.17h0c7.89-26.41,25-42.35,51.68-48.26h0c1-.19,3.34-1.53,3.29-3.12.09-1.85.11-3.68.11-5.56,0-.89,0-1.78,0-2.7s0-1.83,0-2.76h1l-.65.76-3.25-2.8.65-.76.15,1C83.31,37.53,65.65,47.51,52.21,64.07ZM221.5,108v1h-6.77l-3.39-3,0-.38c-2.61-23-11.88-42.58-27.59-58.41s-35.34-25.31-58.26-28l-.38,0-3-3.38V12.77c0-.46,0-.92,0-1.38h0c0-.42,0-.82,0-1.21s0-1,0-1.42C121.78,4.82,119,2,115.5,2V2c-3.58.06-6.29,2.81-6.5,6.81,0,.75,0,1.53,0,2.29s0,1.36,0,2,0,1.18,0,1.73v.36l-2.79,3.34-.36.07c-49.8,9.17-77.92,37.46-86.67,87.21l-.06.36L15.77,109H11.55l-2.32,0h0C5,109.11,2.06,111.83,2,115.5v.09c0,3.58,3,6.37,7.32,6.46h7l3.31,2.63.08.34c.06.27.13.51.19.75h0a13.54,13.54,0,0,1,.39,1.88h0a80.35,80.35,0,0,0,5.85,22.48c14.86,34.36,40.8,54.46,77.5,60.07,4.15.54,5.52,3.55,5.42,5.8,0,.18,0,.36,0,.54h0c-.06.88-.09,1.79-.09,2.75s0,2,.09,3h0c.23,3.92,3,6.72,6.47,6.73v0h.08c3.49,0,6.2-2.74,6.48-6.64h0c.06-1,.1-2,.1-3s0-1.86-.09-2.77h0c0-.15,0-.31,0-.49-.11-1.84.94-5.7,5.82-6h0a39.12,39.12,0,0,0,5.6-.87c39.09-8.86,64.31-32.73,75.36-71.35h0a85.69,85.69,0,0,0,1.79-8.41h0c.25-1.41.51-2.83.79-4.26l.07-.33,3.12-2.71,1-.07h0c.52,0,1-.08,1.58-.08h4.26c4.77-.1,7.6-2.65,7.67-6.51v-.08c0-3.75-2.9-6.36-7.55-6.47h0v-2c5.42,0,9.56,3.52,9.53,8.47v.1c0,5-4.15,8.5-9.66,8.48h-4.26c-.46,0-.94,0-1.45.08h0l-.29,0-2.36,2-.66-.75,1,.2c-.28,1.4-.53,2.81-.78,4.21h0a87.44,87.44,0,0,1-1.83,8.61h0c-11.15,39.22-37.15,63.83-76.84,72.76a41.1,41.1,0,0,1-5.89.92h0c-3.7.35-3.86,2.5-4,4,0,.13,0,.26,0,.37h0c.06,1,.09,1.92.09,2.9s0,2.08-.1,3.12h0c-.29,4.79-3.86,8.47-8.45,8.51h-.08c-4.6,0-8.22-3.79-8.47-8.62h0c-.06-1.1-.09-2.15-.09-3.15s0-2,.09-2.88h0c0-.14,0-.27,0-.41-.1-1.71-.45-3.23-3.72-3.82-37.28-5.64-64-26.35-79-61.25a82.34,82.34,0,0,1-6-23h0a11.67,11.67,0,0,0-.34-1.61h0c-.06-.24-.13-.5-.2-.8l1-.23-.62.78-2.49-2H9.29C4.11,124,0,120.39,0,115.59v-.11c0-4.83,4.05-8.41,9.18-8.48h0l2.36,0H15.4v1l-.64-.77,2.79-2.35.64.77-1-.17C26,55.09,55.06,25.8,105.49,16.64l.18,1L104.9,17l2.33-2.79.77.64h-1c0-.52,0-1.09,0-1.7s0-1.33,0-2,0-1.59,0-2.39c.21-4.9,3.79-8.68,8.48-8.72h0c4.64,0,8.26,3.8,8.54,8.63,0,.51,0,1,0,1.55s0,.82,0,1.24h0c0,.45,0,.9,0,1.35v2.18l2.25,2.53-.75.66.12-1c23.33,2.77,43.37,12.41,59.44,28.62s25.51,36.23,28.16,59.6l-1,.11.67-.75,2.53,2.26h6Z"/><path class="cls-1" d="M137.78,107.4l0,1c-1.46,0-2.93,0-4.41,0h-7.86L122.06,105v-.41c0-1.24,0-2.45,0-3.65h0c0-1.16,0-2.3,0-3.41,0-1.35,0-2.68,0-4-.13-4.16-2.91-7.09-6.43-7.09a6.8,6.8,0,0,0-2.13.35h0c-2.74.92-4.41,3.33-4.49,6.79,0,1.36,0,2.74,0,4.11,0,1.11,0,2.21,0,3.3s0,2.2,0,3.29v.32l-2.31,3.21-.31.1-.29.1h0a4.64,4.64,0,0,1-1.7.35H98.77c-1.92,0-3.36,0-4.68.11a10.11,10.11,0,0,0-3.76.88h0a6,6,0,0,0-3.25,5.49,7,7,0,0,0,.18,1.59,6.22,6.22,0,0,0,6.07,4.84c1.47,0,2.95,0,4.42,0h7.33l3.13,2.11.11.28.12.26h0a4.5,4.5,0,0,1,.47,1.93h0c0,1.23,0,2.46,0,3.68h0c0,2.3,0,4.67.07,7,.14,3.41,1.78,5.65,4.72,6.58h0a6.53,6.53,0,0,0,1.92.28,5.41,5.41,0,0,0,4.72-2.38,13.62,13.62,0,0,0,1.62-5.6,36.48,36.48,0,0,0,.17-3.77c0-1,0-2,0-3.07h0c0-1.12-.05-2.26-.05-3.43v-.41l3.42-3.42h9.93a21.92,21.92,0,0,0,4-.28c2.39-.39,4.74-3.37,4.69-6q0-.23,0-.45a6.58,6.58,0,0,0-6.29-6.18l0-1,0-1a8.58,8.58,0,0,1,8.23,8q0,.32,0,.64a8.39,8.39,0,0,1-6.32,7.92,23.78,23.78,0,0,1-4.34.32h-4.32l-1.84,0h-2.94l-2.54,2.54-.71-.71h1c0,1.14,0,2.27,0,3.39h0c0,1.05,0,2.09,0,3.11a38.43,38.43,0,0,1-.18,4,15.51,15.51,0,0,1-1.91,6.45,7.41,7.41,0,0,1-6.42,3.33,8.53,8.53,0,0,1-2.51-.37h0a8.59,8.59,0,0,1-6.14-8.43c-.07-2.34-.07-4.73-.07-7h0c0-1.23,0-2.45,0-3.67h0a2.52,2.52,0,0,0-.29-1.1h0c0-.07-.09-.19-.15-.35l.93-.38-.56.83-2.63-1.77.56-.83v1h-7c-1.48,0-3,0-4.46,0a8.23,8.23,0,0,1-8-6.39,9,9,0,0,1-.23-2,8,8,0,0,1,4.36-7.28h0A12,12,0,0,1,94,106.43c1.37-.08,2.85-.11,4.79-.11h5.6a2.66,2.66,0,0,0,1-.22h0l.38-.14.32.95-.81-.58,1.94-2.69.81.58h-1q0-1.62,0-3.28c0-1.09,0-2.2,0-3.31,0-1.38,0-2.77,0-4.14,0-4.11,2.25-7.49,5.86-8.66h0a8.8,8.8,0,0,1,2.75-.45c4.72,0,8.33,4,8.43,9,0,1.35,0,2.7,0,4.06,0,1.12,0,2.26,0,3.42h0c0,1.19,0,2.4,0,3.64h-1l.71-.71,2.83,2.83-.71.71v-1h7.45c1.49,0,3,0,4.46,0Z"/></g></g></svg>