<svg xmlns="http://www.w3.org/2000/svg" xmlns:xlink="http://www.w3.org/1999/xlink" viewBox="0 0 100.03 96.54"><defs><style>.cls-1{fill:url(#linear-gradient);}.cls-2{fill:url(#linear-gradient-2);}.cls-3{fill:url(#linear-gradient-3);}.cls-4{fill:url(#linear-gradient-4);}.cls-5{fill:url(#linear-gradient-5);}.cls-6{fill:url(#linear-gradient-6);}.cls-7{fill:url(#linear-gradient-7);}.cls-8{fill:url(#linear-gradient-8);}.cls-9{fill:url(#linear-gradient-9);}.cls-10{fill:url(#linear-gradient-10);}.cls-11{fill:url(#linear-gradient-11);}</style><linearGradient id="linear-gradient" x1="24.26" y1="44.72" x2="75.67" y2="44.72" gradientUnits="userSpaceOnUse"><stop offset="0" stop-color="#6cc4c7"/><stop offset="0.5" stop-color="#4ea5c6"/><stop offset="1" stop-color="#2c82c5"/></linearGradient><linearGradient id="linear-gradient-2" x1="0" y1="87.14" x2="100.03" y2="87.14" xlink:href="#linear-gradient"/><linearGradient id="linear-gradient-3" x1="0" y1="88.85" x2="32.62" y2="88.85" xlink:href="#linear-gradient"/><linearGradient id="linear-gradient-4" x1="67.38" y1="88.85" x2="100.02" y2="88.85" xlink:href="#linear-gradient"/><linearGradient id="linear-gradient-5" x1="13.17" y1="59.49" x2="23.98" y2="59.49" xlink:href="#linear-gradient"/><linearGradient id="linear-gradient-6" x1="75.49" y1="15.93" x2="86.59" y2="15.93" xlink:href="#linear-gradient"/><linearGradient id="linear-gradient-7" x1="76.12" y1="59.57" x2="86.67" y2="59.57" xlink:href="#linear-gradient"/><linearGradient id="linear-gradient-8" x1="6.99" y1="36.2" x2="17.04" y2="36.2" xlink:href="#linear-gradient"/><linearGradient id="linear-gradient-9" x1="13.79" y1="16.44" x2="24.12" y2="16.44" xlink:href="#linear-gradient"/><linearGradient id="linear-gradient-10" x1="83.14" y1="36.13" x2="93.04" y2="36.13" xlink:href="#linear-gradient"/><linearGradient id="linear-gradient-11" x1="48.53" y1="4.1" x2="51.66" y2="4.1" xlink:href="#linear-gradient"/></defs><title>creative</title><g id="Layer_2" data-name="Layer 2"><g id="Layer_1-2" data-name="Layer 1"><path class="cls-1" d="M37.9,58c2.38,1.17,2.49,2.3,1.25,4.61-.68,1.27-.59,3-.72,4.5a28.49,28.49,0,0,1-.07,3.81c-.81,3.52,1.21,6.35,4.86,6.46,2.24.07,4.5,0,6.74,0h0a48.63,48.63,0,0,0,7-.09,8,8,0,0,0,4-2c1.19-1.12.88-11.35-.08-12.73-1.52-2.2-1.14-3.37,1.47-4.61,14.22-6.7,17.84-26.09,7-37.49A27.07,27.07,0,0,0,49.81,12a25.73,25.73,0,0,0-11.56,2.72c-7.43,3.72-12.41,9.59-13.69,18.08C22.93,43.57,28,53.12,37.9,58ZM56.52,74.22q-3.23.13-6.47.13t-6.75-.13c-.64,0-1.24-1.19-1.87-1.83.67-.57,1.3-1.55,2-1.63a63.1,63.1,0,0,1,6.48-.08c2.16,0,4.34-.14,6.48.07.74.07,1.41,1,2.1,1.55C57.86,73,57.22,74.19,56.52,74.22Zm.14-7a66.08,66.08,0,0,1-6.74.08v0c-1.21,0-2.44,0-3.65,0a27.35,27.35,0,0,1-2.84-.13c-.73-.08-1.36-1.09-2-1.67.72-.6,1.42-1.7,2.16-1.73,4.32-.17,8.66-.15,13,0,.69,0,1.35,1,2,1.61C57.94,66.06,57.35,67.13,56.67,67.2Zm-29.17-33c.76-7.92,5.27-13.51,12.37-16.81a23.17,23.17,0,0,1,29.36,7.82c6.65,9.56,3.24,23.68-7.09,29.35a19,19,0,0,0-3.79,2.3c-1,.9-1.58,2.25-2.65,3.84a11.83,11.83,0,0,1-.59-2c-.68-10.93-.67-10.93,7.14-18.81A9.08,9.08,0,0,0,63,38.82L60.5,36.93c-2.47,2.57-5.13,5.18-7.58,8a5.45,5.45,0,0,0-1,3.2c-.12,3.32,0,6.66,0,10,0,1.23,0,2.35-1.75,2.4S48,59.66,48,58.17c0-3.5.11-7-.07-10.49a5.73,5.73,0,0,0-1.37-3.24c-2.31-2.59-4.81-5-7.17-7.42-2.46,1.22-2.47,2.64-.57,3.92,5.44,3.68,7,8.84,6.08,15.05a29.51,29.51,0,0,0,0,4.1c-.6,0-.87,0-.91-.06-1.76-3.47-5.31-4.73-8.21-6.84C29.36,48.53,26.75,41.93,27.49,34.22Z"/><path class="cls-2" d="M98.23,93.48a5.2,5.2,0,0,0-2-.06H60c-1,0-1.94-.09-3.38-.17a7.71,7.71,0,0,1,5.06-5.41c5.45-1.92,10.95-4,16.6-5,6.44-1.18,13.07-1.25,19.6-1.94.75-.08,1.41-1,2.11-1.5a9.63,9.63,0,0,0-2.1-1.52,2.18,2.18,0,0,0-.77-.12c-.47,0-1,.09-1.46.13-4.65.38-9.31.61-13.93,1.21-7,.91-13.94,2.33-20.39,5.42C58.26,86,55.16,87.81,54,91.2c-.69,2.09-1.72,2.18-3.41,2.26-2.47.12-4.44,0-5.19-3a6.45,6.45,0,0,0-2.84-3.34c-2.58-1.6-5.25-3.38-8.13-4.15-6.65-1.78-13.41-3.21-20.19-4.37-3.83-.66-7.8-.55-11.71-.74C1.42,77.76,0,77.62,0,79.38s1.43,1.48,2.55,1.57h.25c7.6.84,15.23,1.44,22.78,2.59a32.9,32.9,0,0,1,14.77,5.64c1.3.95,2.73,1.94,2.24,4.24h-39a5.51,5.51,0,0,0-2,.06A6.85,6.85,0,0,0,0,94.85a11.49,11.49,0,0,0,1.74,1.57c.36.22,1,.05,1.47.05H96.66c.5,0,1.09.16,1.48,0A12.74,12.74,0,0,0,100,95,8.35,8.35,0,0,0,98.23,93.48Z"/><path class="cls-3" d="M18.76,90.67c0,.13,0,.27,0,.4,3.9,0,7.8.06,11.7-.06.73,0,1.44-.81,2.15-1.24-.65-.55-1.28-1.56-2-1.6q-14.17-.92-28.37-1.54h0c-.73,0-1.49,1-2.25,1.51.7.49,1.37,1.35,2.1,1.42C7.65,90,13.2,90.31,18.76,90.67Z"/><path class="cls-4" d="M97.83,86.61q-14.33.63-28.65,1.56c-.64,0-1.21,1.12-1.81,1.72.67.39,1.32,1.1,2,1.12,3.9.11,7.81.06,11.72.06,0-.13,0-.26,0-.39C86.75,90.31,92.39,90,98,89.52c.7-.06,1.33-1,2-1.56-.71-.47-1.45-1.35-2.15-1.35Z"/><path class="cls-5" d="M14.66,63.29c2.68-1.35,5-2.74,7.57-3.74,2.1-.83,2.22-1.85.87-3.86l-9.92,5Z"/><path class="cls-6" d="M77.17,18.84c3.13-.87,6.21-1.94,9.42-3L85.45,13c-3.15,1-6.07,1.94-8.92,3a2,2,0,0,0-1,1.69C75.66,18.22,76.72,19,77.17,18.84Z"/><path class="cls-7" d="M78,56.36a9,9,0,0,0-1.88.63c.27.73.33,1.82.85,2.13,2,1.18,4.14,2.07,6.2,3.14,1.64.86,2.82.77,3.5-1.68-2.81-1.42-5.55-2.91-8.39-4.18A.68.68,0,0,0,78,56.36Z"/><polygon class="cls-8" points="17.04 36.06 17.04 36.06 17.04 36.06 17.04 34.53 6.99 34.53 6.99 37.87 17.04 37.87 17.04 36.06"/><path class="cls-9" d="M14.67,15.78c2.69,1.46,5.47,2.75,8.35,4.15,1.41-2.4,1.48-2.53.1-3.31A76.52,76.52,0,0,0,15.8,13a.49.49,0,0,0-.19,0A2.93,2.93,0,0,0,13.84,14C13.64,14.27,14.18,15.52,14.67,15.78Z"/><path class="cls-10" d="M88.22,34.54H83.14v3.17H93V34.54H88.22Z"/><rect class="cls-11" x="48.53" width="3.13" height="8.2"/></g></g></svg>