<svg xmlns="http://www.w3.org/2000/svg" xmlns:xlink="http://www.w3.org/1999/xlink" viewBox="0 0 105.06 103.47"><defs><style>.cls-1{fill:url(#linear-gradient);}.cls-2{fill:url(#linear-gradient-2);}.cls-3{fill:url(#linear-gradient-3);}.cls-4{fill:url(#linear-gradient-4);}.cls-5{fill:url(#linear-gradient-5);}.cls-6{fill:url(#linear-gradient-6);}.cls-7{fill:url(#linear-gradient-7);}.cls-8{fill:url(#linear-gradient-8);}.cls-9{fill:url(#linear-gradient-9);}.cls-10{fill:url(#linear-gradient-10);}.cls-11{fill:url(#linear-gradient-11);}.cls-12{fill:url(#linear-gradient-12);}.cls-13{fill:url(#linear-gradient-13);}</style><linearGradient id="linear-gradient" x1="41.62" y1="58.97" x2="94.59" y2="58.97" gradientUnits="userSpaceOnUse"><stop offset="0" stop-color="#6cc4c7"/><stop offset="0.5" stop-color="#4ea5c6"/><stop offset="1" stop-color="#2c82c5"/></linearGradient><linearGradient id="linear-gradient-2" x1="13.2" y1="84.58" x2="25.1" y2="84.58" xlink:href="#linear-gradient"/><linearGradient id="linear-gradient-3" x1="5.71" y1="84.33" x2="32.37" y2="84.33" xlink:href="#linear-gradient"/><linearGradient id="linear-gradient-4" x1="83.22" y1="11.73" x2="101.96" y2="11.73" xlink:href="#linear-gradient"/><linearGradient id="linear-gradient-5" x1="16.7" y1="11" x2="26.72" y2="11" xlink:href="#linear-gradient"/><linearGradient id="linear-gradient-6" x1="92.74" y1="96.75" x2="101.73" y2="96.75" xlink:href="#linear-gradient"/><linearGradient id="linear-gradient-7" x1="100.89" y1="98.67" x2="100.9" y2="98.67" xlink:href="#linear-gradient"/><linearGradient id="linear-gradient-8" x1="9.29" y1="6.12" x2="14.33" y2="6.12" xlink:href="#linear-gradient"/><linearGradient id="linear-gradient-9" x1="97.48" y1="97.22" x2="97.5" y2="97.22" xlink:href="#linear-gradient"/><linearGradient id="linear-gradient-10" x1="4.38" y1="8.46" x2="4.39" y2="8.46" xlink:href="#linear-gradient"/><linearGradient id="linear-gradient-11" x1="0.81" y1="6.12" x2="6.28" y2="6.12" xlink:href="#linear-gradient"/><linearGradient id="linear-gradient-12" x1="5.64" y1="3.21" x2="9.25" y2="3.21" xlink:href="#linear-gradient"/><linearGradient id="linear-gradient-13" x1="5.27" y1="9.53" x2="10.43" y2="9.53" xlink:href="#linear-gradient"/></defs><title>exprience</title><g id="Layer_2" data-name="Layer 2"><g id="Layer_1-2" data-name="Layer 1"><path class="cls-1" d="M100,43l-.3-1.29-1.16.64L84.42,50.16l-2.09,1.16,2.29.68,4.74,1.41a14.39,14.39,0,0,1-.83,1.22A77.39,77.39,0,0,1,71.46,70.68l.74-.56c2-1.5,3.4-2.49,4.75-3.69a3.2,3.2,0,0,0,1-2.25,2.17,2.17,0,0,0,0-.44c-1.1-5.47-2.1-12-9.46-14.14-.39-.08-.44,0-.43-.09a5.64,5.64,0,0,1-1.28-1.63c-.43-1.8-.46-3.83-1-5.91a4.17,4.17,0,0,1-.13-1c0-1.19.61-1.95,2-3,4-3,7.94-6,11.85-9.08a4.61,4.61,0,0,0,2.09-3.51,4,4,0,0,0-1.05-2.58,4.07,4.07,0,0,0-3.11-1.68,5,5,0,0,0-3,1.28C70.8,25.27,67.15,28,63.59,30.87a5.13,5.13,0,0,1-3.38,1.25A11.09,11.09,0,0,0,62.54,26a6.29,6.29,0,0,0-2.12-4.65,7.76,7.76,0,0,0-5.31-2.13,6.6,6.6,0,0,0-4.63,1.81,9.2,9.2,0,0,0-2.58,4.48,7.32,7.32,0,0,0-.16,1.5c0,2.61,1.5,4.45,3.37,5.94-3.76.69-4.82,1.29-6.19,3.39-3.4,4.92-6.67,9.92-10,14.88a5.75,5.75,0,0,0-1.12,3.1,3.61,3.61,0,0,0,1.87,3.09,4.2,4.2,0,0,0,2.25.71,4.67,4.67,0,0,0,3.75-2.43q2.76-4.14,5.58-8.24c.58-.85,1.2-1.7,1.9-2.67a40.77,40.77,0,0,1,.57,6.94c0,9.44-2.84,18.64-3.29,28.43l-.06,1.24q-1.73.39-3.51.71a4.46,4.46,0,0,0-3.22,2.33c-1.52,4.07-2.77,8.2-4.23,12.67L35,98.32l1.23.13c.63.06,1.1.22,1.77.23a2.36,2.36,0,0,0,.6-.07c6.11-1.58,12.58-2.58,18.58-5C73.6,86.9,85.58,74.85,95.51,60.74c1.95-2.73,2.12-3,3.13-3a18,18,0,0,1,2.84.41h0l.21,0c.92-.15.81-.38,1-.41l.66-.36-.17-.73ZM51.73,51.76a41.43,41.43,0,0,0-1.07-9.61L50.15,40,48.87,41.8c-1.31,1.82-2.31,3.16-3.26,4.55Q42.79,50.47,40,54.62c-.72,1.08-1.45,1.56-2.08,1.54a2.22,2.22,0,0,1-1.18-.4c-.8-.54-.92-.9-.94-1.4a3.88,3.88,0,0,1,.79-2c3.32-5,6.59-10,10-14.86,1.54-2.09,1.12-1.8,7.28-3l2.53-.44-2.16-1.39C51.54,31,49.71,29.35,49.74,27A5.32,5.32,0,0,1,49.86,26a7.27,7.27,0,0,1,2-3.45,4.6,4.6,0,0,1,3.24-1.25A5.76,5.76,0,0,1,59,22.84,4.27,4.27,0,0,1,60.54,26c0,1.56-.88,3.66-2.94,6.26l-1,1.27,1.58.33a9.85,9.85,0,0,0,2,.22,7.16,7.16,0,0,0,4.65-1.69C68.37,29.58,72,26.86,75.59,24a3,3,0,0,1,1.79-.83c.45,0,.92.19,1.57,1a2.08,2.08,0,0,1,.59,1.3c0,.47-.29,1.12-1.33,1.94-3.9,3.07-7.82,6.11-11.8,9-1.51,1.09-2.79,2.52-2.78,4.58a6.16,6.16,0,0,0,.18,1.45c.44,1.78.47,3.82.95,5.9a6.3,6.3,0,0,0,1.72,2.49,2.64,2.64,0,0,0,1.38.69c6.1,1.77,6.86,6.89,8.06,12.62v0a1.42,1.42,0,0,1-.3.76c-.94.84-2,1.63-3.37,2.65-1.56-6.73-4.91-12.37-13.08-13.37l-1-.12-.16.94c-.75,4.35-1.52,8.89-2.32,13.42-.47,2.7-1,5.39-1.51,8.05a.88.88,0,0,1-.28.62c-1.71.62-3.48,1.15-5.43,1.74C49.14,69.9,51.72,61.1,51.73,51.76ZM54.63,79a2.86,2.86,0,0,0,1.55-2.09c.56-2.7,1-5.41,1.52-8.11.74-4.2,1.46-8.39,2.15-12.44,7,1.32,9.32,6.25,10.76,13.16l.3,1.54a71.51,71.51,0,0,1-21.69,9.69C51.11,80.16,52.88,79.63,54.63,79ZM93.87,59.59C84.06,73.53,72.37,85.25,56.46,91.73c-5.71,2.33-12.09,3.33-18.33,4.94H38a2,2,0,0,1-.35,0c1.31-4.05,2.48-7.82,3.84-11.46a2.91,2.91,0,0,1,1.69-1.07C62.45,80.7,78,71.11,90.11,55.86c.57-.72,1-1.44,1.66-2.49l.74-1.13-1.29-.38-3.73-1.11,10.91-6L101,56a13.64,13.64,0,0,0-2.33-.29C96.5,55.72,95.59,57.11,93.87,59.59Z"/><path class="cls-2" d="M19.36,76.81h-.1a7.74,7.74,0,0,0-7.82,7.67s0,.08,0,.07a7.87,7.87,0,0,0,7.8,7.81v0a7.86,7.86,0,0,0,7.82-7.77v0A7.69,7.69,0,0,0,19.36,76.81Zm5.7,7.77a5.81,5.81,0,0,1-11.62-.07v0a5.74,5.74,0,0,1,5.82-5.67h0a5.68,5.68,0,0,1,5.79,5.75Z"/><path class="cls-3" d="M33.58,88.73a3.05,3.05,0,0,0,3.2-3.16c0-.2,0-.41,0-.62,0-.4,0-.81,0-1.23,0-.67,0-1.36,0-2.05v-.85l-.84-.14c-3.29-.56-3.62-.9-3.56-1.35a10.59,10.59,0,0,1,1.1-3.3,1.68,1.68,0,0,0,.13-.68,3.13,3.13,0,0,0-.66-1.81c-.75-.92-1.6-1.51-2.08-2.13a2.61,2.61,0,0,0-2-1.15,3.79,3.79,0,0,0-2,.78,3.45,3.45,0,0,1-1.75.39,5.66,5.66,0,0,1-.61,0c-1.46,0-.82-1.16-1.48-3.67l-.22-.7H22c-.76,0-1.58-.05-2.43-.05a11,11,0,0,0-1.91.14,3.07,3.07,0,0,0-2.37,2.53c-.11,1.46-.47,1.73-1.51,1.83h0c-1,0-2.36-.58-4.19-1.08L9,70.24l-.4.37c-.14.13-.71.63-1.26,1.16-.74.82-2.27,1.55-2.41,3.43a3.57,3.57,0,0,0,1.6,2.66H6.41c0,.23,0,.54,0,.85-.08,1.9-1.26,1.49-3.7,2l-.83.15v.84c0,.86-.06,1.71-.06,2.58a11,11,0,0,0,.15,1.93,3.36,3.36,0,0,0,2.36,2.4c1.62.39,2.18,1.16,2.19,1.94a2.71,2.71,0,0,1-.69,1.65,3.19,3.19,0,0,0-.85,1.94A2.52,2.52,0,0,0,6,96a7.81,7.81,0,0,1,1.57,1.52,2.66,2.66,0,0,0,2.12,1.35,3.58,3.58,0,0,0,2.12-1,2.88,2.88,0,0,1,1.45-.4c.27,0,.34,0,.34,0,.87.61,1.59,2,2.81,3.71l.3.41h6.37l.07-.93c.06-.91.06-1.56.15-2.07,0-.33,1.67-1.66,2.32-1.54l.06,0a3.92,3.92,0,0,0,2.83,1.6c1.77-.1,2.59-1.44,3.52-2.25A3.65,3.65,0,0,0,33.54,94a3.4,3.4,0,0,0-1.16-2.3,1.38,1.38,0,0,1-.37-1A1.93,1.93,0,0,1,33.58,88.73Zm-27-10.84h0ZM30,90.68a3.39,3.39,0,0,0,.93,2.38c.54.56.61.86.6.91s-.13.43-.83,1.07c-1,1.05-1.84,1.8-2.14,1.7s-.6-.11-1.34-.93a2,2,0,0,0-1.56-.64,4.77,4.77,0,0,0-4.29,3.17,9.94,9.94,0,0,0-.13,1.36H17.78A14.92,14.92,0,0,0,14.84,96a2.56,2.56,0,0,0-1.53-.42,4.66,4.66,0,0,0-2.68.82,2.24,2.24,0,0,1-.89.53s-.08.05-.48-.5a9.67,9.67,0,0,0-2-1.94c-.42-.34-.36-.38-.36-.38a1.83,1.83,0,0,1,.42-.69A4.68,4.68,0,0,0,8.46,90.5c0-2-1.61-3.46-3.76-3.9-.11,0-.82-.75-.81-.79a9.09,9.09,0,0,1-.12-1.58c0-.53,0-1.1,0-1.69,1.74-.18,4.34-.53,4.54-3.71,0-.23.05-.59.05-1a1.85,1.85,0,0,0-.57-1.52h0c-.82-.66-.9-1-.89-1.14s.74-1.07,1.8-2c.28-.27.57-.53.8-.74a15.22,15.22,0,0,0,4.18,1h.12a3.56,3.56,0,0,0,3.44-3.82c.11,0,0,0,.25-.23a1.26,1.26,0,0,1,.47-.34A9.08,9.08,0,0,1,19.57,69c.52,0,1.06,0,1.62,0,.16,1.43,0,3.95,3,4.38a7.72,7.72,0,0,0,.83,0,5.31,5.31,0,0,0,2.84-.71,2.35,2.35,0,0,1,.92-.46s.09,0,.46.4c.75.92,1.6,1.51,2.08,2.14a1.42,1.42,0,0,1,.23.54,11.32,11.32,0,0,0-1.23,4c.1,2.14,1.86,2.75,4.39,3.19,0,.39,0,.79,0,1.2s0,.91,0,1.37c0,.17,0,.33,0,.48-.2,1.08.19.9-1.29,1.16A3.88,3.88,0,0,0,30,90.68Z"/><path class="cls-4" d="M86.41,16.26a11.36,11.36,0,0,1-.9,4.1l-.92,2.36,2.29-1.09c2.62-1.3,4.42-2.67,5.6-2.6h0c1.28-.06,3.13,1.27,5.84,2.51l2.31,1-1-2.33a10.18,10.18,0,0,1-.9-3.94c0-2.49,1.24-4.54,3.75-6.64l2.56-2.12-3.31.36a11.24,11.24,0,0,1-1.21.07C96.63,7.89,95,5.87,94,1.94l-.3-1.2-1.11.54-.68.33-.28.14L91.45,2c-1,1.88-1.63,4-2.68,4.7s-3.13.86-6,1.52l-2.3.55,2,1.27C85.3,11.91,86.38,13.82,86.41,16.26ZM90,8.32a10.06,10.06,0,0,0,2.6-4.06c1.14,3,3.3,5.27,6.76,5.65a9.45,9.45,0,0,0-2.61,6.4A10.52,10.52,0,0,0,97,18.67a10.8,10.8,0,0,0-4.3-1.61l-.07,0h-.2a9.27,9.27,0,0,0-4.35,1.66,11.15,11.15,0,0,0,.29-2.43,8.46,8.46,0,0,0-3-6.49A10.17,10.17,0,0,0,90,8.32Z"/><path class="cls-5" d="M17,13.66l-.16.15,1.34.08v1.41l.34-.33.13,1,.11.92.93,0,2.7-.13,1-.05-.09-1-.22-2.62a3,3,0,0,0,1.07.57h0a1.37,1.37,0,0,0,.28,0c1.47-.26,1.63-1.1,2.69-1.79l1.2-.93L27,10.21C26,9.7,25.62,9,24.35,8.88l-.26,0h0a2.71,2.71,0,0,0-1,.49l.24-.24L24,8.51l-.57-.7-1.6-2-.65-.79-.78.66-1.6,1.36-.92.78.66.53c-1.17.76-2.41.71-3.15,2.26a3.48,3.48,0,0,0-.15,1A2.06,2.06,0,0,0,17,13.66Zm4.26,1.16-.74,0-.1-.83.78,0Zm3.11-3.93.5.32-.41.36-.39-.39A1.28,1.28,0,0,1,24.37,10.89ZM22,12a1.59,1.59,0,0,1,.2.18h-.06l-1.7-.1-.3,0V9.75l.72.58.7.57.64-.64.24-.24a2.6,2.6,0,0,1-.44.48l-.79.74Zm-4.75-.73c.11,0,0,0,.47-.21l.42-.2v1H18c-.81-.1-.81-.07-.81-.16A1.53,1.53,0,0,1,17.3,11.22Z"/><path class="cls-6" d="M101.13,94h0l-.29,0a3.16,3.16,0,0,0-1.51.58,2.57,2.57,0,0,0,.68-1.4,1.27,1.27,0,0,0,0-.32c-.4-1.19-1.29-1.57-1.61-2L97.6,90l-.72.79c-.31.42-1.2.81-1.56,2a1.28,1.28,0,0,0,0,.28,2.67,2.67,0,0,0,1,1.68,3.68,3.68,0,0,0-1.91-.87l-.28,0h0c-1.32.4-1.56,1.39-2,1.68l-.69.73.73.69c.42.28.71,1.27,2.06,1.6h.21c1.42-.21,1.67-1,2.75-1.69l.44-.31L98,97a5.64,5.64,0,0,1,.82.64,4.12,4.12,0,0,0-1-.41,1.17,1.17,0,0,0-.29,0h0a3.25,3.25,0,0,0-2.14,2.08,1.31,1.31,0,0,0,0,.36c.22,1.34.92,1.54,1.49,2.55l.84,1.26.83-1.26c.6-1,1.39-1.39,1.54-2.76v0a3.66,3.66,0,0,0-.6-1.33,2.74,2.74,0,0,0,1.38.58h.12a2.79,2.79,0,0,0,2.32-2.24v-.12A2.78,2.78,0,0,0,101.13,94ZM98,99.16h0Zm-.19.09,0,.1c.19.1.22.06.18.09h0l-.38.52-.11-.14-.18-.11A2.32,2.32,0,0,1,97.78,99.26Zm.12-6.12-.09,0-.17.19-.17-.18-.1,0,.26-.27Zm-3.45,3.52a3.51,3.51,0,0,0-.35-.4,1.55,1.55,0,0,1,.27-.32l.48.31-.21.17Zm5.83-.44a3.16,3.16,0,0,1,.48-.29s.37.27.44.35c-.08.05-.34.31-.42.37s0,0-.24-.21Z"/><polygon class="cls-7" points="100.9 98.67 100.89 98.67 100.89 98.67 100.9 98.67"/><path class="cls-8" d="M8.6,5.89a1.18,1.18,0,0,0,0,.34,2.64,2.64,0,0,0,2.1,2.22h.2c1.23-.11,1.69-.74,2.84-1.26l1.48-.74-1.35-1C12.7,4.81,12.45,4,11,3.77h-.15A3.05,3.05,0,0,0,8.6,5.89ZM11,5.8c0,.05,0,0,.24.22l.19.16a3.11,3.11,0,0,1-.57.3h0c0-.12,0,0-.15-.2l-.11,0A1.82,1.82,0,0,1,11,5.8Z"/><polygon class="cls-9" points="97.48 97.22 97.48 97.22 97.51 97.22 97.48 97.22"/><polygon class="cls-10" points="4.39 8.46 4.38 8.46 4.38 8.46 4.39 8.46"/><path class="cls-11" d="M4.38,8.46C5.73,8.14,6,7.17,6.44,6.91l.74-.69-.69-.73c-.4-.29-.61-1.31-2-1.7h0l-.24,0c-1.3.15-1.66.86-2.82,1.45L0,6.05l1.4.88c1.14.63,1.45,1.37,2.79,1.54Zm-.7-2.37a3,3,0,0,1,.49-.32c0,.07,0,0,.13.19l.16.21a1.09,1.09,0,0,1-.29.29s0,0-.3-.22Z"/><path class="cls-12" d="M7.33,6.41l.83-.94c.56-.82,1.38-.84,1.69-2.34l0-.22C9.53,1.7,8.67,1.25,8.38.82L7.71,0,6.93.72c-.36.4-1.27.75-1.76,1.89A1.23,1.23,0,0,0,5.1,3c.25,1.38,1,1.53,1.49,2.38Zm.46-3.29H7.68l-.2.19L7.26,3l.26-.22Z"/><path class="cls-13" d="M7.62,11.83h0l.19,0c1.55-.33,1.53-1.19,2.43-1.85l1-1-1.23-.66c-.87-.39-1.19-1-2.4-1.17a1.39,1.39,0,0,0-.4.06h0C6.09,7.7,5.73,8.59,5.32,8.92l-.82.81.92.69a5.4,5.4,0,0,0,2.14,1.39h0ZM8,9.46l-.18.2,0,.15c-.08-.05-.21-.15-.36-.28l.24-.25a.94.94,0,0,1,.2.12Z"/></g></g></svg>