<svg xmlns="http://www.w3.org/2000/svg" xmlns:xlink="http://www.w3.org/1999/xlink" viewBox="0 0 71.53 67.58"><defs><style>.cls-1{fill:url(#linear-gradient);}</style><linearGradient id="linear-gradient" x1="0.55" y1="33.79" x2="70.99" y2="33.79" gradientUnits="userSpaceOnUse"><stop offset="0" stop-color="#6cc4c7"/><stop offset="0.5" stop-color="#4ea5c6"/><stop offset="1" stop-color="#2c82c5"/></linearGradient></defs><title>fb</title><g id="Layer_2" data-name="Layer 2"><g id="Layer_1-2" data-name="Layer 1"><path class="cls-1" d="M35.77,0C16.08,0,0,15.09,0,33.87c0,17,13.14,30.93,30.19,33.46l1.72.25V41.72h-8.7V35.37h8.7V26.73c.13-7.41,4.2-10.94,11.44-11.09a51.25,51.25,0,0,1,6.17.44v5.16H46.71c-4.94,0-7.08,3.49-7.08,6.55v7.57h9.24l-1,6.36H39.62V67.58l1.72-.25C58.4,64.8,71.52,50.83,71.53,33.87,71.52,15.09,55.46,0,35.77,0Zm6.85,64V44.72h7.76l2-12.36H42.62V27.79c.19-2.06.51-3.39,4.08-3.55h5.82V13.5l-1.26-.2a57,57,0,0,0-7.91-.65c-8.41,0-14.43,5.28-14.44,14.09v5.63h-8.7V44.72h8.7V64C14.06,61.07,3,48.65,3,33.87,3,16.89,17.61,3,35.77,3S68.5,16.89,68.53,33.87C68.54,48.65,57.47,61.07,42.62,64Z"/></g></g></svg>