<svg xmlns="http://www.w3.org/2000/svg" xmlns:xlink="http://www.w3.org/1999/xlink" viewBox="0 0 255.69 241.62"><defs><style>.cls-1{fill:url(#linear-gradient);}.cls-2{fill:url(#linear-gradient-2);}.cls-3{fill:url(#linear-gradient-3);}.cls-4{fill:url(#linear-gradient-4);}</style><linearGradient id="linear-gradient" x1="720.54" y1="275.88" x2="721.54" y2="275.88" gradientTransform="matrix(183.23, 0, 0, -183.23, -132022.63, 50697.28)" gradientUnits="userSpaceOnUse"><stop offset="0" stop-color="#6cc4c7"/><stop offset="1" stop-color="#2d82c5"/></linearGradient><linearGradient id="linear-gradient-2" x1="716.94" y1="274.28" x2="717.94" y2="274.28" gradientTransform="matrix(95.88, 0, 0, -95.88, -68691.05, 26446.22)" xlink:href="#linear-gradient"/><linearGradient id="linear-gradient-3" x1="720.26" y1="275.74" x2="721.26" y2="275.74" gradientTransform="matrix(170.85, 0, 0, -170.85, -122968.85, 47194.77)" xlink:href="#linear-gradient"/><linearGradient id="linear-gradient-4" x1="720.44" y1="275.78" x2="721.44" y2="275.78" gradientTransform="matrix(178.38, 0, 0, -178.38, -128440.96, 49277.25)" xlink:href="#linear-gradient"/></defs><title>harpoon_main</title><g id="Layer_2" data-name="Layer 2"><g id="Layer_1-2" data-name="Layer 1"><path class="cls-1" d="M92.61,224.62v1a76.61,76.61,0,0,1,0-153.23v1h-1v-16h1v1A90.84,90.84,0,0,0,2,149H2a90.61,90.61,0,1,0,181.23,0h1v1h-16v-1h1a76.7,76.7,0,0,1-76.61,76.61v-2A74.8,74.8,0,0,0,167.23,149v-1h18v1A92.61,92.61,0,1,1,0,149H0A92.72,92.72,0,0,1,92.61,56.39h1v18h-1a74.61,74.61,0,0,0,0,149.23Z"/><path class="cls-2" d="M46.81,148.66h1a46.94,46.94,0,1,0,93.88,0h1v1h-11v-1h1a37.94,37.94,0,1,1-37.94-37.94v1h-1v-11h1v1a47.06,47.06,0,0,0-46.94,46.94h-2A49,49,0,0,1,94.75,99.72h1v13h-1a35.94,35.94,0,1,0,35.94,35.94v-1h13v1a48.94,48.94,0,1,1-97.88,0Z"/><path class="cls-3" d="M254.87.85l.7.71L101.05,154.05l78.74-65.21-1.22,3.43a14.83,14.83,0,0,0-.84,5c0,5.26,2.54,10.67,5.46,14.72s6.46,6.72,6.84,6.51v.28h-.4s.3-.28.4-.28v.28h-.4a6.19,6.19,0,0,0-.78-2.19,12.72,12.72,0,0,1-1-5.53c0-8,3.48-21,7.24-32.12C199.29,67.7,202,59.07,205,58.11c1.49.31,1.28,1.37,1.35,2a18.82,18.82,0,0,1-.31,2.9,33.37,33.37,0,0,0-.48,5.48c0,14.11,10.33,17.57,10.32,17.63l-.33.94-.95.32a15,15,0,0,1-.68-4.74C214.08,58.43,254,.42,254,.29l.83.56.7.71-.7-.71.83.56c-.1,0-39.86,58.51-39.74,81.25a13.06,13.06,0,0,0,.57,4.11l.65,1.94L215.25,88c-.14,0-11.66-4.23-11.66-19.52a35.36,35.36,0,0,1,.51-5.81,17.14,17.14,0,0,0,.28-2.57,2.23,2.23,0,0,0,0-.44l.69-.24v.66a.79.79,0,0,1-.69-.42l.69-.24v.12l.33.46a.57.57,0,0,1-.33.09v-.54l.33.46c-2.28,1.27-15.68,36.62-15.48,51.06a11,11,0,0,0,.75,4.63,7.57,7.57,0,0,1,1,3.09,1.82,1.82,0,0,1-1.6,1.72c-3.95-.44-14-11.41-14.3-23.23a16.83,16.83,0,0,1,1-5.69l.94.34.64.77L84.66,170.23l-1.34-1.48L254.16.14l1.53,1.28Z"/><path class="cls-4" d="M154.87,73.88l.74.68L88.7,147.13,250.18.11l.67.74.52.85c-.12,0-60.07,36.87-85.4,37a17,17,0,0,1-5.48-.79l.33-.95.95-.33s3.48,10.55,18.81,10.56a37.36,37.36,0,0,0,4.87-.33,22.38,22.38,0,0,1,2.77-.23c.8.12,1.81-.25,2.24,1.36-.68,2.17-2.85,2.36-6.65,4.14-11.26,4.41-35,11.25-47.64,11.27a15,15,0,0,1-6.47-1.09,6.49,6.49,0,0,0-2.3-.83v-.4h.29c0,.1-.28.4-.28.4v-.4h.29c-.22.37,2.54,4.13,6.76,7s9.84,5.6,15.36,5.59a16.06,16.06,0,0,0,4.77-.7l3.55-1.1-2.52,2.73-.74-.68.3,1a18.05,18.05,0,0,1-5.36.79c-12.31-.31-23.67-10.58-24.11-14.56a1.81,1.81,0,0,1,1.71-1.6,7.82,7.82,0,0,1,3.2,1,13.25,13.25,0,0,0,5.56.88c8,0,21.32-3,32.53-6.32,5.61-1.65,10.71-3.38,14.38-4.82a45.13,45.13,0,0,0,4.3-1.89,7.58,7.58,0,0,0,1-.64,1.23,1.23,0,0,0,.14-.12L189,48h-.59a.61.61,0,0,1,.11-.38L189,48h0l-.21.69a.75.75,0,0,1-.41-.69h.62l-.21.69a2.76,2.76,0,0,0-.65-.05,20.63,20.63,0,0,0-2.51.21,39.35,39.35,0,0,1-5.13.35c-16.44,0-20.69-11.75-20.7-11.91l-.67-1.94,1.94.67a15,15,0,0,0,4.83.68C190,36.78,250.25,0,250.33,0l1.19,1.59L73.14,164l-1.41-1.42,82.4-89.37.74.68.3,1Z"/></g></g></svg>