<svg xmlns="http://www.w3.org/2000/svg" xmlns:xlink="http://www.w3.org/1999/xlink" viewBox="0 0 71.53 67.89"><defs><style>.cls-1{fill:url(#linear-gradient);}.cls-2{fill:url(#linear-gradient-2);}.cls-3{fill:url(#linear-gradient-3);}.cls-4{fill:url(#linear-gradient-4);}</style><linearGradient id="linear-gradient" y1="33.95" x2="71.53" y2="33.95" gradientUnits="userSpaceOnUse"><stop offset="0" stop-color="#6cc4c7"/><stop offset="0.5" stop-color="#4ea5c6"/><stop offset="1" stop-color="#2c82c5"/></linearGradient><linearGradient id="linear-gradient-2" x1="13.59" y1="33.95" x2="57.94" y2="33.95" xlink:href="#linear-gradient"/><linearGradient id="linear-gradient-3" x1="24.38" y1="33.95" x2="47.16" y2="33.95" xlink:href="#linear-gradient"/><linearGradient id="linear-gradient-4" x1="44.94" y1="22.7" x2="50.27" y2="22.7" xlink:href="#linear-gradient"/></defs><title>insta</title><g id="Layer_2" data-name="Layer 2"><g id="Layer_1-2" data-name="Layer 1"><path class="cls-1" d="M35.77,0C16.07,0,0,15.13,0,33.95S16.07,67.86,35.77,67.89,71.52,52.76,71.53,33.95,55.46,0,35.77,0Zm0,64.89C17.61,64.89,3,51,3,33.95S17.61,3,35.77,3,68.5,16.92,68.53,33.95,53.92,64.89,35.77,64.89Z"/><path class="cls-2" d="M56.78,20.15a10.25,10.25,0,0,0-2.56-3.73A10.89,10.89,0,0,0,50.29,14a17.16,17.16,0,0,0-5.38-1c-2.37-.1-3.12-.13-9.15-.13s-6.78,0-9.14.13a17.14,17.14,0,0,0-5.38,1,10.9,10.9,0,0,0-3.93,2.43,10.25,10.25,0,0,0-2.56,3.73,14.81,14.81,0,0,0-1,5.11c-.1,2.24-.13,3-.13,8.68s0,6.44.13,8.68a14.81,14.81,0,0,0,1,5.11,10.28,10.28,0,0,0,2.56,3.73,11,11,0,0,0,3.93,2.43,16.94,16.94,0,0,0,5.38,1c2.36.1,3.12.13,9.14.13s6.78,0,9.15-.13a17,17,0,0,0,5.38-1,11,11,0,0,0,3.93-2.43,10.28,10.28,0,0,0,2.56-3.73,14.73,14.73,0,0,0,1-5.11c.11-2.25.13-3,.13-8.68s0-6.44-.13-8.68A14.73,14.73,0,0,0,56.78,20.15Zm-3,22.31a11.2,11.2,0,0,1-.76,3.91,6.52,6.52,0,0,1-1.66,2.42,6.92,6.92,0,0,1-2.55,1.58,12.92,12.92,0,0,1-4.12.72c-2.34.1-3,.12-9,.12s-6.62,0-9-.12a12.88,12.88,0,0,1-4.12-.72,6.92,6.92,0,0,1-2.55-1.58,6.47,6.47,0,0,1-1.66-2.42,11.09,11.09,0,0,1-.77-3.91c-.11-2.22-.13-2.89-.13-8.51s0-6.29.13-8.51a11.07,11.07,0,0,1,.77-3.91,6.48,6.48,0,0,1,1.66-2.42,7,7,0,0,1,2.55-1.57,12.76,12.76,0,0,1,4.12-.72c2.34-.1,3-.12,9-.12s6.62,0,9,.12a12.8,12.8,0,0,1,4.12.72A7,7,0,0,1,51.4,19.1a6.53,6.53,0,0,1,1.66,2.42,11.18,11.18,0,0,1,.76,3.91c.11,2.22.13,2.89.13,8.51S53.93,40.24,53.82,42.46Z"/><path class="cls-3" d="M35.76,23.13c-6.29,0-11.39,4.84-11.39,10.82s5.1,10.82,11.39,10.82,11.39-4.84,11.39-10.82S42.05,23.13,35.76,23.13Zm0,17.84a7.21,7.21,0,0,1-7.39-7,7.21,7.21,0,0,1,7.39-7,7.22,7.22,0,0,1,7.39,7A7.22,7.22,0,0,1,35.76,41Z"/><ellipse class="cls-4" cx="47.61" cy="22.7" rx="2.66" ry="2.53"/></g></g></svg>