<svg xmlns="http://www.w3.org/2000/svg" xmlns:xlink="http://www.w3.org/1999/xlink" viewBox="0 0 137.72 136.4"><defs><style>.cls-1{fill:url(#linear-gradient);}.cls-2{fill:url(#linear-gradient-2);}.cls-3{fill:url(#linear-gradient-3);}.cls-4{fill:url(#linear-gradient-4);}</style><linearGradient id="linear-gradient" x1="-1141.68" y1="237.87" x2="-1140.68" y2="237.87" gradientTransform="matrix(138.07, 0, 0, -138.07, 157633.4, 32910.96)" gradientUnits="userSpaceOnUse"><stop offset="0" stop-color="#6cc4c7"/><stop offset="1" stop-color="#2d82c5"/></linearGradient><linearGradient id="linear-gradient-2" x1="-1141.59" y1="237.06" x2="-1140.59" y2="237.06" gradientTransform="matrix(102.01, 0, 0, -102.01, 116481.06, 24220.21)" xlink:href="#linear-gradient"/><linearGradient id="linear-gradient-3" x1="-1141.16" y1="234.24" x2="-1140.16" y2="234.24" gradientTransform="matrix(47.27, 0, 0, -47.27, 53960.34, 11095.52)" xlink:href="#linear-gradient"/><linearGradient id="linear-gradient-4" x1="-1139.24" y1="221.67" x2="-1138.24" y2="221.67" gradientTransform="matrix(14, 0, 0, -14, 15990.09, 3127.63)" xlink:href="#linear-gradient"/></defs><title>Led</title><g id="Layer_2" data-name="Layer 2"><g id="Layer_1-2" data-name="Layer 1"><path class="cls-1" d="M123.58,121.9l0,.5c-.28,0-.57,0-.87,0h-5.26c-1.55,0-3.11,0-4.66,0h0a1.4,1.4,0,0,1-1.4-1.46q0-24.42,0-48.85,0-9.83,0-19.66,0-1.86,0-3.72,0-3.72,0-7.43V39.83h12.7v82.55l-.48,0,0-.5h-.5V40.83h-10.7v.52q0,3.72,0,7.43,0,1.86,0,3.72,0,9.83,0,19.66,0,24.42,0,48.85c.14.46,0,.32.4.46h0c1.56,0,3.12,0,4.67,0h5.26c.25,0,.52,0,.83,0l0,.5h0ZM94.46,122v.5c-1.48,0-3,0-4.46,0H83.26V57.63H95.89l0,.48c0,.29,0,.57,0,.87q0,31,0,62h0a1.42,1.42,0,0,1-1.45,1.47h-.07v-1h0c.45-.14.3,0,.45-.47h0q0-31,0-62c0-.25,0-.51,0-.83l.5,0v.5H84.26v62.82H90c1.49,0,3,0,4.47,0Zm-27.29-.08v.5H55.07V69.89h12.6v52.49h-.5v-.5h-.5v-51H56.07v50.49h11.1v.5h0Zm-28.18,0,0,.5c-.24,0-.47.06-.75.06H33.16l-5.12,0h0a1.29,1.29,0,0,1-1.27-1.28v-.1l.49.09h-.5q0-9.4,0-18.79,0-7.94,0-15.88a1.22,1.22,0,0,1,1.13-1.28H38.53a4.68,4.68,0,0,1,.52.06l.44.05v37l-.46,0,0-.5h-.5V85.79H39l-.06.5-.41-.05H27.9v0h0c-.13.1,0,0-.13.28q0,7.94,0,15.88,0,9.4,0,18.79v.09l-.46-.09h.47v.09l-.46-.09h.47c.14.28,0,.14.27.28h0l5.12,0h5.12c.17,0,.39,0,.67-.05l0,.5h0Zm95.53.06v.5H129a1.21,1.21,0,0,1-1.08-1.14c0-.15,0-.32,0-.53q0-21,0-42.08t0-42.08v-.53H107.56v86.29H99.74V53.89H79.38v67c0,.11,0,.2,0,.28v.32a1.1,1.1,0,0,1-1.12,1h0v0H72.46a3,3,0,0,1-.56-.1l-.4-.08V66.17H51.19v37.41q0,3.83,0,7.65,0,4.92,0,9.85h0a1.32,1.32,0,0,1-1.28,1.37h-.1q-1.28,0-2.56,0t-2.49,0h-.13A1.37,1.37,0,0,1,43.31,121V121l.5.06h-.5q0-13,0-26,0-6.46,0-12.91c0-.36,0-.72,0-1.13h.5v.5H22.94V122.4H14.69l0-.48c0-.35,0-.69,0-1q0-58.69,0-117.37V3.42a6.11,6.11,0,0,0,0-.7A1.79,1.79,0,0,0,12.7,1h0a1.81,1.81,0,0,0-1.84,1.78c0,.2,0,.4,0,.61s0,.44,0,.67V122.44H3.14c-1.43,0-2.11.7-2.14,1.88H1c0,1.15.74,1.82,2.13,1.86h7.69V128c0,1,0,1.92,0,2.88s0,1.69,0,2.53a1.8,1.8,0,0,0,1.59,2l.32,0a1.81,1.81,0,0,0,1.87-2c0-.81,0-1.62,0-2.44s0-1.85,0-2.78q0-.29,0-.59c0-.34,0-.64.06-1l0-.47H134.5c1.51,0,2.18-.68,2.22-1.88v0h0c0-1.18-.71-1.8-2.2-1.85v-1a2.9,2.9,0,0,1,3.19,2.85h0a2.93,2.93,0,0,1-3.22,2.88H15.18v-.5l.5,0c0,.36-.06.66-.06.91s0,.39,0,.58c0,.92,0,1.85,0,2.78s0,1.64,0,2.46a2.82,2.82,0,0,1-2.87,2.94l-.45,0a2.81,2.81,0,0,1-2.47-2.93c0-.85,0-1.7,0-2.55s0-1.92,0-2.88q0-.15,0-.31c0-.31,0-.61,0-1h.5v.5H3.12A2.88,2.88,0,0,1,0,124.36H.5l-.5,0v-.05a2.9,2.9,0,0,1,3.14-2.88h7.18v.5h-.5v-1.18q0-58.34,0-116.68c0-.22,0-.44,0-.67s0-.45,0-.68A2.82,2.82,0,0,1,12.65,0h.05A2.81,2.81,0,0,1,15.58,2.6a7,7,0,0,1,0,.81v.09q0,58.69,0,117.37c0,.3,0,.62,0,1l-.5,0v-.5h6.77V80.52H44.33v1.63q0,6.46,0,12.91,0,13,0,26v.06l-.45-.05h.45v.05l-.45-.05h.45c.14.44,0,.32.34.45h.09q1.26,0,2.52,0t2.59,0h.07c.28-.12.14,0,.28-.37h0q0-4.93,0-9.85,0-3.82,0-7.65,0-18.39,0-36.78V65.17H72.5v56.68H72l.1-.49.36.08h5.93v-.08a2.18,2.18,0,0,1,0-.24c0-.11,0-.2,0-.28q0-33.25,0-66.51V52.89h22.35v68.49h5.82V35.09h22.38v1.53q0,21,0,42.08t0,42.08c0,.22,0,.4,0,.53l.08.14h5.51Z"/><path class="cls-2" d="M51.34,49.77l.42.27C48.21,55.7,44.62,61.32,41.06,67a1.61,1.61,0,0,1-1.45.85H39.5l-1.12,0H25.19a1.82,1.82,0,0,0-1.9,1.27,2,2,0,0,0-.1.62,1.92,1.92,0,0,0,2.14,1.82h8l8.71,0h0A.93.93,0,0,0,43,71c3.54-5.63,7.12-11.24,10.67-16.86a1.78,1.78,0,0,1,1.65-.91h0c5,0,9.92,0,14.88,0h0c.48,0,.52-.06.81-.44,3.57-5.55,7.18-11.08,10.75-16.63a1.74,1.74,0,0,1,1.59-.87v0h0v0h0c4.93,0,9.87,0,14.8,0h0a1,1,0,0,0,.93-.48q9.1-11.93,18.24-23.83l.49-.62.23-.28.34.13.2.08.33.12v.35c0,.17,0,.34,0,.51s0,.25,0,.37c0,4.2.08,8.39.14,12.58A1.81,1.81,0,0,0,121,26.17H121a1.81,1.81,0,0,0,1.82-1.95v0h0q-.1-10.36-.22-20.72A2.47,2.47,0,0,0,120.17,1a2.54,2.54,0,0,0-1,.19q-9.83,3.95-19.64,8a1.8,1.8,0,0,0-1.17,1.68,1.93,1.93,0,0,0,.14.72,1.86,1.86,0,0,0,1.76,1.15,2.11,2.11,0,0,0,.71-.12c.53-.19,1.07-.43,1.63-.66L114,7.32l.3-.12.23.23.12.11.29.29-.23.34c-.1.15-.21.33-.35.51q-8.49,11.09-17,22.18a1.81,1.81,0,0,1-1.57.74h0l0-.5v.5c-5,0-10.08,0-15.12,0h0c-.45,0-.48,0-.75.41-3.56,5.53-7.15,11-10.7,16.57a1.92,1.92,0,0,1-1.77,1h0c-4.9,0-9.81,0-14.72,0h0c-.57,0-.65.06-1,.53l-.42-.27-.42-.27a2,2,0,0,1,1.83-1h0c4.91,0,9.81,0,14.73,0h0c.54,0,.6-.08.93-.52,3.56-5.53,7.15-11,10.7-16.57a1.73,1.73,0,0,1,1.59-.87h0c5,0,10.08,0,15.12,0h0l0,.39v-.39h0l0,.39v-.39c.44,0,.51,0,.77-.35q8.47-11.1,17-22.18c.1-.13.2-.29.32-.47l.41.28-.35.35-.11-.11.35-.36.19.46L103,12.86c-.54.22-1.09.47-1.68.68a3.11,3.11,0,0,1-1,.18,2.87,2.87,0,0,1-2.68-1.78,2.93,2.93,0,0,1-.21-1.1,2.81,2.81,0,0,1,1.79-2.61q9.81-4,19.64-8A3.54,3.54,0,0,1,120.17,0a3.47,3.47,0,0,1,3.45,3.47q.13,10.36.22,20.72h0v0a2.82,2.82,0,0,1-2.79,2.94H121a2.82,2.82,0,0,1-2.86-2.9c-.07-4.2-.1-8.39-.14-12.59,0-.13,0-.26,0-.38s0-.34,0-.51h.5l-.17.47-.2-.07.17-.47.39.31-.48.61Q109,23.54,99.92,35.46a2,2,0,0,1-1.72.87h0c-4.93,0-9.86,0-14.8,0v0h0c-.45,0-.48,0-.75.41C79,42.27,75.44,47.8,71.87,53.35a1.8,1.8,0,0,1-1.65.9h0c-5,0-9.92,0-14.88,0v0h0c-.48,0-.52.06-.8.45C51,60.3,47.38,65.9,43.84,71.53a2,2,0,0,1-1.82,1h0l-8.7,0h-8a2.94,2.94,0,0,1-3.14-2.82,3,3,0,0,1,.15-.92,2.84,2.84,0,0,1,2.85-2H38.38c.39,0,.77,0,1.16,0h.07c.34,0,.35,0,.6-.39,3.56-5.65,7.15-11.28,10.7-16.93Z"/><path class="cls-3" d="M42.74,5.19v-.5a18.7,18.7,0,0,1,18.6,18.46v.17A18.75,18.75,0,0,1,42.71,41.89h-.23A18.73,18.73,0,0,1,23.85,23v-.2h0C24,12.9,32.46,4.7,42.54,4.69h.2v1h-.19c-9.54,0-17.61,7.8-17.69,17.12v0h0V23A17.73,17.73,0,0,0,42.49,40.89h.21A17.75,17.75,0,0,0,60.34,23.32v-.17A17.7,17.7,0,0,0,42.73,5.69ZM42.5,46v-.5h.07A22.37,22.37,0,0,0,65.06,23.21h0A22.35,22.35,0,0,0,42.84,1h-.09A22.33,22.33,0,0,0,20.14,23.11v.07A22.36,22.36,0,0,0,42.51,45.54v1A23.36,23.36,0,0,1,19.14,23.18v-.07A23.33,23.33,0,0,1,42.75,0h.09A23.35,23.35,0,0,1,66.06,23.21h0A23.38,23.38,0,0,1,42.58,46.54H42.5Z"/><path class="cls-4" d="M36.6,32.33l.31-.39a7.14,7.14,0,0,0,3.21,1.46,1.11,1.11,0,0,1,1,1.16v.07h0c0,.33,0,.66,0,1,0,.49,0,1,0,1.52h-.5v-.5h3.91v.5H44c0-.54,0-1.07,0-1.57,0-.33,0-.65,0-1v-.15A1.52,1.52,0,0,1,45,33a5.88,5.88,0,0,0,3.38-5.4A6,6,0,0,0,46.25,23a19.48,19.48,0,0,0-2.42-1.54c-.71-.43-1.5-.81-2.25-1.31a2.11,2.11,0,0,1-1-1.8,2.44,2.44,0,0,1,.08-.6,2.25,2.25,0,0,1,2-1.68,4.42,4.42,0,0,1,.53,0,5.5,5.5,0,0,1,2.58.71l1.56.83-.23.44-.47-.18L48.07,14l.47.18-.31.39a7.05,7.05,0,0,0-3-1.51,1.15,1.15,0,0,1-1-1.2v-.1h0c0-.32,0-.65,0-1s0-1,0-1.46h.5v.5H40.78v-.5h.5c0,.51,0,1,0,1.46,0,.31,0,.61,0,.91v.2a1.61,1.61,0,0,1-1.05,1.56,5.41,5.41,0,0,0-3.14,4.94,5.49,5.49,0,0,0,2,4.21A23.67,23.67,0,0,0,42,24.47a16.89,16.89,0,0,1,2,1.28,2.5,2.5,0,0,1,.93,2,3.26,3.26,0,0,1-.17,1,2.44,2.44,0,0,1-2.31,1.69l-.41,0a5.81,5.81,0,0,1-3.28-1.08c-.46-.31-.9-.64-1.38-1l.29-.41.47.18c-.45,1.2-.86,2.34-1.33,3.47l0,.17s0,0,.17.17l-.31.39-.31.39a1.21,1.21,0,0,1-.54-.95,1.45,1.45,0,0,1,.13-.55c.46-1.1.86-2.23,1.32-3.44l.23-.61.53.38c.49.35.92.68,1.36,1a4.81,4.81,0,0,0,2.72.91h.33a1.42,1.42,0,0,0,1.44-1,2.27,2.27,0,0,0,.12-.69,1.49,1.49,0,0,0-.57-1.2,16.55,16.55,0,0,0-1.88-1.2,23.7,23.7,0,0,1-3-1.92,6.5,6.5,0,0,1-2.32-5,6.41,6.41,0,0,1,3.71-5.84c.47-.27.44-.25.48-.66v-.13c0-.33,0-.65,0-1,0-.49,0-1,0-1.46v-.5h4.93v.5c0,.48,0,1,0,1.46,0,.34,0,.67,0,1v0h0v.06c.08.22,0,.1.21.22a8,8,0,0,1,3.44,1.7l.29.23-.13.34-1.48,3.79-.2.52-.5-.26-1.56-.83a4.51,4.51,0,0,0-2.12-.6l-.41,0a1.24,1.24,0,0,0-1.15.93,1.45,1.45,0,0,0,0,.35,1.1,1.1,0,0,0,.58,1c.69.45,1.46.83,2.23,1.29a20,20,0,0,1,2.55,1.63,7,7,0,0,1,2.51,5.39,6.88,6.88,0,0,1-4,6.31c-.43.25-.39.19-.43.57v.1c0,.35,0,.69,0,1,0,.52,0,1,0,1.57v.5H40.11v-.5c0-.51,0-1,0-1.52,0-.35,0-.69,0-1l.5,0h-.5v-.05c-.08-.18,0-.06-.18-.18a8.15,8.15,0,0,1-3.65-1.66Z"/></g></g></svg>