<svg xmlns="http://www.w3.org/2000/svg" viewBox="0 0 137.72 136.4"><defs><style>.cls-1{fill:#120542;}</style></defs><title>led_black</title><g id="Layer_2" data-name="Layer 2"><g id="Layer_1-2" data-name="Layer 1"><path class="cls-1" d="M134.53,121.44v0H129l-.08-.14c0-.14,0-.31,0-.54q0-21,0-42.08t0-42.08V35.09H106.56v86.29h-5.83V52.89H78.38v1.48q0,33.25,0,66.5c0,.08,0,.17,0,.28a2.08,2.08,0,0,0,0,.24v.08H72.5V65.17H50.19V66.8q0,18.39,0,36.78,0,3.82,0,7.65,0,4.93,0,9.85c-.13.39,0,.27-.28.39h-.07q-1.29,0-2.58,0t-2.53,0h-.09c-.34-.13-.2,0-.34-.45q0-13,0-26,0-6.46,0-12.91V80.52H21.94v40.89h-6.3c0-.18,0-.36,0-.52q0-58.69,0-117.37V3.42a7,7,0,0,0,0-.81A2.8,2.8,0,0,0,12.72,0h-.07a2.82,2.82,0,0,0-2.82,2.7c0,.23,0,.46,0,.68s0,.45,0,.67q0,58.34,0,116.67v.68H3.14a2.89,2.89,0,1,0,0,5.76H9.81c0,.17,0,.34,0,.5s0,.21,0,.31c0,1,0,1.92,0,2.88s0,1.7,0,2.55a2.81,2.81,0,0,0,2.47,2.93,3.53,3.53,0,0,0,.45,0,2.82,2.82,0,0,0,2.87-2.94c0-.82,0-1.64,0-2.46s0-1.85,0-2.78c0-.2,0-.39,0-.59s0-.28,0-.44H134.5a2.94,2.94,0,0,0,3.22-2.91A2.9,2.9,0,0,0,134.53,121.44Zm0,4.76H14.71l0,.47c0,.33-.06.63-.06,1s0,.39,0,.59c0,.93,0,1.85,0,2.78s0,1.62,0,2.43a1.81,1.81,0,0,1-1.87,2l-.32,0a1.81,1.81,0,0,1-1.59-2c0-.84,0-1.69,0-2.53s0-1.92,0-2.88v-1.81H3.13c-1.38,0-2.09-.71-2.13-1.85s.71-1.86,2.14-1.91h7.67V4.09c0-.23,0-.45,0-.67s0-.41,0-.61A1.81,1.81,0,0,1,12.67,1h0a1.79,1.79,0,0,1,1.88,1.68,6.15,6.15,0,0,1,0,.7v.09q0,58.69,0,117.37c0,.36,0,.7,0,1l0,.48h8.25V81.52H43.33c0,.22,0,.42,0,.63q0,6.46,0,12.91,0,13,0,26a1.38,1.38,0,0,0,1.34,1.45h.13q1.25,0,2.49,0t2.55,0h.1a1.33,1.33,0,0,0,1.28-1.39q0-4.92,0-9.84,0-3.82,0-7.65V66.17H71.5v56.09l.4.08a2.82,2.82,0,0,0,.56.1h5.81a1.1,1.1,0,0,0,1.12-1v-.32c0-.08,0-.17,0-.28v-67H99.74v68.49h7.82V36.09h20.38v.53q0,21,0,42.08t0,42.08c0,.21,0,.38,0,.54a1.21,1.21,0,0,0,1.08,1.14h5.5c1.49.05,2.16.68,2.2,1.85S136,126.16,134.5,126.21Z"/><path class="cls-1" d="M111.37,40.33v1q0,3.72,0,7.43,0,1.86,0,3.71,0,9.83,0,19.66,0,24.43,0,48.85a1.4,1.4,0,0,0,1.4,1.46h0l4.72,0h5.2c.3,0,.59,0,.87,0l.48,0V39.83h-12.7Zm1,12.16q0-1.86,0-3.71,0-3.71,0-7.43v-.52h10.7v80.6l-.35,0h-5.2l-4.73,0h0c-.4-.14-.26,0-.4-.46q0-24.42,0-48.85Q112.37,62.32,112.37,52.49Z"/><path class="cls-1" d="M95.91,58.1l0-.48H83.26v64.82h6.62c1.52,0,3,0,4.57,0h.06A1.43,1.43,0,0,0,96,121q0-31,0-62C95.95,58.67,95.92,58.39,95.91,58.1Zm-1.39,63.36h0c-1.53,0-3.06,0-4.58,0H84.26V58.62H94.93c0,.12,0,.24,0,.35q0,31,0,62C94.82,121.46,95,121.32,94.52,121.46Z"/><path class="cls-1" d="M55.07,122.38h12.6V69.89H55.07Zm1-51.49h10.6v50.49H56.07Z"/><path class="cls-1" d="M38.52,85.23H33.33l-5.43,0h-.2l0,0a1.27,1.27,0,0,0-.91,1.25q0,7.94,0,15.88,0,9.4,0,18.79A1.29,1.29,0,0,0,28,122.46H38.29c.27,0,.51,0,.75-.06l.46,0v-37l-.44-.06A4.31,4.31,0,0,0,38.52,85.23Zm-.24,36.21H28c-.26-.13-.13,0-.26-.29q0-9.4,0-18.79,0-7.94,0-15.88c.13-.28,0-.17.13-.28h0l5.44,0h5.16v35.2Z"/><path class="cls-1" d="M52.76,48.51h0a2,2,0,0,0-1.83,1l.42.27-.42-.27c-3.55,5.65-7.14,11.28-10.7,16.93-.25.35-.27.36-.6.39h-.07c-.4,0-.79,0-1.18,0H25.18a2.84,2.84,0,0,0-2.85,2,3.05,3.05,0,0,0-.15.92,2.94,2.94,0,0,0,3.13,2.82h7.6l9.07,0h0a2,2,0,0,0,1.83-1C47.38,65.9,51,60.29,54.5,54.67c.28-.39.32-.41.8-.45,0,0,0,0,0,0v0c5,0,9.92,0,14.88,0h0a1.79,1.79,0,0,0,1.65-.9C75.44,47.8,79,42.27,82.61,36.72c.27-.36.3-.38.75-.41,0,0,0,0,0,0v0c4.94,0,9.87,0,14.8,0h0a2,2,0,0,0,1.72-.87q9-11.79,18-23.57c0,4.12.07,8.25.14,12.37a2.82,2.82,0,0,0,2.87,2.9h.17a2.83,2.83,0,0,0,2.73-3q-.1-10.36-.22-20.72A3.47,3.47,0,0,0,120.17,0a3.55,3.55,0,0,0-1.32.26q-9.84,4-19.64,8a2.81,2.81,0,0,0-1.79,2.61,2.91,2.91,0,0,0,.21,1.09,2.87,2.87,0,0,0,2.69,1.78,3,3,0,0,0,1-.18c.59-.21,1.14-.46,1.68-.68L113,8.8q-8.21,10.73-16.42,21.46c-.26.3-.33.32-.78.35-5,0-10.08,0-15.12,0h0a1.73,1.73,0,0,0-1.58.87C75.57,37,72,42.49,68.43,48c-.32.44-.39.49-.92.52h0C62.58,48.51,57.67,48.54,52.76,48.51Zm16.51.05C72.82,43,76.41,37.53,80,32c.27-.36.29-.38.74-.41h0c5,0,10.08,0,15.12,0a1.81,1.81,0,0,0,1.57-.74q8.47-11.1,17-22.18c.14-.18.25-.36.35-.51l.24-.35-.31-.29-.11-.11-.23-.22-.3.12-11.36,4.62c-.56.23-1.1.47-1.64.66a2.08,2.08,0,0,1-.7.12,1.87,1.87,0,0,1-1.76-1.16,1.92,1.92,0,0,1-.14-.72,1.8,1.8,0,0,1,1.17-1.69q9.81-4,19.63-8a2.6,2.6,0,0,1,1-.19,2.47,2.47,0,0,1,2.45,2.48q.13,10.36.22,20.71a1.82,1.82,0,0,1-1.82,2H121a1.81,1.81,0,0,1-1.87-1.92c-.07-4.19-.1-8.38-.14-12.58q0-.18,0-.37c0-.17,0-.34,0-.51v-.34l-.32-.13-.2-.08-.35-.13-.23.29-.49.62q-9.12,11.91-18.24,23.83a1,1,0,0,1-.92.48h0c-4.94,0-9.87,0-14.8,0h-.19l0,0a1.73,1.73,0,0,0-1.39.85C78.2,41.72,74.6,47.26,71,52.81c-.29.39-.32.41-.8.44h0c-5,0-9.93,0-14.88,0h-.18l0,0a1.77,1.77,0,0,0-1.46.89C50.11,59.76,46.53,65.36,43,71a.93.93,0,0,1-1,.54h0q-4.54,0-9.08,0h-7.6a1.92,1.92,0,0,1-2.14-1.82,2.06,2.06,0,0,1,.1-.62,1.83,1.83,0,0,1,1.9-1.27H38.36l1.13,0h.11A1.62,1.62,0,0,0,41.06,67C44.62,61.32,48.21,55.7,51.76,50c.33-.46.41-.49,1-.53h0c4.91,0,9.82,0,14.72,0h0A1.92,1.92,0,0,0,69.27,48.56Z"/><path class="cls-1" d="M42.48,46.54h.09A23.26,23.26,0,1,0,42.84,0h-.09A23.33,23.33,0,0,0,19.14,23.11v.07A23.36,23.36,0,0,0,42.48,46.54ZM20.14,23.11A22.33,22.33,0,0,1,42.75,1h.09a22.26,22.26,0,1,1-.26,44.51h-.07A22.36,22.36,0,0,1,20.14,23.18Z"/><path class="cls-1" d="M42.46,41.88h.25A18.75,18.75,0,0,0,61.34,23.33v-.17A18.7,18.7,0,0,0,42.75,4.69h-.2C32.46,4.7,24,12.9,23.85,22.8V23A18.73,18.73,0,0,0,42.46,41.88ZM24.85,22.81C24.94,13.49,33,5.69,42.55,5.69h.19A17.7,17.7,0,0,1,60.34,23.16v.16A17.76,17.76,0,0,1,42.71,40.89h-.21A17.73,17.73,0,0,1,24.85,23Z"/><path class="cls-1" d="M36.29,32.72h0a8.15,8.15,0,0,0,3.64,1.66c.19.12.11,0,.18.18v0c0,.35,0,.69,0,1,0,.51,0,1,0,1.51v.5H45v-.5c0-.53,0-1,0-1.57,0-.34,0-.68,0-1v-.1c0-.38,0-.32.43-.57a6.88,6.88,0,0,0,4-6.31,7,7,0,0,0-2.51-5.39,20,20,0,0,0-2.55-1.63c-.76-.46-1.54-.84-2.23-1.29a1.11,1.11,0,0,1-.58-1,1.46,1.46,0,0,1,0-.35A1.23,1.23,0,0,1,42.73,17l.41,0a4.55,4.55,0,0,1,2.12.6l1.56.83.49.26.21-.52L49,14.39l.13-.34-.29-.23a8.07,8.07,0,0,0-3.44-1.7c-.22-.12-.13,0-.2-.22v-.06c0-.34,0-.68,0-1,0-.49,0-1,0-1.46v-.5H40.28v.5c0,.49,0,1,0,1.46,0,.32,0,.65,0,1v.13c0,.41,0,.39-.48.66a6.42,6.42,0,0,0-3.71,5.84,6.49,6.49,0,0,0,2.32,5,23.56,23.56,0,0,0,3,1.92,16.54,16.54,0,0,1,1.88,1.2,1.49,1.49,0,0,1,.57,1.2,2.25,2.25,0,0,1-.12.69,1.42,1.42,0,0,1-1.44,1l-.33,0a4.78,4.78,0,0,1-2.72-.91c-.44-.29-.87-.62-1.36-1l-.53-.38-.23.61c-.46,1.21-.86,2.34-1.32,3.44a1.45,1.45,0,0,0-.12.56A1.21,1.21,0,0,0,36.29,32.72Zm.46-.95,0-.17c.39-.93.74-1.88,1.1-2.86l.85.6A5.78,5.78,0,0,0,42,30.42l.41,0a2.44,2.44,0,0,0,2.31-1.69,3.24,3.24,0,0,0,.17-1,2.51,2.51,0,0,0-.93-2,16.93,16.93,0,0,0-2-1.28,23.74,23.74,0,0,1-2.92-1.83,5.49,5.49,0,0,1-2-4.21,5.41,5.41,0,0,1,3.14-4.94,1.6,1.6,0,0,0,1.06-1.56v-.2c0-.29,0-.6,0-.91s0-.64,0-1h2.94c0,.32,0,.65,0,1s0,.65,0,1v.1a1.14,1.14,0,0,0,1,1.2,6.79,6.79,0,0,1,2.72,1.29l-1.14,2.91-1.07-.57A5.54,5.54,0,0,0,43.14,16a4.45,4.45,0,0,0-.53,0,2.24,2.24,0,0,0-2,1.68,2.45,2.45,0,0,0-.08.6,2.11,2.11,0,0,0,1,1.8c.76.5,1.54.88,2.25,1.31A19.47,19.47,0,0,1,46.25,23a6,6,0,0,1,2.15,4.62A5.88,5.88,0,0,1,45,33a1.52,1.52,0,0,0-1,1.48v.15c0,.32,0,.65,0,1s0,.71,0,1.07H41.11c0-.34,0-.68,0-1s0-.67,0-1v-.07a1.11,1.11,0,0,0-1-1.16,7.14,7.14,0,0,1-3.21-1.46l-.31.39.31-.39C36.74,31.79,36.75,31.77,36.75,31.77Z"/></g></g></svg>