<svg xmlns="http://www.w3.org/2000/svg" viewBox="0 0 626.71 105.43"><defs><style>.cls-1{fill:#fff;}</style></defs><title>logowhite</title><g id="Layer_2" data-name="Layer 2"><g id="Layer_1-2" data-name="Layer 1"><path class="cls-1" d="M407.61,78.16a1.6,1.6,0,0,0-.36-1.12,2.29,2.29,0,0,0-.93-.59,4.43,4.43,0,0,0-1.21-.25c-.42,0-.83,0-1.23,0a11.67,11.67,0,0,0-2.86.37,22.12,22.12,0,0,0-2.88.94,21.72,21.72,0,0,0-2.73,1.33A21.23,21.23,0,0,0,393,80.37a6.85,6.85,0,0,0,3,1.84,14.1,14.1,0,0,0,4.46.65,11.22,11.22,0,0,0,2.62-.3,7.81,7.81,0,0,0,2.24-.9A5.21,5.21,0,0,0,407,80.19a3.45,3.45,0,0,0,.62-2m-14.22-5.81a5.43,5.43,0,0,0-1.48,1.94,5.22,5.22,0,0,0-.51,2.15,5.62,5.62,0,0,0,.25,1.68,3.65,3.65,0,0,0,.68,1.31,30.89,30.89,0,0,1,5.88-2.7,19.89,19.89,0,0,1,6.43-1.06,10.9,10.9,0,0,1,1.59.12,5.65,5.65,0,0,1,1.5.43,2.91,2.91,0,0,1,1.12.88,2.26,2.26,0,0,1,.44,1.43,3.33,3.33,0,0,1-.8,2.27,6,6,0,0,1-2.07,1.49,11,11,0,0,1-2.83.82,19.88,19.88,0,0,1-3.09.25,16.07,16.07,0,0,1-4.06-.55,8.29,8.29,0,0,1-3.73-2.11,14.77,14.77,0,0,0-2.52,2.19,23.58,23.58,0,0,0-2.37,3A18.57,18.57,0,0,0,386,89.12a8.15,8.15,0,0,0-.7,3.11,8.32,8.32,0,0,0,.15,1.62,3.24,3.24,0,0,0,.55,1.31,2.84,2.84,0,0,0,1.08.88,3.88,3.88,0,0,0,1.69.33,7,7,0,0,0,2.41-.45,13.28,13.28,0,0,0,2.29-1.08,13.06,13.06,0,0,0,1.82-1.29,3.4,3.4,0,0,0,.93-1.06l.78-1.59a6.16,6.16,0,0,1,.83-1.29,3.49,3.49,0,0,1,1.12-.88,3.65,3.65,0,0,1,1.63-.33,1,1,0,0,1,.49.12.5.5,0,0,1,.23.49,2.71,2.71,0,0,1-.85,1.39q-.85.94-1.73,2-1.31,2.25-3,4.58A25.88,25.88,0,0,1,392,101.2a18.7,18.7,0,0,1-4.61,3,12.94,12.94,0,0,1-5.54,1.19,9,9,0,0,1-2.69-.39,6.91,6.91,0,0,1-2.18-1.1,5.21,5.21,0,0,1-1.46-1.72A4.6,4.6,0,0,1,375,100a3.37,3.37,0,0,1,.53-1.88,1.89,1.89,0,0,1,1.71-.82,1.45,1.45,0,0,1,1,.43,1.36,1.36,0,0,1,.44,1,1.45,1.45,0,0,1-.4,1.06,1.33,1.33,0,0,1-1.08.37l-.36,0a.8.8,0,0,1-.36-.1,1.89,1.89,0,0,0-.09.53V101a3,3,0,0,0,.47,1.64,4.18,4.18,0,0,0,1.23,1.25,5.82,5.82,0,0,0,1.76.78,8.09,8.09,0,0,0,2.09.26,8.56,8.56,0,0,0,4.21-1.06,15.92,15.92,0,0,0,3.53-2.66,26.84,26.84,0,0,0,2.94-3.46q1.33-1.86,2.39-3.45l-.08-.08a14.35,14.35,0,0,1-3.34,2,9.78,9.78,0,0,1-3.89.8A5.12,5.12,0,0,1,384,95.66,4.87,4.87,0,0,1,382.64,92a7.9,7.9,0,0,1,.91-3.6A17.22,17.22,0,0,1,385.83,85a24.6,24.6,0,0,1,3-3,29.21,29.21,0,0,1,3.09-2.27,5.41,5.41,0,0,1-1.06-3.23,4.92,4.92,0,0,1,.66-2.49,7,7,0,0,1,1.59-1.92Z"/><path class="cls-1" d="M409.17,90.71l-5.37,7.56.08.08q.59-.69,1.5-1.61t2-1.88q1.08-1,2.26-1.9T412,91.29a2.49,2.49,0,0,1,.47-.65,1.5,1.5,0,0,1,1-.25l.83,0,.74.06a10.64,10.64,0,0,0-1.4,1.7,3.84,3.84,0,0,0-.68,2.19,2.1,2.1,0,0,0,.49,1.47,1.57,1.57,0,0,0,1.21.53,3.32,3.32,0,0,0,1.25-.25A6.38,6.38,0,0,0,417,95.5c.37-.25.72-.5,1.06-.78L419,94l.26.16q-.42.41-1,.88a10.87,10.87,0,0,1-1.19.88,6.86,6.86,0,0,1-1.35.67,4.25,4.25,0,0,1-1.48.27,3,3,0,0,1-2.18-.8,3,3,0,0,1-.82-2.23,3.34,3.34,0,0,1,.47-1.76l-.08-.08a33.11,33.11,0,0,0-3.81,3q-2.07,1.86-4.4,4.4a15,15,0,0,0-1.76,2.37,23.74,23.74,0,0,0-1.59,3h-2.75q2.28-3.52,4.57-7t4.7-7.07Z"/><path class="cls-1" d="M416.66,102.33a2.9,2.9,0,0,0,.42,1.68,1.44,1.44,0,0,0,1.27.61,4.8,4.8,0,0,0,2.26-.59,10.17,10.17,0,0,0,2.16-1.55,14.77,14.77,0,0,0,1.93-2.19,18.33,18.33,0,0,0,1.54-2.54,16.47,16.47,0,0,0,1-2.56,7.83,7.83,0,0,0,.38-2.27,2.36,2.36,0,0,0-.45-1.45,1.61,1.61,0,0,0-1.37-.59,4,4,0,0,0-1.9.55,11.56,11.56,0,0,0-2.05,1.45,14.85,14.85,0,0,0-2,2.08,21.6,21.6,0,0,0-1.67,2.45,13.51,13.51,0,0,0-1.16,2.53,7.49,7.49,0,0,0-.42,2.37m21.29-7.89a8.16,8.16,0,0,1-2.29,1.76,5.42,5.42,0,0,1-2.5.65,3.84,3.84,0,0,1-2-.51,4,4,0,0,1-1.31-1.21h-.09a11.92,11.92,0,0,1-1.57,3.31,17.15,17.15,0,0,1-2.73,3.23,15.67,15.67,0,0,1-3.49,2.45,8.41,8.41,0,0,1-3.89,1,3.53,3.53,0,0,1-2.75-1,3.91,3.91,0,0,1-.93-2.74,5.84,5.84,0,0,1,.47-2.09,12.14,12.14,0,0,1,1.29-2.39,18.47,18.47,0,0,1,1.95-2.37,16.51,16.51,0,0,1,2.43-2.08,12.5,12.5,0,0,1,2.77-1.47,8.26,8.26,0,0,1,2.94-.55,3.57,3.57,0,0,1,2.69,1,3.81,3.81,0,0,1,1,2.54,2.74,2.74,0,0,0,.91,1.74,3.12,3.12,0,0,0,2.26.8,4.92,4.92,0,0,0,2.39-.61,9.15,9.15,0,0,0,2.1-1.6Z"/><path class="cls-1" d="M442.6,90.71q-1.78,2.37-3.26,4.15t-2.54,3.19a16.34,16.34,0,0,0-1.63,2.58,5.13,5.13,0,0,0-.57,2.27q0,1.72,1.48,1.72a4.94,4.94,0,0,0,3-1.21,20.62,20.62,0,0,0,3.2-3.17q1.63-2,3.34-4.46T449,90.71h2.92q-.76,1-2,2.58t-2.39,3.33a31.31,31.31,0,0,0-2,3.39,6.42,6.42,0,0,0-.85,2.8,1.88,1.88,0,0,0,.44,1.31,1.65,1.65,0,0,0,1.29.49,5.94,5.94,0,0,0,3.22-1.1,14.92,14.92,0,0,0,3.15-2.8,18.45,18.45,0,0,0,2.48-3.7,10.65,10.65,0,0,0,1.19-3.76,2.41,2.41,0,0,1-.4-.82,3,3,0,0,1-.11-.74,1.14,1.14,0,0,1,1.27-1.31,1.19,1.19,0,0,1,1.21.74,4.58,4.58,0,0,1,.32,1.8,6.41,6.41,0,0,1-.08,1c-.06.34-.11.66-.17,1a7.78,7.78,0,0,0,1.29.92,3.71,3.71,0,0,0,1.88.43,5.22,5.22,0,0,0,2.58-.59A4.22,4.22,0,0,0,465.88,94l.38.24a5,5,0,0,1-4.7,2.49,4.47,4.47,0,0,1-1.76-.35,5.12,5.12,0,0,1-1.46-.92,12.78,12.78,0,0,1-2.07,3.41,21.26,21.26,0,0,1-3.13,3.09,17.23,17.23,0,0,1-3.62,2.25,8.54,8.54,0,0,1-3.53.86,3.81,3.81,0,0,1-2.37-.74,2.54,2.54,0,0,1-1-2.17,4.08,4.08,0,0,1,.21-1.37q.21-.59.3-.88l-.09-.08q-.85,1.06-1.73,2a15.4,15.4,0,0,1-1.8,1.68,8.56,8.56,0,0,1-1.84,1.13,4.69,4.69,0,0,1-1.9.41,3.29,3.29,0,0,1-2.41-.8,2.88,2.88,0,0,1-.8-2.15,4.88,4.88,0,0,1,.51-2.07,18.36,18.36,0,0,1,1.44-2.45q.93-1.37,2.26-3.07l3-3.86Z"/><path class="cls-1" d="M474,102.16a2.29,2.29,0,0,0,.4,1.45,1.34,1.34,0,0,0,1.12.51,3.77,3.77,0,0,0,1.69-.51,12.51,12.51,0,0,0,2-1.37,20.16,20.16,0,0,0,2.09-2,16.71,16.71,0,0,0,1.84-2.39,14.83,14.83,0,0,0,1.31-2.58A6.9,6.9,0,0,0,485,92.8a1.82,1.82,0,0,0-.55-1.43,2,2,0,0,0-1.36-.49,5.19,5.19,0,0,0-2.83,1.06,14.69,14.69,0,0,0-3,2.72A16.91,16.91,0,0,0,475,98.32a9,9,0,0,0-1,3.84m13.84-11.45h2.75q-1.57,2.13-3,4.13T485,98.54q-1.12,1.7-1.8,3a4.79,4.79,0,0,0-.68,2q0,1.06,1.14,1.06a4.69,4.69,0,0,0,2.26-.84,19.74,19.74,0,0,0,3-2.31,40.74,40.74,0,0,0,3.3-3.43,48.62,48.62,0,0,0,3.22-4.17l.25.08q-1.14,1.68-2.69,3.62a41,41,0,0,1-3.24,3.62,22.67,22.67,0,0,1-3.39,2.8,5.8,5.8,0,0,1-3.17,1.13,2.4,2.4,0,0,1-1.8-.59,2,2,0,0,1-.57-1.41A3.45,3.45,0,0,1,481,102c.13-.37.26-.74.4-1.12l-.08,0q-.55.57-1.37,1.33a16.14,16.14,0,0,1-1.78,1.41,12.2,12.2,0,0,1-2,1.11,4.81,4.81,0,0,1-1.95.45,2.46,2.46,0,0,1-2.2-.94,3.7,3.7,0,0,1-.64-2.12,7.86,7.86,0,0,1,1.1-3.7,17.92,17.92,0,0,1,2.79-3.8,17.27,17.27,0,0,1,3.68-3,7.4,7.4,0,0,1,3.77-1.19,4.44,4.44,0,0,1,1.48.23,3,3,0,0,1,1.06.61,2.84,2.84,0,0,1,.66.88,5.28,5.28,0,0,1,.36,1h.08Z"/><path class="cls-1" d="M499.56,90.71,494,98.2l.09.08,2.08-2.39a29.87,29.87,0,0,1,2.54-2.6,16.28,16.28,0,0,1,2.81-2.07,5.8,5.8,0,0,1,2.9-.84,2.72,2.72,0,0,1,2,.67,2.32,2.32,0,0,1,.7,1.74,3.38,3.38,0,0,1-.49,1.55,19.61,19.61,0,0,1-1.21,1.92q-.72,1-1.57,2.08t-1.57,2q-.72,1-1.21,1.76a2.74,2.74,0,0,0-.49,1.33,1,1,0,0,0,1.19,1.14,5.79,5.79,0,0,0,2.88-.88,19.3,19.3,0,0,0,3.64-3q.85-.82,1.71-1.8T511.62,97q.8-1,1.46-1.82t1-1.43l.3.16q-.85,1.23-2.18,2.92t-2.9,3.33q-.93,1-1.9,1.88a18,18,0,0,1-1.95,1.57,10.18,10.18,0,0,1-1.93,1.06,5,5,0,0,1-1.88.39,3.12,3.12,0,0,1-2-.65,2.19,2.19,0,0,1-.8-1.8,4.78,4.78,0,0,1,1-2.68q1-1.45,2.24-2.92t2.24-2.82a4.15,4.15,0,0,0,1-2.37.85.85,0,0,0-.34-.74,1.48,1.48,0,0,0-.89-.24,4.85,4.85,0,0,0-2.37.76,15.91,15.91,0,0,0-2.69,2,38.17,38.17,0,0,0-2.75,2.78q-1.37,1.53-2.56,3.07t-2.12,2.94a23,23,0,0,0-1.4,2.35h-2.62q1.1-1.8,2.35-3.66l2.48-3.68q1.23-1.82,2.35-3.52t2-3.09Z"/><path class="cls-1" d="M522.67,93.33a4.07,4.07,0,0,0-.34-1.72c-.23-.49-.75-.74-1.57-.74a4,4,0,0,0-1.88.57A11.66,11.66,0,0,0,516.78,93a19,19,0,0,0-2.05,2.15A21.4,21.4,0,0,0,513,97.56a15.7,15.7,0,0,0-1.23,2.43,5.91,5.91,0,0,0-.46,2.13,2.77,2.77,0,0,0,.34,1.43,1.3,1.3,0,0,0,1.23.57,3.63,3.63,0,0,0,1.76-.57,15.06,15.06,0,0,0,2.1-1.49,20.84,20.84,0,0,0,2.16-2.11,27.89,27.89,0,0,0,1.9-2.37,14.88,14.88,0,0,0,1.38-2.31,4.71,4.71,0,0,0,.53-1.94m15-16.85Q536,79,534.09,81.84t-3.89,5.6l-3.74,5.38q-1.8,2.6-3.2,4.76T521,101.32a5.85,5.85,0,0,0-.83,2.31,1,1,0,0,0,.23.72.88.88,0,0,0,.7.27,4.8,4.8,0,0,0,2.41-.82,21.42,21.42,0,0,0,3.26-2.58A37.33,37.33,0,0,0,530,97.77,34.78,34.78,0,0,0,532.74,94l.34.16q-.38.66-1,1.53t-1.35,1.82q-.74.94-1.59,1.9t-1.73,1.82a21.79,21.79,0,0,1-3.34,2.76,5.65,5.65,0,0,1-3,1.08,3.08,3.08,0,0,1-2-.55,1.76,1.76,0,0,1-.66-1.41,3.58,3.58,0,0,1,.34-1.51,14.3,14.3,0,0,1,.68-1.31l-.09,0q-.68.74-1.5,1.57a19.06,19.06,0,0,1-1.76,1.57,9.51,9.51,0,0,1-2,1.21,5.13,5.13,0,0,1-2.14.47,3,3,0,0,1-3.17-3A7.42,7.42,0,0,1,510,98.32a18.29,18.29,0,0,1,3.07-3.8,19.57,19.57,0,0,1,4-2.94,8.13,8.13,0,0,1,3.93-1.19,2.89,2.89,0,0,1,2.16.82,2.71,2.71,0,0,1,.76,2.08H524l10.92-16.8Z"/><path class="cls-1" d="M572.09,78.16a1.6,1.6,0,0,0-.36-1.12,2.3,2.3,0,0,0-.93-.59,4.44,4.44,0,0,0-1.21-.25c-.42,0-.83,0-1.23,0a11.66,11.66,0,0,0-2.85.37,22.19,22.19,0,0,0-2.88.94,21.69,21.69,0,0,0-2.73,1.33,21,21,0,0,0-2.37,1.57,6.83,6.83,0,0,0,3,1.84,14.09,14.09,0,0,0,4.46.65,11.2,11.2,0,0,0,2.62-.3,7.79,7.79,0,0,0,2.24-.9,5.23,5.23,0,0,0,1.59-1.47,3.46,3.46,0,0,0,.61-2m-14.22-5.81a5.43,5.43,0,0,0-1.48,1.94,5.23,5.23,0,0,0-.51,2.15,5.56,5.56,0,0,0,.26,1.68,3.59,3.59,0,0,0,.68,1.31,30.84,30.84,0,0,1,5.88-2.7,19.89,19.89,0,0,1,6.43-1.06,10.89,10.89,0,0,1,1.59.12,5.64,5.64,0,0,1,1.5.43,2.93,2.93,0,0,1,1.12.88,2.27,2.27,0,0,1,.44,1.43,3.33,3.33,0,0,1-.8,2.27,6,6,0,0,1-2.07,1.49,11,11,0,0,1-2.84.82,19.9,19.9,0,0,1-3.09.25,16.1,16.1,0,0,1-4.06-.55,8.29,8.29,0,0,1-3.72-2.11,14.78,14.78,0,0,0-2.52,2.19,23.49,23.49,0,0,0-2.37,3,18.56,18.56,0,0,0-1.78,3.27,8.13,8.13,0,0,0-.7,3.11,8.4,8.4,0,0,0,.15,1.62,3.24,3.24,0,0,0,.55,1.31,2.84,2.84,0,0,0,1.08.88,3.89,3.89,0,0,0,1.69.33,7,7,0,0,0,2.41-.45A13.38,13.38,0,0,0,558,94.82a13.06,13.06,0,0,0,1.82-1.29,3.37,3.37,0,0,0,.93-1.06l.78-1.59a6.24,6.24,0,0,1,.83-1.29,3.51,3.51,0,0,1,1.12-.88,3.65,3.65,0,0,1,1.63-.33,1,1,0,0,1,.49.12.5.5,0,0,1,.23.49,2.69,2.69,0,0,1-.85,1.39q-.85.94-1.73,2-1.31,2.25-3,4.58a25.78,25.78,0,0,1-3.74,4.19,18.68,18.68,0,0,1-4.61,3,13,13,0,0,1-5.54,1.19,9,9,0,0,1-2.69-.39,6.9,6.9,0,0,1-2.18-1.1,5.2,5.2,0,0,1-1.46-1.72,4.61,4.61,0,0,1-.53-2.19,3.38,3.38,0,0,1,.53-1.88,1.89,1.89,0,0,1,1.71-.82,1.45,1.45,0,0,1,1,.43,1.35,1.35,0,0,1,.44,1,1.45,1.45,0,0,1-.4,1.06,1.32,1.32,0,0,1-1.08.37l-.36,0a.82.82,0,0,1-.36-.1,1.89,1.89,0,0,0-.08.53V101a3,3,0,0,0,.46,1.64,4.18,4.18,0,0,0,1.23,1.25,5.82,5.82,0,0,0,1.76.78,8.09,8.09,0,0,0,2.09.26,8.56,8.56,0,0,0,4.21-1.06,15.93,15.93,0,0,0,3.53-2.66,26.9,26.9,0,0,0,2.94-3.46q1.33-1.86,2.39-3.45l-.09-.08a14.34,14.34,0,0,1-3.34,2,9.79,9.79,0,0,1-3.89.8,5.12,5.12,0,0,1-3.74-1.35A4.87,4.87,0,0,1,547.12,92a7.9,7.9,0,0,1,.91-3.6A17.31,17.31,0,0,1,550.32,85a24.59,24.59,0,0,1,3-3,29.21,29.21,0,0,1,3.09-2.27,5.41,5.41,0,0,1-1.06-3.23A4.92,4.92,0,0,1,556,74a7,7,0,0,1,1.59-1.92Z"/><path class="cls-1" d="M583.52,76.32q-3.77,5.52-6.56,9.55l-4.78,6.89q-2,2.86-3.26,4.72t-2,3a13.58,13.58,0,0,0-1,1.88,3.34,3.34,0,0,0-.28,1.19q0,1,.93,1a5.05,5.05,0,0,0,2.48-.84,19.82,19.82,0,0,0,3-2.29,37.41,37.41,0,0,0,3.32-3.39q1.69-1.94,3.3-4.15l.47.17q-1.52,2.08-3.22,4a41.67,41.67,0,0,1-3.26,3.37,21.64,21.64,0,0,1-3.58,2.74,5.6,5.6,0,0,1-2.73.86,2.59,2.59,0,0,1-1.88-.57A2,2,0,0,1,564,103a5.42,5.42,0,0,1,.32-1.78A12.64,12.64,0,0,1,565.36,99q.76-1.29,2-3.13l3.09-4.52q1.84-2.68,4.34-6.38t5.76-8.69Z"/><path class="cls-1" d="M576.45,102.33a2.9,2.9,0,0,0,.42,1.68,1.44,1.44,0,0,0,1.27.61,4.8,4.8,0,0,0,2.26-.59,10.19,10.19,0,0,0,2.16-1.55,14.83,14.83,0,0,0,1.93-2.19A18.23,18.23,0,0,0,586,97.75a16.27,16.27,0,0,0,1-2.56,7.79,7.79,0,0,0,.38-2.27,2.36,2.36,0,0,0-.44-1.45,1.61,1.61,0,0,0-1.38-.59,4,4,0,0,0-1.9.55,11.56,11.56,0,0,0-2.05,1.45,14.85,14.85,0,0,0-2,2.08A21.74,21.74,0,0,0,578,97.42a13.5,13.5,0,0,0-1.16,2.53,7.5,7.5,0,0,0-.42,2.37m21.29-7.89a8.18,8.18,0,0,1-2.29,1.76,5.42,5.42,0,0,1-2.5.65,3.85,3.85,0,0,1-2-.51,4.06,4.06,0,0,1-1.31-1.21h-.08A12,12,0,0,1,588,98.44a17.15,17.15,0,0,1-2.73,3.23,15.7,15.7,0,0,1-3.49,2.45,8.41,8.41,0,0,1-3.89,1,3.53,3.53,0,0,1-2.75-1,3.91,3.91,0,0,1-.93-2.74,5.84,5.84,0,0,1,.47-2.09,12.14,12.14,0,0,1,1.29-2.39,18.38,18.38,0,0,1,1.95-2.37,16.61,16.61,0,0,1,2.43-2.08,12.51,12.51,0,0,1,2.77-1.47,8.26,8.26,0,0,1,2.94-.55,3.57,3.57,0,0,1,2.69,1,3.81,3.81,0,0,1,1,2.54,2.74,2.74,0,0,0,.91,1.74,3.12,3.12,0,0,0,2.26.8,4.92,4.92,0,0,0,2.39-.61,9.18,9.18,0,0,0,2.1-1.6Z"/><path class="cls-1" d="M602.39,90.71q-1.78,2.37-3.26,4.15t-2.54,3.19a16.34,16.34,0,0,0-1.63,2.58,5.13,5.13,0,0,0-.57,2.27q0,1.72,1.48,1.72a4.94,4.94,0,0,0,3-1.21,20.62,20.62,0,0,0,3.2-3.17q1.63-2,3.34-4.46t3.41-5.07h2.92q-.76,1-2,2.58t-2.39,3.33a31.31,31.31,0,0,0-2,3.39,6.42,6.42,0,0,0-.85,2.8,1.88,1.88,0,0,0,.44,1.31,1.65,1.65,0,0,0,1.29.49,5.94,5.94,0,0,0,3.22-1.1,14.92,14.92,0,0,0,3.15-2.8A18.45,18.45,0,0,0,615,97a10.65,10.65,0,0,0,1.19-3.76,2.41,2.41,0,0,1-.4-.82,3,3,0,0,1-.11-.74A1.14,1.14,0,0,1,617,90.39a1.19,1.19,0,0,1,1.21.74,4.58,4.58,0,0,1,.32,1.8,6.41,6.41,0,0,1-.08,1c-.06.34-.11.66-.17,1a7.78,7.78,0,0,0,1.29.92,3.71,3.71,0,0,0,1.88.43,5.21,5.21,0,0,0,2.58-.59A4.22,4.22,0,0,0,625.66,94l.38.24a5,5,0,0,1-4.7,2.49,4.47,4.47,0,0,1-1.76-.35,5.13,5.13,0,0,1-1.46-.92,12.8,12.8,0,0,1-2.07,3.41,21.31,21.31,0,0,1-3.13,3.09,17.2,17.2,0,0,1-3.62,2.25,8.54,8.54,0,0,1-3.53.86,3.81,3.81,0,0,1-2.37-.74,2.54,2.54,0,0,1-1-2.17,4.08,4.08,0,0,1,.21-1.37q.21-.59.3-.88l-.09-.08q-.85,1.06-1.73,2a15.48,15.48,0,0,1-1.8,1.68,8.56,8.56,0,0,1-1.84,1.13,4.69,4.69,0,0,1-1.9.41,3.29,3.29,0,0,1-2.41-.8,2.88,2.88,0,0,1-.8-2.15,4.88,4.88,0,0,1,.51-2.07,18.36,18.36,0,0,1,1.44-2.45q.93-1.37,2.26-3.07l3-3.86Z"/><path class="cls-1" d="M108.73,34.73h15.58q6.33,0,9.73-1.87a9.2,9.2,0,0,0,4.51-5.92c.11-.51.2-1,.28-1.45a7.3,7.3,0,0,0,.12-1.22,4.49,4.49,0,0,0-2.65-4.35q-2.65-1.3-8.42-1.3H113Zm-6.88,25.52h16.37a34.56,34.56,0,0,0,10.4-1.83q4.86-1.68,6.37-7.33c.1-.51.2-1,.28-1.45a7.2,7.2,0,0,0,.12-1.22,5.3,5.3,0,0,0-3.87-5.35,27.11,27.11,0,0,0-8.78-1.3H106.84ZM130,11.58a50.59,50.59,0,0,1,9.41.65,12.59,12.59,0,0,1,5.38,2.41,10.51,10.51,0,0,1,3,3.55,9.07,9.07,0,0,1,.95,4.47q0,.77-.08,1.57a9.59,9.59,0,0,1-.32,1.64,14.7,14.7,0,0,1-4,7,19.22,19.22,0,0,1-7.79,4.32,11.94,11.94,0,0,1,6.33,4A9.81,9.81,0,0,1,145,47.56a13.71,13.71,0,0,1-.12,1.76,18.64,18.64,0,0,1-.36,1.91,19.7,19.7,0,0,1-3.87,7.49,22.12,22.12,0,0,1-6.8,5.5.49.49,0,0,1-.2.11.5.5,0,0,0-.2.12,24.59,24.59,0,0,1-7,2.21,69,69,0,0,1-10.44.61H90.71l14.95-55.7Z"/><polygon class="cls-1" points="172.63 11.58 157.76 67.27 149.38 67.27 164.25 11.58 172.63 11.58"/><path class="cls-1" d="M188.84,26.55l-7,25.82q-.32,1.3-.52,2.45a12.22,12.22,0,0,0-.2,2.06,4.37,4.37,0,0,0,1.78,3.93Q184.72,62,188.6,62a16.09,16.09,0,0,0,6-1.11,17,17,0,0,0,5.18-3.25l.16-.15A13.46,13.46,0,0,0,202.79,54a25.33,25.33,0,0,0,2-5.2c.05-.2.12-.43.2-.69s.14-.51.2-.77l5.61-20.78h8.38L208.29,67.27h-7.75L202.2,61a20.65,20.65,0,0,1-7.79,5.58,25.41,25.41,0,0,1-9.53,1.76q-6.88,0-9.65-2.49a8.65,8.65,0,0,1-2.77-6.77,19.66,19.66,0,0,1,.24-2.95,26.82,26.82,0,0,1,.71-3.25l7-26.33Z"/><path class="cls-1" d="M259.65,41.49q0-.65,0-1.26A7.47,7.47,0,0,0,257,34.08q-2.69-2.18-7.59-2.18a17.36,17.36,0,0,0-9.88,2.75A18.32,18.32,0,0,0,233,42.82h26.41a8.31,8.31,0,0,0,.2-1.34M231,49.17q-.16,1-.28,2a15.59,15.59,0,0,0-.12,1.83q0,4.43,2.69,6.72t8,2.29a17.05,17.05,0,0,0,8.5-2,15,15,0,0,0,5.81-6.07h8.7a25.35,25.35,0,0,1-10.16,10.54,29.48,29.48,0,0,1-14.9,3.82q-8.38,0-12.89-3.82t-4.43-10.77a22.86,22.86,0,0,1,.24-3.21,31.87,31.87,0,0,1,.71-3.51A28.37,28.37,0,0,1,233.2,31.36a29.15,29.15,0,0,1,18.11-5.81q8.86,0,12.81,3.82a13.19,13.19,0,0,1,4,9.93,22.2,22.2,0,0,1-.24,3.17,28.69,28.69,0,0,1-.71,3.4v.23l-.36,1.22q-.2.69-.59,1.83Z"/><path class="cls-1" d="M294.57,38.22h8.52a9.51,9.51,0,0,0,5.51-1.49,7.33,7.33,0,0,0,2.92-4.4q.17-.65.25-1.17a6.05,6.05,0,0,0,.08-.93,3,3,0,0,0-1.34-2.7,7.79,7.79,0,0,0-4.09-.85h-8.77Zm-7.77,29H270.1l14.45-53.82H311a36.13,36.13,0,0,1,8.31.73,13.7,13.7,0,0,1,5.22,2.58,11.81,11.81,0,0,1,3.38,4.64,15.72,15.72,0,0,1,1.21,6.17c0,.48,0,1-.08,1.57a16,16,0,0,1-.25,1.65l-.17.81-.17.81a23.76,23.76,0,0,1-9.19,13.48q-6.85,4.92-16.79,4.92H291.23Z"/><polygon class="cls-1" points="340.67 67.27 325.47 67.27 339.92 13.45 355.12 13.45 340.67 67.27"/><path class="cls-1" d="M377.25,50.37q-1.34.53-2.76.93-.75.24-1.46.44t-1.46.36a29.18,29.18,0,0,0-4.13,1.45,3.64,3.64,0,0,0-2.21,2.5,1.36,1.36,0,0,0-.08.44v.36a2.1,2.1,0,0,0,1,1.82,5,5,0,0,0,2.84.69q5.09,0,7.39-3.15A21.56,21.56,0,0,0,379.75,49a12.3,12.3,0,0,1-2.51,1.33m-2.34,13.52-1.17,1a16.71,16.71,0,0,1-5.39,2.74,23.82,23.82,0,0,1-6.56.81q-5.51,0-8.52-2.18a7.13,7.13,0,0,1-3-6.13q.08-.73.17-1.57a8.27,8.27,0,0,1,.33-1.65A12.32,12.32,0,0,1,356.7,49a33.41,33.41,0,0,1,9.44-3.51q1.75-.4,3.42-.73t3.26-.57A44.87,44.87,0,0,0,379,42.7q2.55-.85,3-2.62a.53.53,0,0,1,0-.24.56.56,0,0,0,0-.24.27.27,0,0,0,.08-.2v-.2a1.9,1.9,0,0,0-1-1.73,6.19,6.19,0,0,0-3-.61,9.65,9.65,0,0,0-4.68,1,4.55,4.55,0,0,0-2.34,2.86.78.78,0,0,0-.08.36v.44H356.62q2.42-7.42,8-10.81T380,27.33a34.69,34.69,0,0,1,12.28,1.86q4.84,1.86,4.84,8.07a16.1,16.1,0,0,1-.21,2.46,26.93,26.93,0,0,1-.63,2.87l-4.51,16.78q-.33,1.29-.5,2.38a13.07,13.07,0,0,0-.17,2,5.36,5.36,0,0,0,.33,2,4.08,4.08,0,0,0,1.17,1.57H376.16c-.06-.37-.11-.79-.17-1.25a11.41,11.41,0,0,1-.08-1.41c0-.32,0-.63,0-.93a7.59,7.59,0,0,1,.13-.85q-.58.57-1.17,1"/><path class="cls-1" d="M422,34.11q1.33-1.29,2.55-2.34A18.86,18.86,0,0,1,426.94,30a15.77,15.77,0,0,1,4.59-2.06,20.27,20.27,0,0,1,5.09-.61q5.59,0,8.52,2.54a9.06,9.06,0,0,1,2.92,7.22,18.07,18.07,0,0,1-.17,2.38,16.74,16.74,0,0,1-.59,2.62l-6.77,25.18h-15.2l5.93-22.19c.11-.43.19-.82.25-1.17a6.5,6.5,0,0,0,.08-1,3,3,0,0,0-1-2.46,4.42,4.42,0,0,0-2.92-.85,7.6,7.6,0,0,0-5.3,2,12.22,12.22,0,0,0-3.3,5.89l-5.26,19.77H398.71l10.36-38.73h14.2Z"/><polygon class="cls-1" points="464.77 67.27 449.57 67.27 464.02 13.45 479.22 13.45 472.04 40 484.9 28.54 502.94 28.54 484.07 43.63 494.09 67.27 475.96 67.27 471.29 53.8 467.53 56.94 464.77 67.27"/><path class="cls-1" d="M523.74,28.54H531l-2.34,8.72H521.4l-3.84,14.36c-.06.38-.13.75-.21,1.13a4.54,4.54,0,0,0-.12,1,2.51,2.51,0,0,0,.84,1.9,3.7,3.7,0,0,0,2.34.6h.5a8.36,8.36,0,0,0,1.17-.08l1.59-.24L520.73,67q-2.42.32-4,.48t-3,.24a11.31,11.31,0,0,1-1.34.08H511q-5.93,0-8.14-1.65a5.71,5.71,0,0,1-2.21-4.88,19,19,0,0,1,.46-3.87q.46-2.18,1.13-4.68l4.09-15.49h-5.6L503,28.54h5.6L512,16.11h15.12Z"/><path class="cls-1" d="M545.49,50.65a13.68,13.68,0,0,0-.21,2.34,5.48,5.48,0,0,0,1.25,4,5,5,0,0,0,3.76,1.29,7.94,7.94,0,0,0,6-2.58,17.4,17.4,0,0,0,3.8-7.75,21.67,21.67,0,0,0,.59-2.78,17.53,17.53,0,0,0,.17-2.3,5.48,5.48,0,0,0-1.25-4,5,5,0,0,0-3.76-1.29,7.88,7.88,0,0,0-5.93,2.54A18,18,0,0,0,546,47.91q-.34,1.53-.54,2.74m19.67,12a29.17,29.17,0,0,1-17.62,5.73q-8.19,0-12.86-4.07A13.67,13.67,0,0,1,530,53.47a18.13,18.13,0,0,1,.21-2.74q.21-1.37.54-2.82A26.53,26.53,0,0,1,541,33.1a28.85,28.85,0,0,1,17.58-5.77q8.18,0,12.86,4.12a13.71,13.71,0,0,1,4.68,10.81,24.15,24.15,0,0,1-.17,2.74,18,18,0,0,1-.59,2.9,25.88,25.88,0,0,1-10.19,14.77"/><path class="cls-1" d="M600.66,34.11q1.33-1.29,2.55-2.34A18.86,18.86,0,0,1,605.58,30a15.77,15.77,0,0,1,4.59-2.06,20.27,20.27,0,0,1,5.09-.61q5.59,0,8.52,2.54a9.06,9.06,0,0,1,2.92,7.22,18.07,18.07,0,0,1-.17,2.38A16.74,16.74,0,0,1,626,42.1L619.2,67.27H604l5.93-22.19c.11-.43.19-.82.25-1.17a6.5,6.5,0,0,0,.08-1,3,3,0,0,0-1-2.46,4.42,4.42,0,0,0-2.92-.85,7.6,7.6,0,0,0-5.3,2,12.22,12.22,0,0,0-3.3,5.89l-5.26,19.77H577.35l10.36-38.73h14.2Z"/><path class="cls-1" d="M39.76,5.93C21.38,5.77,6.29,20.1,6.13,37.87S20.81,70.2,39.19,70.36,72.66,56.18,72.82,38.42,58.15,6.08,39.76,5.93m-.62,70.35C17.37,76.1-.18,58.84,0,37.81S18-.18,39.81,0,79.14,17.44,78.95,38.47s-18,38-39.81,37.81"/><path class="cls-1" d="M57.73,28.54a5.59,5.59,0,0,1,.11,1.09,6,6,0,1,1-6-5.76,6,6,0,0,1,4.75,2.29,12,12,0,0,0-10.31-5.73A11.76,11.76,0,0,0,34.36,32a12,12,0,0,0,23.91,0A11.19,11.19,0,0,0,57.73,28.54Z"/></g></g></svg>