<svg xmlns="http://www.w3.org/2000/svg" xmlns:xlink="http://www.w3.org/1999/xlink" viewBox="0 0 100.37 100.03"><defs><style>.cls-1{fill:url(#linear-gradient);}.cls-2{fill:url(#linear-gradient-2);}.cls-3{fill:url(#linear-gradient-3);}.cls-4{fill:url(#linear-gradient-4);}.cls-5{fill:url(#linear-gradient-5);}.cls-6{fill:url(#linear-gradient-6);}.cls-7{fill:url(#linear-gradient-7);}.cls-8{fill:url(#linear-gradient-8);}.cls-9{fill:url(#linear-gradient-9);}</style><linearGradient id="linear-gradient" x1="13.8" y1="36.3" x2="92.19" y2="36.3" gradientUnits="userSpaceOnUse"><stop offset="0" stop-color="#6cc4c7"/><stop offset="0.5" stop-color="#4ea5c6"/><stop offset="1" stop-color="#2c82c5"/></linearGradient><linearGradient id="linear-gradient-2" x1="3.12" y1="18.01" x2="32.95" y2="18.01" xlink:href="#linear-gradient"/><linearGradient id="linear-gradient-3" x1="10.42" y1="18.04" x2="21.33" y2="18.04" xlink:href="#linear-gradient"/><linearGradient id="linear-gradient-4" x1="91.13" y1="100.03" x2="91.14" y2="100.03" xlink:href="#linear-gradient"/><linearGradient id="linear-gradient-5" x1="84.83" y1="72.08" x2="94.3" y2="72.08" xlink:href="#linear-gradient"/><linearGradient id="linear-gradient-6" x1="65.05" y1="77.01" x2="74.36" y2="77.01" xlink:href="#linear-gradient"/><linearGradient id="linear-gradient-7" x1="45.4" y1="82.01" x2="54.88" y2="82.01" xlink:href="#linear-gradient"/><linearGradient id="linear-gradient-8" x1="25.69" y1="86.87" x2="35.1" y2="86.87" xlink:href="#linear-gradient"/><linearGradient id="linear-gradient-9" x1="5.8" y1="91.84" x2="15.38" y2="91.84" xlink:href="#linear-gradient"/></defs><title>performance</title><g id="Layer_2" data-name="Layer 2"><g id="Layer_1-2" data-name="Layer 1"><path class="cls-1" d="M99,4.75,74.3,8.57l-.52.08-.23.48L73,10.25l-.33.69.58.5c1.86,1.6,3.72,3.25,5.64,4.83.57.47.61.72.61.8s-.11.45-.67,1q-6.06,5.95-12,12c-.58.59-.93.7-1.11.7s-.59-.14-1.19-.75c-1.94-2-4-3.76-6-5.65l-.68-.64-.68.64c-.5.47-.81.73-1.14,1.07C50.28,31.35,44.5,37.2,38.81,43.16c-.63.67-1,.83-1.18.81s-.45-.09-1-.72c-1.38-1.54-2.89-2.88-4.2-4.29a2.83,2.83,0,0,0-2-1.09,3,3,0,0,0-2.06,1.08c-3.4,3.47-7,6.8-10.45,10.26-3.63,3.62-7.2,7.3-11.5,11.68l-.77.78.85.69a49.54,49.54,0,0,1,5.21,4.35,3.37,3.37,0,0,0,2.4,1.35,3.57,3.57,0,0,0,2.44-1.35c4.06-4.12,8.29-8.1,12.36-12.28.73-.76,1.26-1,1.48-1s.59.12,1.22.92c1.56,2,3.22,3.83,4.8,5.71l.32.37.49,0,1.3-.05.53,0,.28-.45a13.33,13.33,0,0,1,1.33-2.15C46.15,52,51.76,46.36,57.31,40.61c.55-.6.86-.71.88-.7s.19,0,.66.52c1.43,1.59,3.1,2.75,4.33,4.09A3.81,3.81,0,0,0,65.9,46a4,4,0,0,0,2.79-1.49c5.85-6,11.88-11.87,17.77-17.89.76-.79,1.31-1.05,1.5-1s.53.1,1.18.91c1.52,1.92,3.21,3.64,4.77,5.39l.54.61.71-.41.77-.45.42-.24.07-.48,3.76-25.07.2-1.34ZM94.58,29.69c-1.34-1.47-2.69-2.9-3.88-4.4A3.62,3.62,0,0,0,88,23.62,4.33,4.33,0,0,0,85,25.25c-5.86,6-11.89,11.86-17.77,17.89-.7.73-1.16.91-1.36.89s-.59-.14-1.25-.85c-1.45-1.56-3.11-2.71-4.31-4.07a3,3,0,0,0-2.15-1.19,3.38,3.38,0,0,0-2.32,1.31C50.33,45,44.73,50.64,39.18,56.38a9,9,0,0,0-1.34,2h-.26c-1.51-1.77-3-3.51-4.45-5.29a3.67,3.67,0,0,0-2.79-1.68A4.25,4.25,0,0,0,27.44,53c-4,4.14-8.26,8.12-12.35,12.27-.61.64-1,.78-1,.75s-.34-.05-.92-.7a35.82,35.82,0,0,0-4.55-3.87c4-4,7.31-7.48,10.7-10.86s7-6.77,10.46-10.28c.45-.46.62-.48.63-.48s.15,0,.56.45c1.4,1.5,2.9,2.83,4.18,4.26A3.46,3.46,0,0,0,37.63,46a3.77,3.77,0,0,0,2.63-1.43c5.67-5.94,11.45-11.79,17.2-17.67l.39-.37c1.81,1.68,3.59,3.29,5.26,5a3.77,3.77,0,0,0,2.61,1.34,3.62,3.62,0,0,0,2.55-1.3q5.9-6.07,12-12a3.5,3.5,0,0,0,1.27-2.42,3.1,3.1,0,0,0-1.33-2.34c-1.68-1.39-3.33-2.84-5-4.28L98,6.93Z"/><path class="cls-2" d="M17.73,36h.18A18.24,18.24,0,0,0,36.06,18.38c0-.13,0-.27,0-.4,0-9.13-7.3-17.94-17.14-18l-.84,0c-.33,0-.66,0-1,0C7.17,0,0,8.9,0,17.25v.14C.07,27.83,7.59,35.93,17.73,36ZM2,17.25C2,10,8.45,2,17.11,2L18,2h.12l.79,0C27.48,2,34,9.87,34.06,18c0,.12,0,.24,0,.36A16.25,16.25,0,0,1,17.91,34h-.15c-9-.1-15.64-7.14-15.76-16.64Z"/><path class="cls-3" d="M10.46,17.67l.72-.09,2.14-.27q0,3.07,0,6.14c0,2,0,3.18.47,4.27A3.08,3.08,0,0,0,17,29.2c.7,0,1.51-.06,2.51-.14a2.94,2.94,0,0,0,3-3.15h0v0q0-3.76,0-7.53,0-4.33,0-8.67c0-1.27-.67-2.79-2.19-2.79a3.78,3.78,0,0,0-1.38.3C16.8,8,14.71,8.82,12.63,9.72s-3.38,2.15-3.35,4.06A7.89,7.89,0,0,0,10.16,17Zm3-6.11c2-.88,4.1-1.68,6.19-2.5a1.88,1.88,0,0,1,.64-.16c.11.05.07,0,.19.79q0,4.33,0,8.67,0,3.77,0,7.54h0v0c-.17,1.12.06.88-1.13,1.15-1,.08-1.77.13-2.36.13-2-.23-1.3.43-1.61-3.75q0-3.12,0-6.24A5.74,5.74,0,0,0,15.05,16l-.21-.86-.88.11-2.27.28a4.93,4.93,0,0,1-.41-1.72C11.31,12.89,11.66,12.36,13.42,11.55Z"/><polygon class="cls-4" points="91.14 100.03 91.14 100.03 91.13 100.03 91.14 100.03"/><path class="cls-5" d="M95.23,51.76c0-3,.09-4.67-.74-6.09-1-1.47-2.63-1.52-4.92-1.54l-2.15,0a3.32,3.32,0,0,0-3.58,3.48v.12c0,3.7.06,7.41.06,11.12,0,4.36,0,8.73,0,13.1q0,10.37,0,20.73c.05,3.12-.16,4.8,1.08,6.18,1.39,1.22,3.06,1,6.17,1.13h.25a3.64,3.64,0,0,0,3.9-4V96q-.08-10.95-.07-21.9Q95.22,62.92,95.23,51.76Zm-1.95,44.3c-.26,2.1.07,1.71-1.9,2h-.21c-6.45-.63-4.79,1.14-5.29-5.32V72c0-4.36,0-8.73,0-13.1,0-3.71,0-7.43-.06-11.15v-.09c.24-1.64-.12-1.2,1.61-1.48l2.12,0c4.46.39,3.23-.63,3.66,5.62q0,11.15,0,22.31,0,11,.07,21.91Z"/><path class="cls-6" d="M70.5,54.2c-.75,0-1.48,0-2.2-.09-.28,0-.54,0-.8,0-2.17,0-3.43,1.66-3.43,3.89v.18c.06,4,.08,8,.08,12,0,4.91,0,9.83,0,14.75h0V85c0,1.92,0,3.84,0,5.76s0,4.08.07,6.13c.28,1.2.36,2.39,2.07,3,1.33.1,2.65.12,4,.12l4.09,0h1V54.15h-1C73,54.15,71.7,54.2,70.5,54.2ZM66.64,97.85a1.86,1.86,0,0,1-.16-.25,2.27,2.27,0,0,1-.28-.79c-.06-2-.07-4-.07-6.08s0-3.84,0-5.76v-.11h0c0-4.92,0-9.83,0-14.76,0-4,0-8-.08-12V58c.22-1.93,0-1.69,1.43-1.89l.62,0c.8.07,1.59.1,2.38.1s1.88,0,2.83,0V97.94l-3.09,0C69,98,67.82,97.93,66.64,97.85Z"/><path class="cls-7" d="M55.8,90.08c0-2.77,0-5.56,0-8.34V72c0-3.19.1-5-.79-6.44C54,64,52.28,64,49.81,64l-2.08,0a3.19,3.19,0,0,0-3.33,3.41v.1q.05,5.83,0,11.65c0,4.35,0,8.71,0,13.07,0,3.24-.13,5,.95,6.46,1.27,1.4,3,1.27,5.83,1.32h1a3.37,3.37,0,0,0,3.61-3.55q0-.13,0-.27C55.82,94.17,55.8,92.13,55.8,90.08ZM52.26,98h-1c-5.79-.47-4.29.95-4.78-5.78,0-4.35,0-8.71,0-13.07q0-5.83,0-11.68v-.08c.26-1.57-.27-1.14,1.36-1.41l2.05,0c4.84.41,3.58-.65,4,6q0,4.87,0,9.74c0,2.77,0,5.56,0,8.34,0,2.05,0,4.11.06,6.17v.22C53.62,98.09,54.07,97.77,52.26,98Z"/><path class="cls-8" d="M36,92.58c0-1.94,0-3.89,0-5.84h0q0-2.5,0-5c0-3.1.08-4.87-.71-6.32-1-1.54-2.62-1.67-4.89-1.67-.75,0-1.59,0-2.57,0a3,3,0,0,0-3.19,3.1V77q0,4.86,0,9.71,0,5.12,0,10.24h0V97a2.88,2.88,0,0,0,2.82,3h.24c.87,0,1.74-.06,2.61-.06s1.69,0,2.54.06h.28a3,3,0,0,0,2.89-3.14V96.7C36.06,95.33,36,94,36,92.58Zm-2-5.84c0,1.94,0,3.89,0,5.84,0,1.38,0,2.77,0,4.16v.11c-.2,1.24.11,1-.89,1.14H33q-1.32-.06-2.63-.06c-.9,0-1.8,0-2.7.06h-.15c-1-.19-.61.17-.82-1v0h0q0-5.12,0-10.25,0-4.86,0-9.73v0c.22-1.27-.2-.83,1.23-1.1,1,0,1.81,0,2.52,0,4.33.36,3.19-.5,3.6,6q0,2.5,0,5h0Z"/><path class="cls-9" d="M16.31,94.87c0-.91,0-1.84,0-2.8V92h0c0-1.12,0-2.22,0-3.32,0-.72,0-1.43,0-2.15v-.14a2.67,2.67,0,0,0-2.67-2.65h-.13c-1,0-2,0-3,0s-1.76,0-2.64-.06H7.62a2.85,2.85,0,0,0-2.81,3v.17c0,.4,0,.8,0,1.2,0,.95,0,1.91,0,2.88,0,.39,0,.77,0,1.16s0,1,0,1.46c0,1.24,0,2.2,0,3,0,1.13,0,2.06.83,2.85s1.75.61,3,.64l2.42,0L13,100h.2a3,3,0,0,0,3.19-2.92c0-.14,0-.28,0-.43C16.32,96.06,16.31,95.47,16.31,94.87ZM13.19,98H13l-2,0L8.66,98a3.86,3.86,0,0,1-1.73-.16,3.41,3.41,0,0,1-.13-1.33c0-.72,0-1.7,0-3,0-.46,0-1,0-1.51,0-.37,0-.74,0-1.12,0-.95,0-1.91,0-2.88,0-.42,0-.83,0-1.25v-.12c.19-1.07-.13-.78.81-1h.16c.91,0,1.82.06,2.72.06s2.07,0,3.09,0h.09c.86.19.49-.19.67.65v.09c0,.74,0,1.47,0,2.2,0,1.12,0,2.23,0,3.33v.1c0,.91,0,1.84,0,2.8,0,.63,0,1.27.06,1.92,0,.1,0,.2,0,.28C14.21,98.08,14.48,97.79,13.19,98Z"/></g></g></svg>