<svg xmlns="http://www.w3.org/2000/svg" viewBox="0 0 196.46 218.71"><defs><style>.cls-1{fill:#fff;}</style></defs><title>psyche_white</title><g id="Layer_2" data-name="Layer 2"><g id="Layer_1-2" data-name="Layer 1"><path class="cls-1" d="M102.85,92.22l-.7-.71,5.28-5.22.44-.43.58.2c2.51.79,4.26,2.6,4.22,5.07a6.44,6.44,0,0,1-.09,1,5.79,5.79,0,0,1-5.49,4.62H107a5.06,5.06,0,0,1-5.09-4.43l-.07-.5.36-.35.7.71,1-.14a3,3,0,0,0,3.17,2.7h.08a3.85,3.85,0,0,0,3.51-2.95,4.44,4.44,0,0,0,.06-.72c0-1.51-.78-2.42-2.86-3.17l.32-.95.7.71-5.28,5.22-.7-.71,1-.14ZM98,101.5l.65-.76a12.09,12.09,0,0,0,8.06,3.12,15.41,15.41,0,0,0,5.54-1.11A12.42,12.42,0,0,0,120,91.18a12,12,0,0,0-.71-4.09,12.81,12.81,0,0,0-11.91-8.41,12.12,12.12,0,0,0-3.86.63,7.89,7.89,0,0,1-2.51.46,6.28,6.28,0,0,1-4.25-1.84c-1.31-1.14-2.77-2.19-4.41-3.46l-1-.79,1-.79a24.21,24.21,0,0,1,14.93-5.12A23.75,23.75,0,0,1,124.47,75,23.13,23.13,0,0,1,125.83,106,24.13,24.13,0,0,1,107,114.72a23.81,23.81,0,0,1-14.71-4.92A24.61,24.61,0,0,1,83,90.9a18.22,18.22,0,0,1,3.25-10.67l.6-.84.82.63c2.05,1.57,4.21,3.08,6.22,4.84h0a3.09,3.09,0,0,1,.81,2.32,4.69,4.69,0,0,1-.09.92h0a16.5,16.5,0,0,0-.35,3.29,11.8,11.8,0,0,0,4.43,9.36l-.65.76-.65.76a13.83,13.83,0,0,1-5.13-10.88,18.5,18.5,0,0,1,.39-3.69h0a2.72,2.72,0,0,0,0-.52,2.79,2.79,0,0,0-.13-.81h0c-1.9-1.66-4-3.15-6.12-4.75l.61-.8.81.58A16.23,16.23,0,0,0,85,90.9a22.63,22.63,0,0,0,8.58,17.34A21.82,21.82,0,0,0,107,112.72a22.13,22.13,0,0,0,17.25-8A21.13,21.13,0,0,0,123,76.4a21.75,21.75,0,0,0-15.76-6.62,22.21,22.21,0,0,0-13.7,4.69l-.62-.79.62-.79c1.59,1.24,3.08,2.3,4.49,3.53A4.29,4.29,0,0,0,101,77.77a5.92,5.92,0,0,0,1.87-.36,14.12,14.12,0,0,1,4.5-.74,14.8,14.8,0,0,1,13.79,9.72,14,14,0,0,1,.83,4.77,14.41,14.41,0,0,1-9,13.43,17.41,17.41,0,0,1-6.26,1.25,14.11,14.11,0,0,1-9.36-3.6Zm-20.41,2.74.91-.41A30.11,30.11,0,0,0,93.86,119,31.17,31.17,0,0,0,107,121.86c10.22,0,20.31-4.82,26-13.24a30.65,30.65,0,0,0,5.36-17.3,30.34,30.34,0,0,0-9.18-21.78,32,32,0,0,0-22.12-8.84,32.84,32.84,0,0,0-21.22,7.93l-.61.51-.63-.48-7.07-5.4-.89-.68.78-.81c7.49-7.72,18.42-12.07,29.72-12.07a42.79,42.79,0,0,1,27.5,9.91,41,41,0,0,1,5.13,58.21A43.18,43.18,0,0,1,81,124.09,41.42,41.42,0,0,1,64.61,91.17,38.56,38.56,0,0,1,71.45,69l.59-.85.83.62L80,74.14l.7.53-.43.76A31.93,31.93,0,0,0,75.71,91.3a30.2,30.2,0,0,0,2.82,12.52l-.91.41-.91.41a32.2,32.2,0,0,1-3-13.35,33.93,33.93,0,0,1,4.77-16.86l.87.49-.6.8-7.08-5.35.6-.8.82.57a36.57,36.57,0,0,0-6.48,21,39.42,39.42,0,0,0,15.61,31.33,41.18,41.18,0,0,0,56-6,39,39,0,0,0-4.88-55.38,40.78,40.78,0,0,0-26.22-9.44c-10.78,0-21.21,4.17-28.28,11.46l-.72-.7.61-.79,7.07,5.4-.61.79-.64-.77a34.85,34.85,0,0,1,22.5-8.4,34,34,0,0,1,23.52,9.4,32.49,32.49,0,0,1,4.07,41.64c-6.16,9-16.85,14.11-27.69,14.11a33.17,33.17,0,0,1-14-3,32.13,32.13,0,0,1-16.31-16.18Zm-20-45.88.61-.79,7,5.39.73.56-.49.77a50.16,50.16,0,0,0-8.16,27.05,48.48,48.48,0,0,0,22.81,40.82,50.55,50.55,0,0,0,66.37-11.1,47.44,47.44,0,0,0,10.42-29.7,48.2,48.2,0,0,0-15.57-35.44,50.35,50.35,0,0,0-34.19-13.31A51.31,51.31,0,0,0,71.23,57.38l-.62.6-.68-.52-6.84-5.18-.83-.63.66-.8C72,39.8,88.82,31.61,107.28,31.6a60.91,60.91,0,0,1,30.41,8.11c19.6,11.2,30.39,31,30.39,51.48a59.09,59.09,0,0,1-9.64,32.22c-11.52,17.77-31.54,27.48-51.72,27.49a60,60,0,0,1-32.86-9.61c-18.52-12.06-27.69-31.1-27.69-50A57.94,57.94,0,0,1,56.78,57.77l.6-.85.83.63-.61.79.82.58A55.94,55.94,0,0,0,48.17,91.27c0,18.27,8.83,36.64,26.78,48.33a58,58,0,0,0,31.77,9.29c19.55,0,38.94-9.42,50-26.57a57.09,57.09,0,0,0,9.32-31.14c0-19.74-10.4-38.89-29.38-49.75a58.91,58.91,0,0,0-29.42-7.84c-17.86,0-34.19,8-42.82,18.52l-.77-.64.6-.8,6.84,5.18-.6.8-.7-.72a53.32,53.32,0,0,1,37.3-15.34,52.35,52.35,0,0,1,35.54,13.84,50.2,50.2,0,0,1,16.21,36.91A49.44,49.44,0,0,1,148,122.3a52.55,52.55,0,0,1-69,11.55A50.48,50.48,0,0,1,55.29,91.33a52.16,52.16,0,0,1,8.47-28.13l.84.54-.61.79-7-5.39.61-.79.82.58Zm10.3,88.76.56-.83A69.45,69.45,0,0,0,158.64,135a65.84,65.84,0,0,0,16.75-43.81A65.16,65.16,0,0,0,157,45.83c-12.51-13-27.86-20.2-46.06-21.15q-2.08-.11-4.11-.11c-19.65,0-36.29,7.51-50.26,21.69l-.62.63-.7-.53L40.45,35.06l-1-.77,1-.8c4.67-3.79,8.66-7.74,13.39-10.78A84.06,84.06,0,0,1,100.1,9a102.91,102.91,0,0,1,26.27,3.58c5.21,1.38,10,3.76,14.89,5.69a6.49,6.49,0,0,0,2.38.51,3.22,3.22,0,0,0,3.13-2,3.33,3.33,0,0,0,.34-1.43c0-1.19-.76-2.41-2.63-3.43-.35-.19-.76-.37-1.19-.57A95.46,95.46,0,0,0,101.49,2q-3,0-6.13.17A91.57,91.57,0,0,0,54.84,13.63a79.91,79.91,0,0,0-19.92,16l-.6.66-.72-.52c-.88-.63-1.7-1.18-2.5-1.79-3.12-2.35-6.2-4.75-9.33-7A4.28,4.28,0,0,0,19.25,20a3.45,3.45,0,0,0-2.72,1.34,3.25,3.25,0,0,0-.73,2.07,3.91,3.91,0,0,0,1.49,3C18.77,27.66,20.41,28.79,22,30c2.34,1.81,4.66,3.63,6.59,5.13l.64.5-.35.73c-2.86,5.92-5.83,11.25-8,16.8-4.15,10.41-5.44,21.3-5.44,32.42q0,2.71.09,5.43,0,.24,0,.49a18.92,18.92,0,0,1-1.3,6.64c-3.7,9.63-7.6,19.17-11.42,28.73A10.37,10.37,0,0,0,2,130.74c0,4.42,3.29,7.67,9,7.76H24.63l-.34,1.26A32.43,32.43,0,0,1,23,144.3,22.38,22.38,0,0,0,21,153.38,21.53,21.53,0,0,0,25,165.58l.06.08-.06-.08c1.21,1.82,1.35,4.18,1.36,6.11h0v0c0,3.74-.5,7.39-.59,11h0q0,.2,0,.41c0,7.5,5.53,12.86,13.14,12.9l.91,0c4.82-.27,9.65-.7,14.5-1,3.45-.22,6.89-.37,10.54-.56l.95,0,.1.94c.63,5.93,1.18,11.61,1.85,17.26h0c.37,2.76,1.87,4.12,3.63,4.13h.29c2.24-.27,3.25-1.37,3.34-4.05q0-.42,0-.89l0-.17,0,.17c-.68-6.76-1.42-13.51-2.18-20.26h0c-.64-3.79-1-4.22-4.27-4.41l-.88,0c-8.29.45-16.6,1.13-24.93,1.55-1.09.05-2.06.09-2.93.09-2.23,0-3.86-.18-5.12-1.1S33,185.15,33,183.26a33,33,0,0,1,.35-4.17,43.4,43.4,0,0,0,.4-5.72,29.76,29.76,0,0,0-4.64-16.43,5.58,5.58,0,0,1-.72-3,9.42,9.42,0,0,1,.24-2.09c1.22-5.26,2.72-10.43,4-15.61h0a5.79,5.79,0,0,0,.19-1.42c-.07-2-1.11-3.1-3.8-3.34-.7,0-1.41-.05-2.13-.05l-2.71,0H8.9l.48-1.34c.29-.81.42-1.22.6-1.67h0C13.65,119.33,17.25,110.15,21,101a22.74,22.74,0,0,0,1.86-8.9q0-.54,0-1.09c-.1-2.1-.16-4.2-.16-6.3a84.24,84.24,0,0,1,2.78-22.5,68,68,0,0,1,9.57-20.91l.59-.86.83.63,7.06,5.35,7.07,5.39.76.58-.54.78a66,66,0,0,0,17.61,93.07l-.56.83-.56.83A68,68,0,0,1,49.2,52.08l.82.57-.61.8-7.07-5.39L35.29,42.7l.6-.8.82.57a66,66,0,0,0-9.29,20.31,82.26,82.26,0,0,0-2.71,22c0,2.06.06,4.13.16,6.2q0,.6,0,1.19a24.75,24.75,0,0,1-2,9.67c-3.78,9.09-7.38,18.26-11,27.41h0c-.14.35-.28.76-.58,1.6l-.94-.34v-1H24.25l2.71,0c.74,0,1.49,0,2.25.06,3.33.1,5.75,2.29,5.68,5.34a7.77,7.77,0,0,1-.25,1.92h0c-1.33,5.22-2.82,10.37-4,15.56a7.45,7.45,0,0,0-.19,1.64,3.7,3.7,0,0,0,.41,1.89,31.78,31.78,0,0,1,5,17.5,45.41,45.41,0,0,1-.42,6,31.19,31.19,0,0,0-.34,3.91c.24,3.21.43,3.22,4.77,3.49.82,0,1.76,0,2.83-.09,8.29-.42,16.59-1.1,24.92-1.55l1,0c3.91-.2,6,2.12,6.25,6.19l0,.33,0-.33c.76,6.76,1.5,13.52,2.18,20.28h0q.06.56.06,1.09c.09,3.36-2,5.86-5.17,6h0l-.46,0c-3,0-5.24-2.48-5.61-5.9h0c-.68-5.69-1.23-11.38-1.85-17.29l1-.11.05,1c-3.66.19-7.09.34-10.51.56-4.82.31-9.66.73-14.52,1l-1,0c-8.61,0-15.13-6.34-15.14-14.9q0-.23,0-.46h0c.1-3.72.59-7.36.59-10.92v0h0c0-1.81-.23-3.87-1-5h0A23.54,23.54,0,0,1,19,153.38a24.38,24.38,0,0,1,2.23-9.89,32.58,32.58,0,0,0,1.17-4.25l1,.26v1H10.94c-6.47,0-11-4.2-10.94-9.76a12.36,12.36,0,0,1,.93-4.58c3.82-9.57,7.73-19.11,11.41-28.71a16.94,16.94,0,0,0,1.16-5.92q0-.21,0-.42-.09-2.75-.1-5.5c0-11.27,1.3-22.43,5.58-33.16,2.28-5.71,5.28-11.08,8.1-16.93l.9.44-.61.79c-1.93-1.5-4.25-3.32-6.58-5.12C19.25,30.42,17.59,29.28,16,28a5.91,5.91,0,0,1-2.21-4.52A5.26,5.26,0,0,1,15,20.11,5.47,5.47,0,0,1,19.25,18a6.28,6.28,0,0,1,3.7,1.27c3.17,2.31,6.25,4.72,9.35,7.06.75.57,1.55,1.11,2.46,1.76l-.58.81-.74-.67A81.91,81.91,0,0,1,53.86,11.89,93.58,93.58,0,0,1,95.25.18Q98.39,0,101.49,0a97.47,97.47,0,0,1,42.67,9.53c.39.19.82.38,1.27.62,2.26,1.2,3.68,3.05,3.68,5.19a5.33,5.33,0,0,1-.53,2.28,5.25,5.25,0,0,1-4.93,3.13,8.47,8.47,0,0,1-3.12-.65c-4.95-2-9.71-4.32-14.66-5.62A100.91,100.91,0,0,0,100.1,11,82,82,0,0,0,54.9,24.4C50.4,27.28,46.44,31.17,41.69,35l-.63-.78.61-.8,14.83,11.3-.61.8-.71-.7c14.27-14.52,31.52-22.3,51.69-22.29q2.09,0,4.21.11a68.88,68.88,0,0,1,47.4,21.76,67.16,67.16,0,0,1,18.9,46.72,67.84,67.84,0,0,1-17.25,45.14,71.45,71.45,0,0,1-92.79,11.64Z"/><path class="cls-1" d="M193,71.36l-1,.18c-2.34-13-8.08-24.51-16.2-34.91a4.4,4.4,0,0,0-3.39-1.91,3.29,3.29,0,0,0-2,.7A3.07,3.07,0,0,0,169.17,38a5.4,5.4,0,0,0,1.22,3.16c1.22,1.64,2.49,3.28,3.65,5,9.39,14.1,13,29.26,13,44.92a125.12,125.12,0,0,1-1.79,20.39,70.7,70.7,0,0,1-17.37,36.21c-6.31,7.08-10,15.38-10,24.54a35,35,0,0,0,.26,4.26h0c1.5,12.23,4.11,24.38,6.32,36.6h0c.49,2.49,1.83,3.59,3.38,3.6a3.41,3.41,0,0,0,.73-.08h0a3.27,3.27,0,0,0,2.86-3.54,7,7,0,0,0-.11-1.2h0c-1.48-8.51-3.14-17-4.52-25.58-.73-4.52-1.63-9.18-1.64-13.87q0-.57,0-1.15h0c.27-8.11,4.3-14.73,9.29-20.72a84.16,84.16,0,0,0,9.11-12.93c7.75-14,10.33-29.3,10.89-45.3l1,0-1,.11c-.78-7-1.17-14.08-2.4-20.92l1-.18,1-.18c1.26,7,1.65,14.09,2.42,21.05v.15c-.56,16.16-3.17,31.84-11.14,46.2A86.13,86.13,0,0,1,176,151.82c-4.88,5.85-8.58,12.05-8.83,19.5v0q0,.54,0,1.08c0,4.43.87,9,1.61,13.56,1.38,8.52,3,17,4.52,25.56h0a9,9,0,0,1,.14,1.54,5.3,5.3,0,0,1-4.43,5.49h0a5.41,5.41,0,0,1-1.16.13c-2.67,0-4.82-2.13-5.35-5.24h0c-2.2-12.18-4.82-24.36-6.34-36.71h0a36.94,36.94,0,0,1-.28-4.51c0-9.71,3.93-18.51,10.5-25.87a68.69,68.69,0,0,0,16.89-35.2A123.15,123.15,0,0,0,185,91.06c0-15.37-3.5-30.07-12.64-43.82-1.11-1.67-2.35-3.28-3.59-4.94A7.37,7.37,0,0,1,167.17,38a5.09,5.09,0,0,1,2.1-4.14,5.3,5.3,0,0,1,3.21-1.1,6.39,6.39,0,0,1,5,2.68C185.72,46,191.63,57.84,194,71.18Z"/><path class="cls-1" d="M159.51,28.58l0-1a3.07,3.07,0,0,0,3-2.83v-.11l1,.11h-1a3.18,3.18,0,0,0-3-2.9h-.07a2.85,2.85,0,0,0-2.87,2.86h0a2.85,2.85,0,0,0,2.92,2.86h.1l0,1,0,1h-.16a4.87,4.87,0,0,1-4.92-4.86v0h0a4.86,4.86,0,0,1,4.82-4.84h.12a5.1,5.1,0,0,1,5,4.89v.11l-.95-.1h1v.1l-.95-.1h1a5,5,0,0,1-4.91,4.83Z"/></g></g></svg>