<svg xmlns="http://www.w3.org/2000/svg" viewBox="0 0 222.29 218.25"><defs><style>.cls-1{fill:#fff;}</style></defs><title>shot_white</title><g id="Layer_2" data-name="Layer 2"><g id="Layer_1-2" data-name="Layer 1"><path class="cls-1" d="M150.18,7.68l-.34.94c-8.23-3-17.16-4.42-25.91-6.6l.24-1V2h-22V1l.2,1c-3.41.68-6.81,1.33-10.19,2A103.25,103.25,0,0,0,54.86,19.48l-.56-.83.79-.62,9,11.53-.79.62-.47-.88c1.75-.93,2.93-1.53,4.05-2.16A93.25,93.25,0,0,1,113,14.91c45,0,87,32.67,93.45,81.77a97.18,97.18,0,0,1,.84,12.69c0,35.74-20.05,68.07-53.38,84.51a90.83,90.83,0,0,1-40.23,9.28,95.15,95.15,0,0,1-67.13-27.71A93.86,93.86,0,0,1,19,109a95,95,0,0,1,9.09-40.5,7,7,0,0,0,.54-2.69,2.44,2.44,0,0,0-.25-1.3c-2.75-2.78-6.16-5-9.83-7.89l.61-.79.88.48c-1.24,2.25-2.18,3.79-2.93,5.34a105.86,105.86,0,0,0-11,46.93A111.56,111.56,0,0,0,7,122.27c6.73,54.5,53.58,94,106,94a105.11,105.11,0,0,0,23.33-2.63c46.29-10.53,80.59-50,83.75-96.22q.27-3.92.27-7.8c0-45.38-27.27-85.15-70.46-101l.34-.94.34-.94c44,16.11,71.78,56.67,71.77,102.86q0,3.94-.27,7.93c-3.23,47.18-38.17,87.31-85.3,98a107.11,107.11,0,0,1-23.78,2.68c-53.39,0-101.08-40.2-108-95.74a113.56,113.56,0,0,1-.87-13.94A107.87,107.87,0,0,1,15.34,60.77c.82-1.67,1.76-3.22,3-5.43l.57-1,.92.72c3.59,2.79,7.07,5.09,10,8.06a3.84,3.84,0,0,1,.83,2.7,8.9,8.9,0,0,1-.73,3.55A93,93,0,0,0,21,109a91.86,91.86,0,0,0,26.91,65,93.16,93.16,0,0,0,65.71,27.13A88.83,88.83,0,0,0,153,192.08c32.67-16.12,52.26-47.73,52.27-82.71a95.19,95.19,0,0,0-.82-12.43c-6.32-48.05-47.46-80-91.47-80a91.25,91.25,0,0,0-45.1,12c-1.18.67-2.37,1.27-4.1,2.19l-.74.39-.52-.66-9-11.53-.66-.84.89-.6a105.26,105.26,0,0,1,38-15.71C95.16,1.4,98.57.75,102,.07l.1,0h22.22l.12,0C133,2.23,142,3.64,150.52,6.74Z"/><path class="cls-1" d="M58.89,87.33l-.7.71c-2.83-2.8-6.25-5.15-9.82-8l.62-.79.82.57c-5.11,7.36-7.52,16.82-7.52,27,0,20.47,9.86,43.56,26.48,56.94A70.49,70.49,0,0,0,164.66,60.86,69.63,69.63,0,0,0,113.3,38.65c-14.25,0-27.22,4.2-35.53,10.17L77.18,48l.79-.62a96.92,96.92,0,0,0,7,8.72,4.65,4.65,0,0,0,2.8.91,2.25,2.25,0,0,0,.86-.14,58.09,58.09,0,0,1,23.76-5.24q2,0,4,.14C139.75,53.44,157,65.21,166,86.64a60.77,60.77,0,0,1,5.07,23.62c0,13.4-5.18,26.1-15.48,37.4-11.53,12.67-25.47,19-40.84,19a64.51,64.51,0,0,1-18-2.7,56.71,56.71,0,0,1-41.1-54.82A59.62,59.62,0,0,1,58.2,91.88a8.31,8.31,0,0,0,.32-2.26A2.71,2.71,0,0,0,58.19,88l.7-.71.7-.71a4.22,4.22,0,0,1,.92,3,10.25,10.25,0,0,1-.41,2.84,57.62,57.62,0,0,0-2.49,16.7,54.7,54.7,0,0,0,39.66,52.9,62.52,62.52,0,0,0,17.46,2.62c14.81,0,28.13-6,39.36-18.36,10-11,14.95-23.17,15-36.05a58.78,58.78,0,0,0-4.92-22.85c-8.79-20.8-25.13-32-47.89-33.63q-1.92-.14-3.82-.14a56.09,56.09,0,0,0-22.95,5.07A4.15,4.15,0,0,1,87.8,59a6.39,6.39,0,0,1-4.22-1.49,97.61,97.61,0,0,1-7.19-8.9l-.65-.82.85-.61c8.75-6.26,22.05-10.54,36.7-10.55A72.27,72.27,0,0,1,185.66,109,72.51,72.51,0,0,1,67.52,165.32c-17.17-13.87-27.22-37.4-27.23-58.5,0-10.45,2.48-20.32,7.87-28.1l.61-.87.83.66c3.5,2.77,7,5.14,10,8.11Z"/><path class="cls-1" d="M41.41,56.1l-.08-1q.6,0,1.19,0c4,0,7.29,1.75,10.22,4.65C60.66,67.51,69,75,77.13,82.56c11.33,10.51,22.67,21,34.22,31.7l-.68.73-.66-.75,5.81-5.11.66.75-.74.67c-1.38-1.52-2.35-2.65-3.36-3.7-16-16.72-31.81-33.6-48.09-50-5.71-5.74-10-11.94-10.44-20.37-.23-3.88-2.13-6.68-5.18-9.46-7.67-7-15-14.24-22.46-21.34-.93-.88-2.07-1.69-3.68-3l.63-.78,1,.11L22,21l-.09.77-.77.1L2.17,24.45l-.13-1,.74-.68c7.76,8.42,15.87,17,23.7,25.84,3.79,4.26,7.89,6.55,13.26,6.56q.78,0,1.6-.07l.08,1,.08,1q-.9.07-1.76.07c-6,0-10.76-2.69-14.76-7.24C17.17,41.13,9.07,32.57,1.3,24.13L0,22.72l1.9-.26L20.84,19.9l.13,1-1-.11,2.19-19L22.38,0l1.41,1.14c1.56,1.26,2.72,2.07,3.8,3.1C35.08,11.37,42.4,18.64,50,25.55c3.23,2.92,5.58,6.28,5.83,10.82.44,7.78,4.29,13.45,9.86,19.08,16.31,16.43,32.13,33.32,48.12,50,1.06,1.1,2,2.24,3.39,3.74l.68.75-.76.67-5.81,5.11-.68.6-.66-.61C98.45,105,87.1,94.54,75.77,84,67.61,76.45,59.3,69,51.34,61.14c-2.73-2.67-5.43-4.07-8.82-4.08q-.5,0-1,0Z"/><path class="cls-1" d="M119.74,127.18l.35.94a18.59,18.59,0,0,1-6.57,1.19c-6.88,0-13.47-3.72-17.83-9.48s-10.11-10.24-15.38-15.42l.7-.71,1,.27a28.4,28.4,0,0,0-1,7.6c0,12.33,8.09,23.74,19.75,28.34a34,34,0,0,0,12.5,2.39,33.25,33.25,0,0,0,22.54-57.73A35.14,35.14,0,0,0,113,75.65c-4.5,0-8.56,1.11-11.46,3.35l-.61-.79.8-.6c2,2.61,4,5.19,5.94,7.94C109.39,88,111,88.9,114.24,89a19.69,19.69,0,0,1,19,16.62,23.52,23.52,0,0,1,.25,3.37,20,20,0,0,1-13.37,19.16l-.35-.94-.35-.94A18,18,0,0,0,131.46,109a21.52,21.52,0,0,0-.23-3.09,17.71,17.71,0,0,0-17-14.91A9.12,9.12,0,0,1,106,86.68c-1.84-2.67-3.9-5.23-5.89-7.87l-.6-.79.78-.6c3.38-2.59,7.87-3.76,12.68-3.76a37.11,37.11,0,0,1,24.09,9.45,35.26,35.26,0,0,1-23.89,61.2A36,36,0,0,1,100,141.77c-12.41-4.9-21-17-21-30.2a30.4,30.4,0,0,1,1.11-8.14l.45-1.64L81.72,103c5.16,5.08,11.1,9.73,15.57,15.64,4,5.32,10.09,8.7,16.23,8.69a16.59,16.59,0,0,0,5.86-1.07Z"/></g></g></svg>