<svg xmlns="http://www.w3.org/2000/svg" viewBox="0 0 138.57 122.62"><defs><style>.cls-1{fill:#120542;}</style></defs><title>social_black</title><g id="Layer_2" data-name="Layer 2"><g id="Layer_1-2" data-name="Layer 1"><path class="cls-1" d="M61.95,105.36l-.68.16a32.08,32.08,0,0,1-6.73,1.17c-2.49,0-3.63-1-6.19-4.32L58.7,97l.82-.42-.36-.85c-1-2.27-1.66-4.16-2.56-6a17.15,17.15,0,0,1-1.93-7.43c.05-6,4.31-10.05,12.55-10.27,1.81,0,3.62,0,5.45,0l9.26,0h1V71c-.05-4.64-1.22-9.29-1.21-13.31.08-4.74,1.32-8.38,8-11.05L91,46.13l-1-1.08c-3.15-3.53-5.82-6.55-8.53-9.55C73.21,26.3,65,17,56.34,8c-1.94-1.79-4.91-1.12-6.8-1.56l-1.05-.19-.12,1.06c-.23,2.09-.61,4.24-.69,6.47,0,.16,0,.31,0,.47,0,1.84.37,3.68.36,5.21a5,5,0,0,1-.39,2.17C42.39,32.68,36.6,43.5,31,54.4Q20.41,74.8,9.83,95.18l-.37-.58-.71.19L1,96.87l-1,.28.35,1c.88,2.45,1.15,5.64,3,8a164,164,0,0,0,13.25,14.53,7.89,7.89,0,0,0,4.84,1.88,2.48,2.48,0,0,0,1.6-.47c1.8-1.55,2.13-4.19,2.53-6.18a2.34,2.34,0,0,0,0-.43,5.94,5.94,0,0,0-.92-2.59c1.81-.92,3.4-1.7,4.95-2.57a11.84,11.84,0,0,1,5.59-1.85c1.93,0,3.86.86,6.31,3.33,3.71,3.74,10.06,5.61,15.31,5.87q.7,0,1.34,0c4.22,0,7.2-1.29,7.2-4.45,0-2-1.12-4.38-3.07-7.35ZM58.2,115.75c-.39,0-.81,0-1.25,0-4.85-.21-10.9-2.1-14-5.28-2.62-2.68-5.14-3.93-7.73-3.92a13.72,13.72,0,0,0-6.56,2.11c-1.72,1-3.53,1.83-5.75,3l-.81.42.33.84a13.65,13.65,0,0,1,1.16,2.68v.06c-.33,2-.91,4.34-1.83,5h0s0,0-.33,0a6.2,6.2,0,0,1-3.44-1.3A162.05,162.05,0,0,1,4.93,105c-1.21-1.48-1.64-4-2.37-6.43l6-1.62.51.81L10,99.21l.81-1.55q11-21.16,21.94-42.33C38.37,44.43,44.17,33.6,49.45,22.5a7,7,0,0,0,.58-3c0-1.8-.37-3.64-.36-5.21,0-.13,0-.26,0-.39.07-1.74.33-3.51.56-5.33,2.09.2,4.23.21,4.66.86,8.58,8.95,16.82,18.24,25.18,27.46,2.42,2.68,4.84,5.41,7.58,8.49-6.26,2.84-8,7.54-7.94,12.37,0,4,1,8.3,1.17,12.32l-8.22,0c-1.84,0-3.66,0-5.48,0-8.89.07-14.57,5.1-14.52,12.27a19.12,19.12,0,0,0,2.13,8.31c.73,1.51,1.37,3.14,2.16,5.06l-10.59,5.46-1,.54.7.94c3,4.07,4.9,6.1,8.51,6.07a30.18,30.18,0,0,0,6.5-1.06c1.62,2.54,2.39,4.51,2.37,5.67C63.4,114.82,62.38,115.65,58.2,115.75Z"/><polygon class="cls-1" points="23.05 122.14 23.05 122.14 23.05 122.15 23.05 122.14"/><path class="cls-1" d="M106.42,77.37s0-.11-.2-.75c-2.79-6-5.37-12.09-8.55-17.95-1.32-2.33-3.93-3.42-5.58-4.82L91,53l-.48,1.32c-.75,2.12-2.45,4.46-2.49,7.16,0,.09,0,.18,0,.26.24,5,1.27,9.89,2.13,15.37a10.39,10.39,0,0,1-2.23.46l-3.08,0-6.75,0c-3.36,0-6.73,0-10.11.26a8.81,8.81,0,0,0-6.38,3.87,2.12,2.12,0,0,0-.26,1c.09,1.89,1.61,3.82,2.12,5.3.49,1.3.92,2.66,1.46,4,.71,1.77,1.49,3.47,2.16,5.17.56,1.44,1,3,1.6,4.52s1.21,3.21,1.9,4.8c.85,1.85,2.13,3.48,2.07,4.56v.13c-.08,4.74,3.17,6.59,7,6.6,7.23.13,14.47.28,21.72.29,2.7,0,4.74.1,6.33.1,2,0,3.51-.09,4.61-1.23s1.05-2.7,1.08-5c0-1.47-.06-3.3-.1-5.62q0-.4,0-.8c0-3.34.31-6.83.31-10.32C113.62,88.91,112.52,82.47,106.42,77.37Zm4.88,29c0,2.33.1,4.17.1,5.59-.38,4.63.27,3.89-3.68,4.26-1.51,0-3.59-.1-6.33-.1-7.22,0-14.45-.16-21.69-.29-3.51-.24-4.89-.81-5-4.6v-.12c-.07-2.23-1.65-3.88-2.23-5.36s-1.27-3.12-1.86-4.71-1-3-1.61-4.55c-.69-1.78-1.48-3.48-2.16-5.18-.51-1.27-.94-2.62-1.45-4-.71-1.75-2.08-4-2-4.6v-.07a7,7,0,0,1,4.77-2.86c3.3-.21,6.63-.26,10-.26l6.75,0,3.11,0a19.15,19.15,0,0,0,3.55-.73l.91-.2-.14-.92c-.89-5.93-2-11-2.25-16.07v-.16c0-1.46,1-3.29,1.86-5.25,1.69,1.2,3.41,2.21,4,3.44,3.11,5.75,5.69,11.83,8.49,17.84a3,3,0,0,0,.73,1.44c5.5,4.63,6.45,10.17,6.47,16.3,0,3.37-.31,6.85-.31,10.32C111.29,105.8,111.29,106.08,111.3,106.36Z"/><path class="cls-1" d="M138.5,103.83c0-.37,0-.73,0-1.1,0-.63,0-1.26,0-1.88,0-1.11,0-2.24,0-3.37,0-.65,0-1.31,0-2s0-1.38,0-2c0-2.51.09-4.43.09-6,0-2.18-.16-3.9-1.71-4.91s-3.41-.89-6.73-.92l-5.69,0H124c-3.57,0-5.79,2.17-5.8,5.91,0,0,0,.09,0,.07q0,6,0,12t0,12.24c0,.18,0,.36,0,.54,0,3.25,1.74,5.72,5.27,5.73h2.61c2.13,0,3.87,0,5.31,0,2.74,0,4.39,0,5.72-1s1.4-2.66,1.42-4.83c0-1.53-.08-3.47-.08-6C138.47,105.62,138.48,104.76,138.5,103.83Zm-7.08,12.42c-1.41,0-3.16,0-5.31,0H123.5c-2.62-.15-3.09-.92-3.27-3.73,0-.18,0-.36,0-.54q0-6.12,0-12.24c0-4,0-8,0-12v0c.17-3.1.89-3.74,3.8-3.91h.43l5.69,0c6.83.39,6.1-.3,6.44,3.83,0,1.45-.09,3.4-.09,6q0,1,0,2.05c0,.64,0,1.28,0,1.93,0,1.12,0,2.24,0,3.37,0,.64,0,1.26,0,1.88,0,.35,0,.7,0,1.05,0,.94,0,1.82,0,2.64,0,2.58.08,4.55.08,6C136.18,116.64,137,115.84,131.42,116.25Z"/><path class="cls-1" d="M83.73,25.24l.83-.33c1.58-.76,2.19-.31,3.14-1.58l-.91-.42.91.42c2.9-6.21,5.82-12.44,8.44-18.82a1.33,1.33,0,0,0,.1-.51C96,2.32,94.52,1,93.05.18h0A2.55,2.55,0,0,0,92,0a4.22,4.22,0,0,0-3.54,1.73,175.25,175.25,0,0,0-7.65,17.05,2,2,0,0,0-.12.7c.14,2,2,3.65,2.57,5Zm-1-5.75A173.33,173.33,0,0,1,90.3,2.62,3.87,3.87,0,0,1,92,2l.22,0a4.75,4.75,0,0,1,1.33,1.1,3.23,3.23,0,0,1,.63.79c-2.55,6.2-5.4,12.29-8.24,18.39l-.24.09-1.12.37c-.88-1.39-2-2.92-1.88-3.27Z"/><path class="cls-1" d="M93.78,32.09l-.13,1.16,1.16,0h.36c.91,0,2,.14,3.1.14a4.72,4.72,0,0,0,2.87-.74,105.48,105.48,0,0,0,10.38-9.41,18.79,18.79,0,0,0,2.38-3.71l.36-.58-.42-.55c-.76-.82-1.07-2.57-2.86-3.2a9.22,9.22,0,0,0-2.08-.23,5.5,5.5,0,0,0-3.39.95A85.4,85.4,0,0,0,94.83,25.8C93.32,27.73,94.07,30.36,93.78,32.09Zm13-14.67a3.7,3.7,0,0,1,2.14-.51,7.33,7.33,0,0,1,1.62.18A8.21,8.21,0,0,1,111.87,19a13.22,13.22,0,0,1-1.75,2.78A103.93,103.93,0,0,1,99.94,31a2.9,2.9,0,0,1-1.67.35c-.73,0-1.58-.09-2.45-.12.05-1.86,0-3.69.5-4.1A83.53,83.53,0,0,1,106.76,17.42Z"/><path class="cls-1" d="M101.88,43.3a2.56,2.56,0,0,0,.08.65h0c.79,2.09,3.17,2.46,4.32,3.35l.43.28.48-.19c5.55-2.17,10.7-3.9,15.56-6.29,2-1.31,1.71-4,2.36-5.42l.35-1-1-.3c-1.34-.36-3-1.47-4.85-1.52a3.08,3.08,0,0,0-.92.13h0a98.67,98.67,0,0,0-14,5.68A5.86,5.86,0,0,0,101.88,43.3Zm3.65-2.81a96.48,96.48,0,0,1,13.74-5.57,1.19,1.19,0,0,1,.33,0A12.48,12.48,0,0,1,123,36c-.43,1.69-.82,3.42-1.1,3.32-4.57,2.25-9.53,3.94-15,6.05-1.49-.82-3.15-1.7-3-1.92l-1,.25,1-.26V43.3A4.22,4.22,0,0,1,105.53,40.49Z"/></g></g></svg>