<svg xmlns="http://www.w3.org/2000/svg" xmlns:xlink="http://www.w3.org/1999/xlink" viewBox="0 0 138.57 122.61"><defs><style>.cls-1{fill:url(#linear-gradient);}.cls-2{fill:url(#linear-gradient-2);}.cls-3{fill:url(#linear-gradient-3);}.cls-4{fill:url(#linear-gradient-4);}.cls-5{fill:url(#linear-gradient-5);}.cls-6{fill:url(#linear-gradient-6);}</style><linearGradient id="linear-gradient" x1="-631.3" y1="230.18" x2="-630.3" y2="230.18" gradientTransform="matrix(92.55, 0, 0, -92.55, 58426.2, 21367.99)" gradientUnits="userSpaceOnUse"><stop offset="0" stop-color="#6cc4c7"/><stop offset="1" stop-color="#2d82c5"/></linearGradient><linearGradient id="linear-gradient-2" x1="-630.99" y1="228.09" x2="-629.99" y2="228.09" gradientTransform="matrix(53.25, 0, 0, -53.25, 33664.31, 12232.5)" xlink:href="#linear-gradient"/><linearGradient id="linear-gradient-3" x1="-629.93" y1="221.03" x2="-628.93" y2="221.03" gradientTransform="matrix(21.36, 0, 0, -21.36, 13575.34, 4822.07)" xlink:href="#linear-gradient"/><linearGradient id="linear-gradient-4" x1="-629.4" y1="217.36" x2="-628.4" y2="217.36" gradientTransform="matrix(16.5, 0, 0, -16.5, 10467.39, 3599.74)" xlink:href="#linear-gradient"/><linearGradient id="linear-gradient-5" x1="-629.96" y1="220.83" x2="-628.96" y2="220.83" gradientTransform="matrix(21.77, 0, 0, -21.77, 13808.77, 4832.09)" xlink:href="#linear-gradient"/><linearGradient id="linear-gradient-6" x1="-630.17" y1="222.14" x2="-629.17" y2="222.14" gradientTransform="matrix(24.73, 0, 0, -24.73, 15684.77, 5533.42)" xlink:href="#linear-gradient"/></defs><title>socialmedia</title><g id="Layer_2" data-name="Layer 2"><g id="Layer_1-2" data-name="Layer 1"><path class="cls-1" d="M46.83,102l-.46-.89,11.41-5.88.46.89-.92.39c-1-2.32-1.68-4.19-2.52-5.92a19.13,19.13,0,0,1-2.13-8.31C52.62,75.15,58.3,70.11,67.19,70c1.79,0,3.58,0,5.39,0l9.35,0v1h-1c0-4.32-1.2-9-1.21-13.33-.08-5.15,1.93-10.16,9.26-12.92l.36.93-.75.67c-3.15-3.53-5.82-6.56-8.52-9.54C71.72,27.64,63.47,18.34,54.9,9.39c-.5-.76-3.35-.65-5.71-1l.18-1,1,.11c-.25,2.17-.6,4.27-.68,6.32q0,.19,0,.39c0,1.57.36,3.41.36,5.21a7,7,0,0,1-.58,3C44.17,33.6,38.37,44.43,32.74,55.32Q21.79,76.5,10.8,97.65L10,99.21l-.93-1.48-.9-1.44L9,95.75l.26,1L1.56,98.8l-.26-1,.94-.33c.94,2.77,1.31,5.77,2.69,7.45A161.94,161.94,0,0,0,18,119.31a6.21,6.21,0,0,0,3.43,1.3c.3,0,.31-.06.34,0,.92-.65,1.5-3,1.83-5v-.07a13.49,13.49,0,0,0-1.16-2.67l-.34-.84.81-.42c2.22-1.14,4-2,5.75-3a13.72,13.72,0,0,1,6.56-2.11c2.59,0,5.11,1.24,7.74,3.93,3.08,3.18,9.13,5.07,14,5.27l1.25,0c4.17-.1,5.2-.94,5.2-2.45,0-1.25-.86-3.42-2.74-6.25l.83-.55.23,1a33.41,33.41,0,0,1-7.2,1.22c-3.61,0-5.56-2-8.51-6.07l-.7-.94,1-.54.46.89.8-.59c3.09,4.13,4.2,5.23,6.9,5.26a32,32,0,0,0,6.73-1.17l.68-.16.39.59c1.95,3,3,5.31,3.07,7.35,0,3.17-3,4.45-7.2,4.45q-.64,0-1.35,0c-5.26-.27-11.6-2.13-15.31-5.87-2.45-2.47-4.38-3.32-6.31-3.33a11.83,11.83,0,0,0-5.59,1.85c-1.79,1-3.61,1.87-5.8,3l-.46-.89.93-.37c.33.94,1.24,1.95,1.31,3.41a2.36,2.36,0,0,1,0,.43c-.41,2-.74,4.64-2.54,6.19a2.5,2.5,0,0,1-1.6.47,7.9,7.9,0,0,1-4.84-1.88A163.89,163.89,0,0,1,3.36,106.2c-1.85-2.39-2.12-5.59-3-8l-.35-1,1-.28,7.71-2.08.72-.19.39.63.9,1.44-.85.53L9,96.73Q20,75.57,31,54.4C36.6,43.5,42.39,32.69,47.64,21.64A5.06,5.06,0,0,0,48,19.47c0-1.53-.36-3.37-.36-5.21q0-.23,0-.47c.09-2.23.46-4.38.69-6.47l.12-1.06,1.05.19c1.89.43,4.86-.23,6.8,1.56C65,17,73.21,26.3,81.56,35.51c2.71,3,5.38,6,8.53,9.55l1,1.08-1.35.52c-6.67,2.67-7.9,6.31-8,11.05,0,4,1.16,8.68,1.21,13.32v1h-1l-9.35,0c-1.8,0-3.58,0-5.36,0-8.25.22-12.5,4.26-12.55,10.27a17.15,17.15,0,0,0,1.93,7.43c.9,1.85,1.6,3.75,2.56,6l.36.85L58.7,97l-11.41,5.88-.46-.89.8-.59Z"/><path class="cls-2" d="M105.77,78.14l-.64.77a3,3,0,0,1-.73-1.44c-2.81-6-5.38-12.1-8.49-17.84-.75-1.49-3.1-2.65-5.09-4.22l.63-.77.94.35C91.46,57.4,90,59.68,90,61.44v.17h0c.24,5,1.36,10.14,2.25,16.07l.14.92-.91.2a19.27,19.27,0,0,1-3.55.73l-3.1,0-6.75,0c-3.35,0-6.68,0-10,.26a7,7,0,0,0-4.77,2.86v.07c-.09.64,1.28,2.85,2,4.6.51,1.36.94,2.71,1.45,4,.68,1.7,1.47,3.4,2.16,5.18C69.55,98,70,99.56,70.57,101s1.2,3.17,1.86,4.71,2.16,3.12,2.23,5.33v0h0v.1c.15,3.79,1.54,4.35,5,4.6,7.23.13,14.46.28,21.68.29,2.74,0,4.81.1,6.33.1,4-.37,3.3.37,3.69-4.26,0-1.42-.06-3.25-.1-5.58q0-.42,0-.84c0-3.46.32-7,.31-10.32,0-6.12-1-11.66-6.47-16.29l.64-.77.64-.77c6.1,5.1,7.21,11.54,7.19,17.83,0,3.49-.32,7-.31,10.32q0,.4,0,.8c0,2.32.1,4.15.1,5.62,0,2.33-.08,3.84-1.08,5s-2.57,1.21-4.61,1.23c-1.59,0-3.63-.1-6.33-.1-7.25,0-14.49-.16-21.72-.3-3.84,0-7.09-1.86-7-6.6v-.12h0v0c.07-1.06-1.22-2.7-2.07-4.55-.68-1.59-1.3-3.2-1.9-4.8s-1-3.08-1.6-4.52c-.66-1.7-1.45-3.4-2.16-5.17-.54-1.36-1-2.72-1.46-4-.51-1.49-2-3.42-2.12-5.31a2.11,2.11,0,0,1,.26-1A8.8,8.8,0,0,1,68,77.8c3.38-.22,6.75-.27,10.11-.27l6.75,0,3.08,0a20,20,0,0,0,3.14-.69l.22,1-1,.15c-.87-5.84-2-11-2.27-16.27h0c0-.09,0-.18,0-.27,0-2.7,1.75-5,2.49-7.16L91,53l1.09.89c1.65,1.4,4.26,2.49,5.58,4.82,3.17,5.86,5.76,12,8.55,17.95.22.64.23.72.2.75Z"/><path class="cls-3" d="M137.5,103.81l-1,0c0-.35,0-.7,0-1.05,0-.62,0-1.24,0-1.87,0-1.13,0-2.25,0-3.37,0-.64,0-1.29,0-1.93s0-1.41,0-2.05c0-2.56.1-4.51.09-6-.34-4.13.39-3.44-6.45-3.83l-5.65,0H124c-2.91.17-3.63.81-3.8,3.91v.05h0q0,6,0,12t0,12.28q0,.26,0,.51c.17,2.81.65,3.58,3.27,3.73h.09l2.52,0c2.15,0,3.9,0,5.3,0,5.58-.4,4.76.39,5.13-3.82,0-1.46-.08-3.43-.08-6,0-.82,0-1.69,0-2.64l1,0,1,0c0,.93,0,1.79,0,2.59,0,2.54.08,4.48.08,6,0,2.17-.09,3.75-1.42,4.84s-3,1-5.72,1c-1.43,0-3.17,0-5.3,0l-2.5,0h-.12c-3.53,0-5.26-2.47-5.27-5.73q0-.26,0-.51,0-6.14,0-12.28t0-12h0v-.07c0-3.74,2.23-5.9,5.8-5.91h.46l5.65,0c3.33,0,5.26,0,6.74.92s1.71,2.73,1.71,4.91c0,1.53-.09,3.45-.09,6q0,.95,0,2c0,.66,0,1.31,0,2,0,1.13,0,2.25,0,3.37,0,.62,0,1.24,0,1.87,0,.36,0,.73,0,1.1Z"/><path class="cls-4" d="M86.8,22.9l-.91-.42c2.9-6.22,5.81-12.41,8.4-18.73l.61.25h-.67a.67.67,0,0,1,.05-.25l.61.25h-.67s-.18-.43-.65-.88A4.69,4.69,0,0,0,92.27,2L92,2a3.86,3.86,0,0,0-1.75.62,173.21,173.21,0,0,0-7.57,16.86h0c-.14.41,1.46,2.5,2.34,4l-.89.47L83.83,23c.86-.34,1.52-.53,1.91-.66a2.63,2.63,0,0,0,.34-.13l.23.42-.41-.19a.46.46,0,0,1,.18-.23l.23.42-.41-.19.91.42.91.42c-1,1.26-1.56.82-3.14,1.58l-.84.33-.42-.8c-.61-1.31-2.43-3-2.57-5a2,2,0,0,1,.12-.7A175.08,175.08,0,0,1,88.51,1.73,4.22,4.22,0,0,1,92,0a2.56,2.56,0,0,1,1,.18C94.52,1,96,2.32,96.24,4a1.33,1.33,0,0,1-.1.51c-2.62,6.38-5.54,12.61-8.44,18.82Z"/><path class="cls-5" d="M94.78,32.21l0-1h.45c1.09,0,2.19.14,3.09.14A2.92,2.92,0,0,0,99.94,31a103.66,103.66,0,0,0,10.18-9.24,19.12,19.12,0,0,0,2.07-3.33L113,19l-.8.61a13.39,13.39,0,0,0-1.73-2.47,7.28,7.28,0,0,0-1.62-.18,3.68,3.68,0,0,0-2.13.51,83.66,83.66,0,0,0-10.44,9.7c-.62.48-.4,3-.56,5.2l-1-.11,0-1,0,1-1-.11c.28-1.74-.46-4.36,1-6.29a85.6,85.6,0,0,1,10.68-9.94,5.48,5.48,0,0,1,3.39-.95,9.25,9.25,0,0,1,2.08.24c1.8.63,2.11,2.38,2.86,3.2l.42.55-.36.58a18.77,18.77,0,0,1-2.38,3.71,105.15,105.15,0,0,1-10.38,9.41,4.73,4.73,0,0,1-2.87.74c-1.09,0-2.18-.14-3.09-.14h-.36l-1.17.05.13-1.17Z"/><path class="cls-6" d="M102.92,43.69l1-.25c-.16.25,1.91,1.29,3.48,2.18l-.55.84-.36-.93c5.61-2.19,10.71-3.91,15.4-6.22.34.11.83-2.38,1.36-4.29l.94.33-.28,1c-1.67-.52-3.41-1.49-4.29-1.44a1.09,1.09,0,0,0-.33,0,96.35,96.35,0,0,0-13.74,5.57,4.22,4.22,0,0,0-1.65,2.8v.15l-1,.25-1,.25a2.6,2.6,0,0,1-.08-.65,5.86,5.86,0,0,1,2.77-4.6,98.34,98.34,0,0,1,14-5.68,3.08,3.08,0,0,1,.93-.14c1.82,0,3.51,1.16,4.85,1.52l1,.3-.35,1c-.65,1.43-.31,4.11-2.36,5.42-4.86,2.38-10,4.11-15.56,6.29l-.48.19-.43-.28c-1.15-.9-3.54-1.26-4.33-3.36Z"/></g></g></svg>