<svg xmlns="http://www.w3.org/2000/svg" xmlns:xlink="http://www.w3.org/1999/xlink" viewBox="0 0 71.53 67.89"><defs><style>.cls-1{fill:url(#linear-gradient);}.cls-2{fill:url(#linear-gradient-2);}</style><linearGradient id="linear-gradient" y1="33.95" x2="71.53" y2="33.95" gradientUnits="userSpaceOnUse"><stop offset="0" stop-color="#6cc4c7"/><stop offset="0.5" stop-color="#4ea5c6"/><stop offset="1" stop-color="#2c82c5"/></linearGradient><linearGradient id="linear-gradient-2" x1="15.41" y1="34.44" x2="52.99" y2="34.44" xlink:href="#linear-gradient"/></defs><title>tele</title><g id="Layer_2" data-name="Layer 2"><g id="Layer_1-2" data-name="Layer 1"><path class="cls-1" d="M35.77,0C16.07,0,0,15.13,0,33.95S16.07,67.86,35.77,67.89,71.52,52.76,71.53,33.95,55.46,0,35.77,0Zm0,64.9C17.61,64.89,3,51,3,33.95S17.61,3,35.77,3,68.5,16.92,68.53,33.95,53.92,64.89,35.77,64.9Z"/><path class="cls-2" d="M52.37,19.79a1.39,1.39,0,0,0-.46-.07,3.86,3.86,0,0,0-1,.17S18,31.13,16.09,32.38c-.4.27-.54.42-.61.6-.32.89.69,1.28.69,1.28l8.49,2.62a1,1,0,0,0,.43,0C27,35.7,44.5,25.21,45.51,24.86c.16,0,.28,0,.25.11-.4,1.34-15.59,14.17-15.59,14.17a.61.61,0,0,0-.09.15h0l-.79,8s-.33,2.45,2.24,0c1.82-1.73,3.58-3.18,4.46-3.88,2.92,1.91,6.06,4,7.41,5.14a2.43,2.43,0,0,0,1.72.63,1.89,1.89,0,0,0,1.64-1.39s6-22.93,6.2-26c0-.3,0-.49,0-.7a2.46,2.46,0,0,0-.07-.71A.78.78,0,0,0,52.37,19.79Z"/></g></g></svg>