<svg xmlns="http://www.w3.org/2000/svg" xmlns:xlink="http://www.w3.org/1999/xlink" viewBox="0 0 155.16 153.67"><defs><style>.cls-1{fill:url(#linear-gradient);}.cls-2{fill:url(#linear-gradient-2);}</style><linearGradient id="linear-gradient" y1="76.83" x2="155.16" y2="76.83" gradientUnits="userSpaceOnUse"><stop offset="0" stop-color="#6cc4c7"/><stop offset="0.5" stop-color="#4ea5c6"/><stop offset="1" stop-color="#2c82c5"/></linearGradient><linearGradient id="linear-gradient-2" x1="58.77" y1="56.2" x2="137.97" y2="56.2" xlink:href="#linear-gradient"/></defs><title>leance</title><g id="Layer_2" data-name="Layer 2"><g id="Layer_1-2" data-name="Layer 1"><path class="cls-1" d="M152.53,39.29A56.36,56.36,0,0,0,97.27,0q-.81,0-1.62,0A50.1,50.1,0,0,0,72.8,5.83C44.1,20.53,33.28,54.08,48.09,82.38c1.27,2.43,1,3.77-.91,5.64Q25.49,109.28,4,130.75c-5.6,5.6-5.26,13.71.57,19.38,5.1,5,13.61,4.66,18.93-.65q21-20.92,42.07-41.81c3.28-3.25,3.28-3.24,7.45-1.15a55.29,55.29,0,0,0,40.73,3.85A56.24,56.24,0,0,0,152.53,39.29ZM50,114.46c-7.65,7.43-15.24,14.92-22.85,22.38-2.63,2.57-5.15,5.27-7.94,7.66a25.11,25.11,0,0,1-4.49,2.67c-4-.12-6.26-1.37-7.56-4a6.69,6.69,0,0,1,1.48-7.83q13.06-13.07,26.2-26.06c1.89-1.88,3.83-3.71,5.66-5.65,1.07-1.12,1.9-1.12,3,0,2.16,2.25,4.33,4.52,6.67,6.57C51.95,111.83,51.49,113,50,114.46Zm9.65-9.9c-1.47,1.54-2.23,2.3-3,2.3s-1.52-.76-3-2.26c-1.86-1.9-3.74-3.77-5.66-5.61-1.1-1.05-1.16-2,0-3,.14-.12.27-.25.4-.38,4.65-4.79,4.63-4.77,9.29-.07,1.29,1.3,2.72,2.46,4.05,3.72A17.29,17.29,0,0,1,63,100.88C61.82,102.18,60.74,103.39,59.61,104.56Zm38.73,1.56H98.2A50.06,50.06,0,0,1,48,55.9C48.07,28.22,70.55,6.21,98.71,6.28a50.1,50.1,0,0,1,50,50.42C148.58,83.83,125.86,106.12,98.35,106.12Z"/><path class="cls-2" d="M98.51,17H98.4C76.66,17,58.71,34.59,58.77,55.74A39.54,39.54,0,0,0,98.65,95.43c21.18-.16,39.27-18,39.32-38.7A39.7,39.7,0,0,0,98.51,17Zm-.16,72c-18.72,0-33.28-14.76-33.1-33.73.16-16.58,14.43-32,33.6-31.81a33,33,0,0,1,32.58,33.16C131.4,74.28,116.4,89,98.34,89Z"/></g></g></svg>