<svg xmlns="http://www.w3.org/2000/svg" xmlns:xlink="http://www.w3.org/1999/xlink" viewBox="0 0 86.92 101.43"><defs><style>.cls-1{fill:url(#linear-gradient);}.cls-2{fill:url(#linear-gradient-2);}.cls-3{fill:url(#linear-gradient-3);}</style><linearGradient id="linear-gradient" y1="73.69" x2="86.92" y2="73.69" gradientUnits="userSpaceOnUse"><stop offset="0" stop-color="#6cc4c7"/><stop offset="0.5" stop-color="#4ea5c6"/><stop offset="1" stop-color="#2c82c5"/></linearGradient><linearGradient id="linear-gradient-2" x1="19.73" y1="23.37" x2="67.06" y2="23.37" xlink:href="#linear-gradient"/><linearGradient id="linear-gradient-3" x1="31.81" y1="24.71" x2="55.21" y2="24.71" xlink:href="#linear-gradient"/></defs><title>Trust</title><g id="Layer_2" data-name="Layer 2"><g id="Layer_1-2" data-name="Layer 1"><path class="cls-1" d="M44.12,70.28c7-1.86,13.83-4.19,20.78-6.17a11.88,11.88,0,0,0,7.78-6.78c1-2,2.1-4,3.23-5.9a4.32,4.32,0,0,1,5.75-2,3.88,3.88,0,0,1,1.87,5.31c-2.62,5.36-5.37,10.68-8.43,15.79-.76,1.26-2.86,1.88-4.47,2.41C58.1,77.14,45.53,81.18,33,85.32c-3.45,1.14-7.2,2-8.92,5.75a23.85,23.85,0,0,0-1.42,5c-.38,1.81-1.18,2.73-3.22,2.55s-4.33,0-6.49,0v-.07H5.69c-1.36,0-2.13-.55-1.59-2,3.2-8.72,6.1-17.58,9.77-26.1C16.21,64.91,21,61.59,26.8,59.9c6.86-2,13.68-4.15,20.51-6.23.64-.19,1.35-.64,1.91-.49a15.43,15.43,0,0,1,2.84,1.33c-.49.92-.78,2.39-1.52,2.68-3.16,1.24-6.44,2.15-9.69,3.14-2.14.65-3.76,1.85-4.3,4.08s0,4.32,1.94,5.23a9.4,9.4,0,0,0,3.88.85,6.9,6.9,0,0,0,1.76-.21M73.22,50c-.79,1.36-1.42,2.82-2.26,4.15-1.61,2.53-2.46,5.69-5.92,6.69-7.35,2.12-14.65,4.39-22,6.59-1.49.45-2.93.54-3.4-1.35-.42-1.69.79-2.4,2.14-2.84q4.74-1.54,9.5-3a5.29,5.29,0,0,0,3.65-7c-.85-2.54-4.13-3.83-7-2.92C42,52.14,36,54,30,55.69c-6.54,1.8-12.88,4.1-16.73,10A65.45,65.45,0,0,0,7.56,78C5,84.77,2.72,91.65.28,98.46c-.79,2.21.16,2.92,2.2,2.92h9.75c3.08,0,6.17-.1,9.25,0,2.27.1,3.38-.7,3.58-3,.5-5.85,3.42-9.56,9.5-10.31A2.55,2.55,0,0,0,35,88c12.61-4.21,25.2-8.48,37.85-12.58a9,9,0,0,0,5.66-4.46c2.45-4.63,5-9.2,7.42-13.84,2-3.8.72-8.42-2.7-10.25a7.17,7.17,0,0,0-3.4-.87A7.74,7.74,0,0,0,73.22,50"/><path class="cls-2" d="M35.79,5.83a3.68,3.68,0,0,1,1.7-2.37c.55-.24,1.79.48,2.4,1.08,2.36,2.34,5.11,2.31,7.55-.07.61-.6,1.89-1.25,2.45-1a3.58,3.58,0,0,1,1.56,2.41,5.08,5.08,0,0,0,6.11,4.55c.86-.12,2.28.08,2.59.62A3.65,3.65,0,0,1,60.07,14c-1.44,3-.5,5.74,2.58,7.33a2.7,2.7,0,0,1,1.33,2,3.14,3.14,0,0,1-1.38,2.25c-3,1.61-4,4.34-2.51,7.36.38.78.63,2.19.21,2.66a3.6,3.6,0,0,1-2.77.78C54.25,36,52,37.72,51.45,41a3.53,3.53,0,0,1-1.63,2.37c-.56.25-1.65-.57-2.45-1C46.16,41.66,45,40.91,43.54,40c-1.46.94-2.53,1.69-3.66,2.34-.79.45-1.81,1.19-2.46,1a3.25,3.25,0,0,1-1.61-2.18c-.91-4-2.4-5-6.62-4.68a3,3,0,0,1-2.26-1A2.63,2.63,0,0,1,27,33.27c1.75-3.66,1-5.81-2.66-7.81a2.83,2.83,0,0,1-1.27-2.11,2.81,2.81,0,0,1,1.37-2c3.43-1.73,4.3-4.21,2.65-7.65A2.82,2.82,0,0,1,27,11.27a3.22,3.22,0,0,1,2.5-.89,10,10,0,0,0,1.29.09c2.78,0,4.28-1.44,5-4.65m9.78-4c-1.3,1.95-2.74,1.66-3.93-.1A3.74,3.74,0,0,0,37.07.23c-2.42.65-4.23,1.72-4.28,4.66,0,1.89-1.12,3-3.17,2.27a3.52,3.52,0,0,0-4.69,1.58c-1.2,1.86-2.91,3.47-.86,5.94,1.21,1.47,1,3.06-1.09,4a5.51,5.51,0,0,0-2.72,1.95A5.81,5.81,0,0,0,23,28.19c2,1,2.33,2.43,1.07,4-1.89,2.31-.53,3.91.71,5.75s2.64,2.65,4.83,1.87c2-.73,3,.32,3.23,2.22.08.58,0,1.37.32,1.69,1.14,1.06,2.32,2.36,3.72,2.78a4.93,4.93,0,0,0,4-.72c2.91-2.51,2.78-2.65,5.42,0,1.94,2,7.18.69,7.94-1.94,1.13-3.92,1.13-3.92,5.07-3.76l.25,0c2.56-.07,5.22-4.9,4-7.32-1.64-3.35-1.73-3.54,1.52-4.95,2.23-1,1.93-2.61,1.92-4.3S67.43,20,65.1,19c-3.29-1.43-3.31-1.73-1.58-4.76,1.33-2.35-.05-3.91-1.25-5.62a3.38,3.38,0,0,0-4-1.63c-2.78.73-3.58.31-3.73-2.52-.14-2.6-1.79-3.38-3.7-4.07a6,6,0,0,0-2-.4,3.74,3.74,0,0,0-3.23,1.87"/><path class="cls-3" d="M45.07,20.4a18.93,18.93,0,0,1,1.48-1.34,3.16,3.16,0,0,1,4.52.07,3.2,3.2,0,0,1,.16,4.72C49,26.5,46.61,29,43.63,32.32c-3-3.32-5.42-5.83-7.68-8.46a3.15,3.15,0,0,1,.12-4.7c1.42-1.4,3-1.28,4.51-.14a11.36,11.36,0,0,1,1.48,1.34,2.09,2.09,0,0,0,1.49.8,2.24,2.24,0,0,0,1.52-.76M32.51,18.93a5.48,5.48,0,0,0,.84,6.5c2.84,3,5.76,6,8.82,8.77a3.06,3.06,0,0,0,3-.05c3-2.73,5.84-5.61,8.57-8.6a6.21,6.21,0,0,0-.06-8.18,6,6,0,0,0-8.23-1.15,2.85,2.85,0,0,1-3.79-.06,14.18,14.18,0,0,0-3.1-1.29,6.71,6.71,0,0,0-6,4.06"/></g></g></svg>