<svg xmlns="http://www.w3.org/2000/svg" xmlns:xlink="http://www.w3.org/1999/xlink" viewBox="0 0 71.53 67.9"><defs><style>.cls-1{fill:url(#linear-gradient);}.cls-2{fill:url(#linear-gradient-2);}</style><linearGradient id="linear-gradient" x1="3.34" y1="33.95" x2="69.36" y2="33.95" gradientUnits="userSpaceOnUse"><stop offset="0" stop-color="#6cc4c7"/><stop offset="0.5" stop-color="#4ea5c6"/><stop offset="1" stop-color="#2c82c5"/></linearGradient><linearGradient id="linear-gradient-2" x1="14.32" y1="35.65" x2="59.9" y2="35.65" xlink:href="#linear-gradient"/></defs><title>twitter</title><g id="Layer_2" data-name="Layer 2"><g id="Layer_1-2" data-name="Layer 1"><path class="cls-1" d="M35.77,0C16.07,0,0,15.13,0,33.95S16.07,67.86,35.77,67.9,71.52,52.76,71.53,33.95,55.46,0,35.77,0Zm0,64.9C17.61,64.89,3,51,3,33.95S17.61,3,35.77,3,68.5,16.92,68.53,33.95,53.92,64.89,35.77,64.9Z"/><path class="cls-2" d="M57.64,21.37l1.2-3.77-3.4,2a14.51,14.51,0,0,1-3.86,1.59,9.49,9.49,0,0,0-15.79,7.16c0,.06,0,.11,0,.17a21.2,21.2,0,0,1-13.63-7.68l-1.37-1.69L19.7,21a9.6,9.6,0,0,0-.6,8.35l-.6-.34-.14,2.39v.19a9.55,9.55,0,0,0,2.19,6.09h-.08l.77,2.41a9.55,9.55,0,0,0,5.05,5.74,14.59,14.59,0,0,1-7.82,1.24L12,46.33l5.46,3.52a24.06,24.06,0,0,0,13.08,3.86h0c15.67,0,24.24-13.09,24.27-24.4,0-.11,0-.22,0-.33a17.85,17.85,0,0,0,3.73-4l2.86-4.31L57.19,22.5A9.48,9.48,0,0,0,57.64,21.37Zm-5.84,7q0,.48,0,1c0,10-7.5,21.38-21.27,21.4a21,21,0,0,1-6.34-1,17.52,17.52,0,0,0,6.85-3.29l3.3-2.6-4.2-.08a6.46,6.46,0,0,1-5-2.51A9.48,9.48,0,0,0,26.67,41l6.1-1.67-6.19-1.25a6.53,6.53,0,0,1-4.84-4.24,9.34,9.34,0,0,0,1.7.23l5.21.16L24.31,31.3a6.48,6.48,0,0,1-2.77-6.66A24.14,24.14,0,0,0,37.42,31.7l2,.1L39,29.87a6.61,6.61,0,0,1-.17-1.5,6.54,6.54,0,0,1,6.5-6.55A6.47,6.47,0,0,1,50,23.89l.57.61.82-.16.12,0-5.6,3.38,6.69-.8-.21.17-.65.48Z"/></g></g></svg>