<svg xmlns="http://www.w3.org/2000/svg" viewBox="0 0 124.46 109.43"><defs><style>.cls-1{fill:#120542;}</style></defs><title>web-black</title><g id="Layer_2" data-name="Layer 2"><g id="Layer_1-2" data-name="Layer 1"><path class="cls-1" d="M58.41,80.2h-.16l-.07,0a5,5,0,1,0,0,10h.19a5.27,5.27,0,0,0,5.31-5A5.21,5.21,0,0,0,58.41,80.2Zm-.07,8h-.06a3,3,0,1,1,.09-6h0a3.26,3.26,0,0,1,3.25,3A3.32,3.32,0,0,1,58.34,88.22Z"/><path class="cls-1" d="M116.67,34.72V33.06l-.55-.28-.21-.1-.94-.44-.41,1,0,0h0c-2.18,2.89-4.4,5.76-6.55,8.7a4.44,4.44,0,0,0-.79,2.4c-.09,2.32-.08,4.62-.08,6.91q0,11.33,0,22.66c-.33,1.85.47,1.09-1.6,1.42h-95c-1-.16-.72,0-.94-.74a6,6,0,0,1,0-.6q0-10.89,0-21.78,0-15.17,0-30.35v-.25a8.85,8.85,0,0,1,0-1c.14-.49,0-.37.63-.56a5.83,5.83,0,0,1,.86,0H47.82q21,0,42,.17h0a5.23,5.23,0,0,0,4.36-2c1.37-1.73,2.78-3.43,4.18-5.16a3.31,3.31,0,0,0,.33-.56l.82-1.48H13.86c-1.66,0-3.34,0-5,.12A9,9,0,0,0,.41,17.75c-.15.57-.26,1.12-.38,1.64l0,.11V86.58l0,.12c.06.25.12.43.14.54A9.19,9.19,0,0,0,2.37,92a10.07,10.07,0,0,0,7.76,3.12h36a6.07,6.07,0,0,1-3.44,5,28.77,28.77,0,0,1-4.77,1.68c-2.23.41-3.7,1.74-3.49,3.88,0,.21,0,.43,0,.66a3.07,3.07,0,0,0,3.35,3.1c5.8,0,11.6,0,17.41,0h.35c6.46,0,12.93,0,19.39,0h2c.77,0,1.54,0,2.33,0h0a2.72,2.72,0,0,0,2.92-2.56,10,10,0,0,0,.06-1.24v-.28a3.12,3.12,0,0,0-2.94-3.37,20.59,20.59,0,0,1-3.43-.85c-3.06-1.23-4.84-3-5.31-6h36.29c5.46,0,9.82-3.93,9.83-9.18q0-.7,0-1.4c0-1.74,0-3.48,0-5.22Q116.66,57,116.67,34.72ZM46.21,94.39h0Zm68.45-8.5c0,4.06-3.28,7.14-7.77,7.19H69.59l-.1.23a1.69,1.69,0,0,0-1,1.32,3,3,0,0,0,0,.34c.42,4,3,6.61,6.64,8a22.35,22.35,0,0,0,3.77.95c1.43.47,1.15.16,1.33,1.41v.28a8.24,8.24,0,0,1,0,1c-.26.86,0,.63-1,.81h0c-.75,0-1.51,0-2.27,0h-2c-6.46,0-12.92,0-19.38,0h-.34q-8.7,0-17.4,0c-1.5-.23-1.08.13-1.35-1.18q0-.32,0-.58c.21-1.65-.26-1.08,2-2a30.62,30.62,0,0,0,5.11-1.81,8.38,8.38,0,0,0,4.64-7.45v-.07a1.45,1.45,0,0,0-.14-.58l-.23-.68H10.13A8.06,8.06,0,0,1,3.84,90.6a7.19,7.19,0,0,1-1.7-3.71c0-.24-.1-.42-.14-.57V19.73c.12-.51.22-1,.34-1.47A7,7,0,0,1,9,13c1.61-.1,3.24-.12,4.89-.12h82c-1.07,1.31-2.15,2.63-3.21,4a3.2,3.2,0,0,1-2.79,1.26h0q-21-.12-42-.17H11.09A7.51,7.51,0,0,0,9.92,18a2.55,2.55,0,0,0-2.3,2.3,10.71,10.71,0,0,0-.06,1.27v.25q0,15.18,0,30.35,0,10.89,0,21.78a7.73,7.73,0,0,0,0,.81,2.68,2.68,0,0,0,2.9,2.53h95a3.94,3.94,0,0,0,2.78-.73,3.48,3.48,0,0,0,.82-2.69q0-11.33,0-22.66c0-2.29,0-4.58.08-6.84a2.49,2.49,0,0,1,.41-1.29c1.64-2.25,3.34-4.47,5-6.7q0,21.44,0,42.88c0,1.75,0,3.49,0,5.22Q114.67,85.2,114.67,85.89Z"/><path class="cls-1" d="M73.24,40.25h0a16.7,16.7,0,0,0,6.11-1,3,3,0,0,0,1.89-2,29.91,29.91,0,0,1,3.34-7.85c.5-.75,1-1.5,1.57-2.38l1-1.55H30.29A2.83,2.83,0,0,0,27.2,28.2c0,.52,0,1,0,1.54s0,1.08,0,1.61q0,.42,0,.84,0,.76,0,1.52c0,1.28,0,2.58,0,3.87a2.71,2.71,0,0,0,2.9,2.67H73.24Zm-42.15-2h-.88c-1.29-.28-.78.14-1-.72,0-1.27,0-2.54,0-3.82q0-.75,0-1.52c0-.28,0-.56,0-.84,0-.54,0-1.07,0-1.6s0-1,0-1.46c.23-.94-.24-.57,1.09-.79H83.46l-.54.81a31.7,31.7,0,0,0-3.58,8.36c-.15.39-.22.49-.72.71a14.75,14.75,0,0,1-5.39.88v0H31.1Z"/><path class="cls-1" d="M103.12,42.33l1.29-1.24-1.73-.45a22.73,22.73,0,0,1-13-8.53l-.92-1.22L88,32.23c-.37.65-.71,1.2-1,1.82a19.06,19.06,0,0,0-2,8.68s0,.07,0,.1c-.69,0-1.37.11-2,.2-4.44.59-8,2.8-9.88,6.89a11.52,11.52,0,0,0-1,4.92,17.25,17.25,0,0,0,.19,2.45,8.8,8.8,0,0,1,.09,1.24,5.86,5.86,0,0,1-1.7,4.28,16.53,16.53,0,0,1-1.7,1.36,2.34,2.34,0,0,0-1,1.81,2.17,2.17,0,0,0,1.62,2c.79.28,1.58.49,2.33.7a17,17,0,0,0,4.57.69,11.91,11.91,0,0,0,2.24-.2A20,20,0,0,0,93,58.92,12.08,12.08,0,0,0,94.71,53a9.75,9.75,0,0,0-1.09-4.39,24.69,24.69,0,0,0,8-4.91C102.16,43.3,102.61,42.83,103.12,42.33ZM92.5,46.95h0a1.43,1.43,0,0,0-1.14,1.31,1.52,1.52,0,0,0,.23.77,7.86,7.86,0,0,1,1.13,4,10.1,10.1,0,0,1-1.43,4.9,17.94,17.94,0,0,1-13,9.22,10.11,10.11,0,0,1-1.87.17,15.05,15.05,0,0,1-4-.62c-.77-.21-1.51-.41-2.21-.66-.3,0-.28-.09-.28-.09s0,0,.23-.23A17.15,17.15,0,0,0,72,64.18a7.89,7.89,0,0,0,2.26-5.67A10.8,10.8,0,0,0,74.14,57,15.29,15.29,0,0,1,74,54.83a9.51,9.51,0,0,1,.85-4.08c1.62-3.44,4.35-5.17,8.33-5.75a18.7,18.7,0,0,1,2.13-.2h0a2,2,0,0,0,1.64-1.64v-.08c0-.12,0-.24,0-.36a17.05,17.05,0,0,1,1.83-7.78l.25-.47a24.47,24.47,0,0,0,11.52,7.61l-.19.18A22.52,22.52,0,0,1,92.5,46.95Z"/><path class="cls-1" d="M120.27,0a6.37,6.37,0,0,0-2.53.59h0A17.56,17.56,0,0,0,113.8,2.8c-2.44,2-4.84,4-7.1,6.18a150.15,150.15,0,0,0-14,16.27,2.09,2.09,0,0,0-.49,1.28,2.06,2.06,0,0,0,.49,1.29h0a25.19,25.19,0,0,0,13.13,8.77,4,4,0,0,0,1.12.19,2.52,2.52,0,0,0,2.12-1.36l3-4.55c4.14-6.24,8.16-12.61,10.75-19.74a23.64,23.64,0,0,0,1.6-5.56V5.48C124.45,2.31,122.86,0,120.27,0Zm-9.83,29.74-3,4.55c-.44.59-.35.44-.46.47a2.28,2.28,0,0,1-.57-.11,23.18,23.18,0,0,1-12.11-8.08h0l-.06,0,.07-.06A148.36,148.36,0,0,1,108.1,10.41c2.19-2.12,4.54-4.12,7-6.05a15.71,15.71,0,0,1,3.48-1.94h0A4.46,4.46,0,0,1,120.27,2c1.27,0,2.08.74,2.18,3.45a23.32,23.32,0,0,1-1.48,5C118.49,17.29,114.56,23.53,110.44,29.74Z"/><polygon class="cls-1" points="44.9 43.79 44.9 43.79 45.1 43.83 44.9 43.79"/><path class="cls-1" d="M27.2,66.5a2.83,2.83,0,0,0,2.92,2.84l7.41,0q3.15,0,6.31,0a2.91,2.91,0,0,0,3-3c0-.1,0-.19,0-.27s0-.2,0-.3V61.14q0-7.12,0-14.25a6.7,6.7,0,0,0-.12-1.27,2.32,2.32,0,0,0-1.86-1.83h0a5.65,5.65,0,0,0-1.22-.15H30.41a3,3,0,0,0-3.23,3.15c0,.09,0,.17,0,.25V57.56h0q0,2.36,0,4.72Q27.19,64.39,27.2,66.5Zm2-19.67c.3-1.47-.31-.9,1.24-1.18H43.68a3.66,3.66,0,0,1,.79.1h0c.32.11.26.09.33.26a4.72,4.72,0,0,1,.09.89q0,7.13,0,14.25,0,2.33,0,4.65c0,.11,0,.21,0,.3v.22c-.27,1.26.24.79-1.06,1q-3.15,0-6.3,0l-7.39,0c-1.19-.24-.71.22-.94-.86q0-2.1,0-4.21c0-1.9,0-3.81,0-5.72v-1h0V47.05S29.18,46.82,29.18,46.83Z"/><path class="cls-1" d="M71.51,43.75l-2.39-.1-.48,0H53.13c-.35,0-.66,0-.91,0h0c-.55,0-1.76.35-1.76,1.48,0,.2,0,.4,0,.68,0,0,0,.18,0,.17,0,1,1.27,1.58,2,1.55h0q7,0,13.9,0a2.58,2.58,0,0,0,1.54-.46h0c.67-.55,1.22-1.11,1.83-1.67Z"/><path class="cls-1" d="M66.65,51c-.32,0-.61,0-.94,0H52.58c-.75-.06-2.11.59-2.11,1.51,0,.17,0,.32,0,.46v.19c0,1.11,1.35,1.73,2.23,1.73h3l10,0h0c.31,0,1.46-.2,1.56-1.12.07-.45.19-.94.32-1.52L67.85,51Z"/><path class="cls-1" d="M67.66,59.63v-.06c0-.69-.74-1.11-1.24-1.27h0l-.18-.07H52.46c-.67-.06-2,.41-2,1.44,0,.15,0,.29,0,.43s0,.29,0,.43a1.54,1.54,0,0,0,.75,1.34,3,3,0,0,0,1.43.22H63.85C65.63,62.07,67.41,61.46,67.66,59.63Z"/><path class="cls-1" d="M50.44,67.75v0c0,1,1.37,1.67,2.19,1.6h11l-.37-1.28c-.17-.59-.33-1.06-.42-1.49-.08-.78-1.17-1.23-1.64-1.14h-7.9c-1.22,0-2.87.24-2.87,1.7,0,.17,0,.33,0,.49h0Z"/></g></g></svg>