<?xml version="1.0" encoding="utf-8"?>
<!-- Generator: Adobe Illustrator 21.1.0, SVG Export Plug-In . SVG Version: 6.00 Build 0)  -->
<svg version="1.1" id="Layer_1" xmlns="http://www.w3.org/2000/svg" xmlns:xlink="http://www.w3.org/1999/xlink" x="0px" y="0px"
	 viewBox="0 0 457.3 146.7" style="enable-background:new 0 0 457.3 146.7;" xml:space="preserve">
<style type="text/css">
	.st0{fill:#FAFCFB;}
	.st1{fill:#008ECF;}
	.st2{fill:#66C0BF;}
	.st3{clip-path:url(#SVGID_2_);}
	.st4{fill:url(#SVGID_3_);}
	.st5{clip-path:url(#SVGID_5_);}
	.st6{fill:url(#SVGID_6_);}
	.st7{clip-path:url(#SVGID_8_);}
	.st8{fill:url(#SVGID_9_);}
</style>
<title>Asset 1</title>
<g id="Layer_2">
	<g id="Layer_1-2">
		<path class="st0" d="M9.2,115l-7.9-13.7h4.2l5.5,9.6l5.5-9.6h4.2L12.9,115v10.4H9.2V115z"/>
		<path class="st0" d="M20,117.7c0-2.1,0.8-4.2,2.4-5.6c1.5-1.5,3.6-2.4,5.8-2.3c2.2,0,4.2,0.8,5.8,2.3c3.1,3.2,3.1,8.3,0,11.4
			c-1.6,1.5-3.7,2.4-5.8,2.3c-2.2,0.1-4.2-0.8-5.7-2.3C20.8,122,19.9,119.8,20,117.7z M23.6,117.7c-0.1,1.3,0.4,2.6,1.2,3.6
			c0.9,0.9,2.1,1.4,3.3,1.3c1.2,0.1,2.4-0.4,3.3-1.3c1.6-2.1,1.6-5,0-7.1c-0.9-0.9-2.1-1.4-3.3-1.3c-1.2,0-2.4,0.4-3.3,1.3
			C24,115.2,23.5,116.5,23.6,117.7L23.6,117.7z"/>
		<path class="st0" d="M43.5,110.2v8.7c0,2.5,1,3.8,3,3.8s3-1.3,3-3.8v-8.7H53v8.8c0,1.1-0.1,2.1-0.5,3.2c-0.3,0.8-0.9,1.6-1.5,2.1
			c-1.3,1.1-2.9,1.6-4.5,1.6c-1.6,0.1-3.3-0.5-4.5-1.6c-0.7-0.6-1.2-1.3-1.5-2.1c-0.3-1-0.5-2.1-0.4-3.1v-8.8L43.5,110.2z"/>
		<path class="st0" d="M57.4,110.2h3.5v1.4c0.5-0.6,1.1-1,1.7-1.4c0.6-0.3,1.2-0.4,1.8-0.4c1,0,2,0.3,2.9,0.9l-1.6,3.2
			c-0.6-0.5-1.3-0.7-2-0.7c-1.9,0-2.9,1.4-2.9,4.3v7.9h-3.5V110.2z"/>
		<path class="st0" d="M92,104.7h-8.4v5.8h8.1v3.4h-8.1v11.5h-3.6v-24.1H92V104.7z"/>
		<path class="st0" d="M98.7,110.2v8.7c0,2.5,1,3.8,3,3.8c2,0,3-1.3,3-3.8v-8.7h3.5v8.8c0,1.1-0.1,2.1-0.4,3.2
			c-0.3,0.8-0.8,1.6-1.5,2.1c-2.7,2-6.3,2-9,0c-0.7-0.6-1.2-1.3-1.6-2.1c-0.3-1-0.5-2.1-0.4-3.2v-8.8L98.7,110.2z"/>
		<path class="st0" d="M116.1,99v26.4h-3.5V99H116.1z"/>
		<path class="st0" d="M124.1,99v26.4h-3.5V99H124.1z"/>
		<path class="st0" d="M152.8,104.9l-3,1.8c-0.4-0.7-0.9-1.4-1.6-1.9c-0.6-0.4-1.3-0.5-2-0.5c-0.9,0-1.8,0.3-2.5,0.9
			c-0.6,0.5-1,1.3-1,2.1c0,1.2,0.9,2.1,2.6,2.8l2.4,1c1.7,0.6,3.1,1.6,4.3,2.9c0.9,1.2,1.4,2.7,1.4,4.2c0.1,2.1-0.7,4.1-2.2,5.5
			c-1.5,1.5-3.5,2.2-5.6,2.2c-1.9,0.1-3.8-0.6-5.2-1.9c-1.4-1.4-2.3-3.2-2.5-5.2l3.7-0.8c0,1,0.3,2,0.9,2.9c1.4,1.8,4.1,2.1,5.8,0.6
			c0.1-0.1,0.2-0.1,0.3-0.2c0.8-0.8,1.2-1.8,1.1-2.9c0-0.4-0.1-0.9-0.2-1.3c-0.1-0.4-0.3-0.8-0.6-1.1c-0.3-0.4-0.7-0.7-1.1-0.9
			c-0.5-0.3-1-0.6-1.6-0.8l-2.3-1c-3.3-1.4-5-3.4-5-6.1c0-1.8,0.7-3.4,2.1-4.6c1.4-1.2,3.3-1.9,5.2-1.8
			C149,100.8,151.2,102.2,152.8,104.9z"/>
		<path class="st0" d="M160.6,110.2v8.7c0,2.5,1,3.8,3,3.8s3-1.3,3-3.8v-8.7h3.5v8.8c0,1.1-0.1,2.1-0.4,3.2
			c-0.3,0.8-0.8,1.6-1.5,2.1c-2.7,2-6.3,2-9,0c-0.7-0.6-1.2-1.3-1.6-2.1c-0.3-1-0.5-2.1-0.4-3.2v-8.8L160.6,110.2z"/>
		<path class="st0" d="M174,103.8c0-1.3,1-2.3,2.3-2.3c0.6,0,1.2,0.2,1.6,0.7c0.4,0.4,0.7,1,0.7,1.6c0,0.6-0.2,1.2-0.7,1.6
			c-0.4,0.4-1,0.7-1.6,0.7C175,106.2,174,105.1,174,103.8C174,103.9,174,103.9,174,103.8z M178,110.2v15.2h-3.5v-15.2H178z"/>
		<path class="st0" d="M186.1,113.4v11.9h-3.5v-11.9h-1.5v-3.3h1.5v-5.6h3.5v5.6h2.7v3.3H186.1z"/>
		<path class="st0" d="M205.4,118.6h-10.9c0,1.1,0.5,2.2,1.2,3c0.7,0.7,1.7,1.1,2.8,1.1c0.8,0,1.5-0.2,2.2-0.6
			c0.8-0.7,1.4-1.4,1.9-2.3l3,1.7c-0.4,0.7-0.9,1.4-1.4,2c-0.5,0.5-1,1-1.6,1.4c-0.6,0.4-1.2,0.6-1.9,0.8c-0.7,0.2-1.5,0.3-2.2,0.2
			c-2.1,0.1-4-0.7-5.5-2.2c-1.4-1.6-2.2-3.7-2.1-5.8c-0.1-2.1,0.6-4.2,2-5.8c2.9-2.9,7.7-2.9,10.7-0.1c1.4,1.6,2.1,3.8,1.9,5.9
			L205.4,118.6z M201.8,115.7c-0.3-1.7-1.8-2.9-3.6-2.8c-0.4,0-0.8,0.1-1.2,0.2c-0.4,0.1-0.7,0.3-1,0.6c-0.3,0.2-0.6,0.5-0.8,0.9
			c-0.2,0.4-0.4,0.8-0.5,1.2H201.8z"/>
		<path class="st0" d="M219.8,125.4v-24.1h5.1c1.9-0.1,3.9,0.2,5.8,0.7c1.5,0.5,2.9,1.3,4.1,2.4c4.9,4.8,5,12.7,0.2,17.6
			c-0.1,0.1-0.2,0.2-0.4,0.4c-1.2,1.1-2.6,1.9-4.1,2.4c-1.8,0.5-3.8,0.7-5.7,0.7L219.8,125.4z M223.4,122h1.6c1.4,0,2.8-0.1,4.1-0.5
			c3.5-1.2,5.8-4.5,5.6-8.1c0.1-2.4-0.9-4.8-2.7-6.4c-1.6-1.5-3.9-2.2-7-2.2h-1.7V122z"/>
		<path class="st0" d="M241.8,103.8c0-1.3,1-2.3,2.3-2.3c0.6,0,1.2,0.2,1.6,0.7c0.4,0.4,0.7,1,0.7,1.6c0,0.6-0.2,1.2-0.7,1.6
			c-0.4,0.4-1,0.7-1.6,0.7C242.8,106.2,241.8,105.1,241.8,103.8C241.8,103.9,241.8,103.9,241.8,103.8z M245.8,110.2v15.2h-3.5v-15.2
			H245.8z"/>
		<path class="st0" d="M265,125c0,0.7,0,1.4-0.1,1.9c0,0.5-0.1,1-0.2,1.4c-0.2,1.1-0.7,2.1-1.5,3c-1.4,1.6-3.5,2.5-5.7,2.4
			c-1.8,0.1-3.6-0.5-5-1.6c-1.4-1.2-2.2-2.9-2.3-4.7h3.5c0.1,0.6,0.3,1.2,0.7,1.7c0.8,1,2,1.5,3.2,1.4c2.6,0,3.9-1.6,3.9-4.7v-2.1
			c-1.2,1.4-3,2.1-4.8,2.1c-1.9,0.1-3.8-0.8-5.1-2.2c-1.4-1.6-2.1-3.6-2-5.7c-0.1-2,0.6-4,1.9-5.7c1.3-1.6,3.2-2.5,5.3-2.5
			c1.8,0,3.6,0.7,4.8,2.1v-1.7h3.5V125z M261.6,117.8c0.1-1.3-0.4-2.6-1.2-3.6c-0.8-0.9-1.9-1.4-3.1-1.4c-1.2,0-2.4,0.5-3.2,1.5
			c-0.7,1-1.1,2.2-1,3.4c-0.1,1.2,0.3,2.4,1,3.4c0.8,1,1.9,1.5,3.2,1.4c1.2,0.1,2.4-0.5,3.2-1.5C261.3,120.2,261.7,119,261.6,117.8
			L261.6,117.8z"/>
		<path class="st0" d="M268.9,103.8c0-1.3,1-2.3,2.3-2.3c0.6,0,1.2,0.2,1.6,0.7c0.4,0.4,0.7,1,0.7,1.6c0,0.6-0.2,1.2-0.7,1.6
			c-0.4,0.4-1,0.7-1.6,0.7C269.9,106.2,268.9,105.1,268.9,103.8C268.9,103.9,268.9,103.9,268.9,103.8L268.9,103.8z M272.9,110.2
			v15.2h-3.5v-15.2H272.9z"/>
		<path class="st0" d="M281,113.4v11.9h-3.5v-11.9H276v-3.3h1.5v-5.6h3.5v5.6h2.7v3.3H281z"/>
		<path class="st0" d="M297.6,110.2h3.5v15.2h-3.5v-1.6c-2.6,2.7-6.9,2.7-9.5,0.1c-0.1-0.1-0.2-0.2-0.3-0.4c-1.4-1.6-2.1-3.7-2-5.8
			c-0.1-2.1,0.6-4.1,2-5.7c1.3-1.5,3.2-2.3,5.1-2.3c1.8,0,3.6,0.8,4.8,2.2L297.6,110.2z M289.3,117.7c-0.1,1.3,0.4,2.6,1.2,3.6
			c0.7,0.9,1.8,1.4,3,1.4c1.2,0.1,2.4-0.4,3.2-1.3c1.6-2.1,1.6-5,0-7.1c-0.8-0.9-1.9-1.4-3.1-1.4c-1.2,0-2.3,0.5-3,1.4
			C289.7,115.3,289.3,116.5,289.3,117.7L289.3,117.7z"/>
		<path class="st0" d="M309.1,99v26.4h-3.5V99H309.1z"/>
		<path class="st0" d="M337.8,104.9l-3,1.8c-0.4-0.7-0.9-1.4-1.6-1.9c-0.6-0.4-1.3-0.5-2-0.5c-0.9,0-1.8,0.3-2.5,0.9
			c-0.6,0.5-1,1.3-1,2.1c0,1.2,0.9,2.1,2.6,2.8l2.4,1c1.7,0.6,3.1,1.6,4.3,2.9c0.9,1.2,1.4,2.7,1.4,4.2c0.1,2.1-0.7,4.1-2.2,5.5
			c-1.5,1.5-3.5,2.2-5.5,2.2c-1.9,0.1-3.8-0.6-5.2-1.9c-1.4-1.4-2.3-3.2-2.5-5.2l3.7-0.8c0,1,0.3,2,0.9,2.9c1.4,1.8,4.1,2.1,5.8,0.6
			c0.1-0.1,0.2-0.1,0.3-0.2c0.8-0.8,1.2-1.8,1.1-2.9c0-0.4-0.1-0.9-0.2-1.3c-0.1-0.4-0.3-0.8-0.6-1.1c-0.3-0.4-0.7-0.7-1.1-0.9
			c-0.5-0.3-1-0.6-1.6-0.8l-2.3-1c-3.3-1.4-5-3.4-5-6.1c0-1.8,0.7-3.4,2.1-4.6c1.4-1.2,3.3-1.9,5.2-1.8
			C334,100.8,336.2,102.2,337.8,104.9z"/>
		<path class="st0" d="M341.4,117.7c0-2.1,0.8-4.2,2.4-5.6c3.2-3.1,8.3-3.1,11.5,0c3.1,3.2,3.1,8.3,0,11.4c-1.6,1.5-3.7,2.4-5.8,2.3
			c-2.2,0.1-4.2-0.8-5.7-2.3C342.2,121.9,341.3,119.8,341.4,117.7z M345,117.7c-0.1,1.3,0.4,2.6,1.2,3.6c1.8,1.8,4.8,1.8,6.6,0
			c1.6-2.1,1.6-5,0-7.1c-1.8-1.8-4.7-1.8-6.6,0C345.4,115.2,344.9,116.5,345,117.7L345,117.7z"/>
		<path class="st0" d="M364.9,99v26.4h-3.5V99H364.9z"/>
		<path class="st0" d="M372.8,110.2v8.7c0,2.5,1,3.8,3,3.8s3-1.3,3-3.8v-8.7h3.5v8.8c0,1.1-0.1,2.1-0.5,3.2
			c-0.3,0.8-0.8,1.6-1.5,2.1c-2.7,2-6.3,2-9,0c-0.7-0.6-1.2-1.3-1.5-2.1c-0.3-1-0.5-2.1-0.4-3.2v-8.8L372.8,110.2z"/>
		<path class="st0" d="M390.4,113.4v11.9h-3.5v-11.9h-1.5v-3.3h1.5v-5.6h3.5v5.6h2.7v3.3H390.4z"/>
		<path class="st0" d="M395,103.8c0-1.3,1-2.3,2.3-2.3c0.6,0,1.2,0.2,1.6,0.7c0.4,0.4,0.7,1,0.7,1.6c0,0.6-0.2,1.2-0.7,1.6
			c-0.4,0.4-1,0.7-1.6,0.7C396,106.2,395,105.1,395,103.8C395,103.9,395,103.9,395,103.8L395,103.8z M399,110.2v15.2h-3.5v-15.2H399
			z"/>
		<path class="st0" d="M402.8,117.7c0-2.1,0.8-4.2,2.4-5.6c3.2-3.1,8.3-3.1,11.5,0c3.1,3.2,3.1,8.3,0,11.4c-1.6,1.5-3.7,2.4-5.8,2.3
			c-2.2,0.1-4.2-0.8-5.7-2.3C403.5,121.9,402.7,119.8,402.8,117.7z M406.3,117.7c-0.1,1.3,0.4,2.6,1.2,3.6c1.8,1.8,4.8,1.8,6.6,0
			c1.6-2.1,1.6-5,0-7.1c-1.8-1.8-4.7-1.8-6.6,0C406.7,115.2,406.3,116.5,406.3,117.7z"/>
		<path class="st0" d="M422.7,110.2h3.5v1.4c1.1-1.2,2.6-1.8,4.2-1.8c1.6-0.1,3.1,0.5,4.1,1.7c0.9,0.9,1.3,2.5,1.3,4.6v9.3h-3.5
			v-8.5c0.1-1.1-0.1-2.2-0.6-3.1c-0.5-0.6-1.4-1-2.2-0.9c-1-0.1-1.9,0.4-2.5,1.2c-0.6,1.2-0.8,2.6-0.7,4v7.3h-3.5V110.2z"/>
		<path class="st1" d="M12.6,70.2h1.2c6.7,0,7.6-3.2,7.6-10.4c0-6-1.7-10.3-7.6-10.3h-1.3V70.2z M12.6,41.2h2.1
			c4.8,0,5.8-3.9,5.8-8.8c0-7.4-3-7.4-7.2-7.4h-0.7V41.2z M0,79.2V16.6h12.9c10.7,0,19.2,2.6,19.2,16.2c0,6.7-3.2,10-9.5,12.2
			c8.2,2,11.1,8,11.1,15.8c0,12.6-6,18.5-18.3,18.5H0z"/>
		<path class="st1" d="M38.6,55.9V16.6h12.6v38.9c0,10.5,0,15.1,5.6,15.1s5.6-4.6,5.6-15.1V16.6h12.7v39.3
			c0,12.9-2.3,24.5-18.2,24.5S38.6,68.8,38.6,55.9"/>
		<path class="st1" d="M80.5,61.3l12.8-2.5c0,5.5,0.4,12,4.8,12c3,0,3.8-2.2,3.8-4.8c0-5.2-3.8-9.9-7.4-13.1l-3.9-3.3
			c-4.9-4.2-10-8.8-10-17.8c0-10.3,7.1-16.5,17.7-16.5c8.8,0,16,7.2,16,16c0,0,0,0.1,0,0.1c0,0.2,0,0.5,0,1.5L101,34.7
			c0-0.8,0.1-1.6,0.1-2.5c0-3-0.7-7.2-4-7.2c-3,0-4.2,2.9-4.2,5.5c0,4.5,2.4,7.3,5.3,9.8c1.6,1.4,3.2,2.6,4.6,4
			c6.4,5.7,11.3,11.6,11.3,21.3c0,9-7.4,14.9-16.1,14.9C86.1,80.5,80.9,71.1,80.5,61.3"/>
		<rect x="119.5" y="16.6" class="st1" width="12.7" height="62.6"/>
		<polygon class="st1" points="139.6,79.2 139.6,16.6 148.7,16.6 162.5,49.3 162.5,16.6 173,16.6 173,79.2 164.2,79.2 150.5,44.4 
			150.5,79.2 		"/>
		<polygon class="st1" points="180.4,79.2 180.4,16.6 206.5,16.6 206.5,25.3 193.1,25.3 193.1,42.3 202.6,42.3 202.6,51.2 
			193.1,51.2 193.1,70.5 206.5,70.5 206.5,79.2 		"/>
		<path class="st1" d="M209.6,61.3l12.8-2.5c0,5.5,0.4,12,4.8,12c3,0,3.8-2.2,3.8-4.8c0-5.2-3.8-9.9-7.4-13.1l-3.9-3.3
			c-4.9-4.2-10-8.8-10-17.8c0-10.3,7.1-16.5,17.7-16.5c8.8,0,16,7.2,16,16c0,0,0,0.1,0,0.1c0,0.2,0,0.5,0,1.5l-13.1,1.8
			c0-0.8,0.1-1.6,0.1-2.5c0-3-0.6-7.2-4-7.2c-3,0-4.2,2.9-4.2,5.5c0,4.5,2.4,7.3,5.4,9.8c1.6,1.4,3.2,2.6,4.6,4
			c6.4,5.7,11.3,11.6,11.3,21.3c0,9-7.4,14.9-16.1,14.9c-12,0-17.1-9.4-17.6-19.2"/>
		<path class="st1" d="M246.9,61.3l12.8-2.5c0,5.5,0.5,12,4.8,12c3,0,3.8-2.2,3.8-4.8c0-5.2-3.8-9.9-7.4-13.1l-3.9-3.3
			c-4.9-4.2-10-8.8-10-17.8c0-10.3,7.1-16.5,17.6-16.5c8.8,0,16,7.2,16,16c0,0,0,0.1,0,0.1c0,0.2,0,0.5,0,1.5l-13.1,1.8
			c0-0.8,0.1-1.6,0.1-2.5c0-3-0.7-7.2-4-7.2c-3,0-4.2,2.9-4.2,5.5c0,4.5,2.4,7.3,5.4,9.8c1.6,1.4,3.2,2.6,4.6,4
			c6.4,5.7,11.3,11.6,11.3,21.3c0,9-7.4,14.9-16.1,14.9c-12,0-17.1-9.4-17.6-19.2"/>
		<polygon class="st2" points="326.7,48.7 326.6,49.1 326.4,50 326,50.7 325.8,51.4 325.6,52.3 325.4,53 324.7,54.5 324.4,55.2 
			324.1,55.9 323.9,56.6 323.6,57.4 323.1,58.1 322.8,58.8 322.3,59.5 321.6,60.9 321.2,61.5 320.8,62.1 318.7,64.6 318.1,65.1 
			317.4,65.7 316.5,66.2 315.6,66.8 314.9,67.2 314.1,67.5 313.3,67.7 312.3,67.8 311.2,67.7 310.4,67.5 309.7,67.2 309,66.8 
			308.3,66.1 307.6,65.2 307.2,64.5 306.8,63.5 306.5,62.4 306.4,61.6 306.2,60.4 306.2,59.4 305.9,59.3 305.5,59.9 304.9,61.4 
			304.3,62.8 303.9,63.5 303.5,64.1 303.1,64.8 302.8,65.5 302.3,66.1 301.9,66.7 301.4,67.3 300.8,67.8 300.2,68.3 299.4,69.1 
			298.2,69.9 296.9,70.6 295.9,71 294.4,71.4 293.5,71.5 292.4,71.5 291.4,71.4 290.6,71.2 289.9,71.1 289.2,70.8 287.8,70 
			287.3,69.4 286.8,68.8 286.1,68 285.4,66.8 284.9,65.7 284.7,64.9 284.4,63.8 284.1,62.5 283.9,61.4 283.8,60.5 283.7,59.4 
			283.7,58.3 283.8,57.4 283.9,56.4 284,55.2 284.1,54.4 284.3,53.7 284.5,52.9 285.8,48.5 286.1,47.7 286.5,47 286.8,46.3 
			287.4,45 287.9,44.3 288.8,42.8 289,42.4 289.5,41.7 290.5,40.4 291.2,39.5 292,38.7 293,37.6 293.6,37 294.2,36.5 294.9,36 
			295.8,35.5 296.7,34.8 297.5,34.2 298.4,33.7 299.4,33.3 300.2,32.9 302.3,32.4 303,32.2 304.1,32 305.8,31.8 307.8,31.6 
			309.7,31.7 310.5,31.7 311.5,31.8 315.1,32.8 315.8,33.2 316.5,33.5 317.1,33.9 317.8,34.4 318.1,35.3 317.9,36.6 317.2,37.8 
			316.3,38.5 315.7,38.7 314.9,38.6 314.2,38.2 313.3,37.9 312.6,37.6 312,37.4 311.2,37.2 310.4,37 309.7,36.9 308.2,36.8 
			307.3,36.7 306.4,36.7 304.7,36.9 304.1,37.1 303.3,37.4 302.2,37.8 300.2,38.9 299.5,39.5 298.7,40.1 298.2,40.7 297.5,41.2 
			297,41.7 296.5,42.3 295.9,43 295.6,43.4 295.2,44.2 294.8,44.9 294.4,45.6 293.6,46.9 293.3,47.6 293,48.3 292.3,50.5 292,51.3 
			291.7,52.9 291.5,53.7 291.3,54.5 291.2,56.8 291,57.7 291.2,60.1 291.6,62.4 291.8,63.3 292.2,64 292.6,64.6 293.2,65.2 
			293.8,65.7 294.6,65.9 295.6,65.9 296.7,65.6 297.4,65.2 298.7,64.3 299.7,63.1 300.1,62.5 300.6,61.9 301,61.2 301.4,60.6 
			301.8,59.9 302.1,59.2 302.8,57.8 303.2,57.1 304.1,54.9 304.5,53.8 304.9,52.6 305.1,52.1 305.8,49.7 306,48.9 306.1,48.2 
			306.3,47.4 306.4,46.7 306.5,45.9 306.7,44.9 307,43.1 307.1,42.1 307.3,41.2 307.6,40.4 308.4,39.8 309.2,39.5 309.9,39.5 
			310.7,39.5 312.2,40 313,40.3 313.4,40.8 313.6,41.5 313.5,42.2 313.4,43 313.3,43.8 313.2,45.4 313.1,46.2 313,46.9 312.7,48.5 
			312.7,49.4 312.7,49.9 312.6,51 312.6,51.8 312.5,53.3 312.4,54.4 312.4,55.2 312.4,56.2 312.3,57.5 312.3,59 312.4,60.3 
			312.7,61.4 313.2,62 314.1,62.3 315.4,62.2 316.4,61.6 317.1,61.1 318.1,60 318.6,59.4 319.5,58.1 320.3,56.7 321,55.4 
			321.3,54.6 321.7,53.9 321.8,53.3 322.8,51.1 323,50.3 323.3,49.6 324.5,45.9 325.1,45.3 326.2,45.3 327,46.1 327.2,46.9 
			327,47.7 		"/>
		<path class="st2" d="M333.2,24.5l-0.6,3.8v0.8l-0.1,0.8l-0.1,1.2L332,33l-0.1,0.9v0.5l-0.1,0.9l-0.1,0.8V37l0.2,0.5l0.5-0.4
			l0.7-0.8l2.9-4.1l0.3-0.7l0.3-0.8l0.4-0.9l0.3-0.4l0.4-0.9l0.5-0.9l0.5-0.9l0.4-1l0.3-0.8l0.2-0.6l0.3-0.7l0.5-1.5l0.2-0.9
			l0.2-0.5l0.2-0.9l0.2-0.8v-0.8l0.1-0.8l0.1-1l0.2-1l0.1-1l0.2-1l-0.1-0.9v-0.8l-0.3-1.6l-0.3-0.6L340.9,9l-0.7-0.3l-0.7-0.1
			l-0.7,0.3l-0.7,0.7l-0.5,0.6l-0.3,0.6l-0.3,0.7l-0.3,0.8l-0.6,1.4l-0.3,0.8l-0.2,0.8l-0.2,0.7l-0.2,0.8l-0.2,0.7l-0.2,0.8
			l-0.1,0.7l-0.2,1l-0.3,1.4l-0.2,0.8L333.2,24.5z M346.9,19.8l-0.3,0.8l-0.5,1.5l-0.3,1l-0.4,1l-0.3,0.7l-0.3,0.7l-0.3,0.7
			l-0.3,0.8l-0.2,0.6l-0.3,0.8l-0.5,0.9l-0.6,1l-0.6,0.9l-0.3,0.5l-0.5,0.8l-0.9,1.3l-0.4,0.7l-0.8,1.2l-0.5,0.6l-0.6,0.8l-0.8,0.8
			l-1.1,1.3l-0.6,0.5l-1.7,1.5l-0.5,0.3l-0.6,0.5l-0.8,0.9l-0.5,0.9l-0.2,0.7v1v1.6l0.1,0.5v0.9v0.8l0.1,0.9l0.3,1.8l0.1,1.1
			l0.3,1.7l0.3,0.9l0.2,0.5l0.3,0.8l0.5,0.7l0.5,0.6l0.6,0.5l0.8,0.3l0.7,0.1h0.9L338,59l0.7-0.2l0.7-0.4l1-0.6l0.9-0.7l0.6-0.6
			l0.7-0.8l0.6-0.9l0.9-1.1l0.6-0.7l0.4-0.8l0.3-0.5l0.4-0.8l0.2-0.7l0.4-0.8l0.3-0.5l0.4-0.8l0.5-1.4l0.3-0.8l0.4-0.8l0.3-0.8
			l0.3-0.9l0.6-1.2l0.7-0.8h1.1l0.8,0.7l0.1,0.8l-0.1,0.8l-0.2,0.7l-0.3,0.8l-0.2,0.8l-0.2,0.7l-0.1,0.7l-0.3,0.8l-0.2,0.7l-0.3,0.8
			l-0.4,0.8l-0.1,0.5l-0.3,0.8l-0.4,0.8l-0.6,1.3l-0.5,0.9l-0.3,0.4l-0.5,0.9l-0.4,0.7l-0.5,1l-0.6,0.8l-0.5,0.7l-0.4,0.5l-0.5,0.6
			l-0.7,0.5l-0.6,0.5l-0.7,0.5l-0.6,0.5l-0.6,0.4l-0.7,0.5l-1,0.5l-1.6,0.6l-1,0.3l-1,0.1l-0.5,0.1l-0.9,0.1h-0.8l-0.7-0.1l-0.8-0.1
			l-0.7-0.2l-0.8-0.3l-0.7-0.4l-0.6-0.4l-0.6-0.5l-0.5-0.6l-0.5-0.7l-0.4-0.6l-0.3-0.7l-0.4-0.7l-0.2-0.8l-0.3-0.8l-0.1-0.5
			l-0.3-0.9l-0.2-0.8l-0.1-0.8v-0.8l-0.1-0.9l-0.1-0.5l-0.1-1.1l-0.1-1.9l-0.1-1l-0.1-0.8v-0.8V46l0.1-2.9l0.1-1.1v-1.7l0.1-0.5
			l0.1-1.1l0.1-0.5l0.1-1.3l0.1-1.2V35l0.1-1.1l0.1-1.2v-0.6l0.1-1.2l0.2-1.2l0.2-0.6l0.1-1.2l0.2-1.1l0.2-0.8l0.5-2.4l0.1-0.5
			l0.3-1.3l0.4-1.5l0.4-1.1l0.2-0.8l0.2-0.5l0.3-0.8l0.4-1.6l0.3-0.9l0.3-0.8l0.4-0.9l0.5-1.2l0.9-1.7l0.4-0.8l0.9-1.2l0.3-0.5
			l0.5-0.7l0.5-0.5l1.2-1.2l0.8-0.8l0.9-0.6l0.7-0.4l0.7-0.3l1.5-0.2h0.9h0.5l0.9,0.1l0.7,0.2l1.4,0.8l0.5,0.6l0.7,0.7l0.6,0.9
			l0.5,0.7l0.5,1l0.4,1.1l0.2,1.5l0.2,2.3l-0.1,1.6l-0.1,0.7v0.9l-0.3,2.1l-0.2,0.7L346.9,19.8z"/>
		<path class="st2" d="M351.4,15.4l0.3-0.8l0.6-0.7l0.6-0.5l0.8-0.4l0.7-0.3l0.9-0.1h0.8l0.7,0.3l0.7,0.4l0.7,0.5l0.5,0.6l0.4,0.7
			l0.2,0.8l0.1,0.9l-0.1,0.8l-0.3,0.8l-0.4,0.8l-0.5,0.6l-0.6,0.6l-0.7,0.5l-0.8,0.3h-0.8h-0.9l-1.5-0.6l-0.6-0.5l-0.5-0.6l-0.3-0.7
			l-0.2-0.7v-0.8v-0.9L351.4,15.4z M369.4,39.2l0.2,0.9l-0.1,0.8l-0.5,1.5l-0.6,1.4l-0.3,0.8l-0.2,0.7l-0.4,0.8l-0.2,0.6l-0.3,0.8
			l-0.3,0.8l-0.3,0.7l-0.4,0.8l-0.3,0.7L365,52l-1.2,2l-0.8,1.3l-0.5,0.7l-0.4,0.7l-0.5,0.6l-1.6,1.8l-0.5,0.5l-0.7,0.5l-0.7,0.4
			l-0.6,0.3l-1.5,0.6l-1.4,0.2l-1,0.1l-0.7-0.2l-0.8-0.1l-0.8-0.3l-0.7-0.4l-0.5-0.5l-0.5-0.6l-0.5-0.7l-0.3-0.7l-0.3-0.7l-0.2-0.8
			l-0.1-0.8l-0.1-1.6v-0.8l0.1-0.8l0.1-1.6l0.1-0.7v-0.8l0.1-0.8l0.1-0.7l0.4-2.4v-0.7v-0.8l0.1-0.8v-0.8l0.1-0.7l0.3-1.6l0.1-1.1
			l0.1-1.2l0.2-1.6v-0.8l0.1-0.6v-0.8l0.2-0.9l0.1-0.7l0.1-2.4l0.1-0.8l0.1-1.1l0.2-1.2l0.1-0.8l0.2-0.7l0.4-0.5l0.7-0.5l0.7-0.2
			l0.9-0.1l1.6-0.1l1.4,0.3l0.5,0.5l0.1,0.8v0.8l-0.1,1.1l-0.1,1.1l-0.2,1.6l-0.1,0.7V32l-0.1,0.9l0,1.1l-0.4,2.7v0.8l-0.2,1.2
			l-0.3,1.9v0.8l-0.1,0.7v0.8l-0.4,1.5v0.8l-0.2,2.2l-0.4,1.6v0.8l-0.1,1.2v1.4l0.1,1.5l0.4,1.2l0.8,0.8l1,0.1l0.8-0.2l0.7-0.5
			l0.5-0.5l0.6-0.6l2.3-3.3l0.4-0.7l0.3-0.7l0.4-0.8l0.6-1.5l0.4-0.7l0.3-0.6l0.3-0.7l0.4-0.8l0.2-0.8l0.4-1.6l0.7-2.2l0.3-0.8
			l0.7-0.5h1.1L369.4,39.2z"/>
		<polygon class="st2" points="372.7,58.1 371.8,57.9 371.3,57.7 370.5,57.4 369.8,57.1 369.1,56.6 367.9,55.6 367.4,54.8 367,54.2 
			366.7,53.5 366.4,52.7 366.3,51.9 366.3,51.1 366.1,50.3 366.1,49.4 366.1,48.3 366,47.2 366.1,46.2 366.2,44.1 366.3,43.3 
			366.4,42.5 366.4,41.8 366.4,41 366.5,40.2 366.6,39.2 366.8,38.1 366.9,36.5 367,35.7 367.2,35 367.4,34.2 367.5,33.5 
			367.7,32.7 367.8,31.1 367.9,30.1 368.1,29.3 368.3,28.5 368.5,27.5 368.6,26.7 368.7,26 368.8,25.2 368.9,24.5 369,23.7 
			369.3,22.9 369.7,22.4 370.4,22 371.1,21.6 372.8,21.3 373.6,21.3 374.4,21.5 375.1,21.7 375.6,22.1 375.7,22.9 375.7,23.7 
			375.5,24.8 375.2,25.8 375,26.6 374.9,27.3 374.8,28.1 374.6,28.8 374.5,29.7 374.3,30.8 374.1,32.2 374,33.3 373.8,34.1 
			373.8,35.3 373.5,37.2 373.4,38.3 373.3,39.7 373.2,40.9 373.1,41.8 372.9,43.9 372.9,44.8 372.9,45.9 373,46.9 373,47.8 
			373.1,48.5 373.2,49.3 373.6,50.4 374,51.4 374.5,52 375.1,52.4 375.8,52.6 377,52.5 378.3,52 379.5,51.3 380.5,50.4 381.5,49.4 
			382.2,48.6 382.4,47.9 382.2,47 381.6,46 381.2,44.9 381.3,44.1 381.7,43.4 382.2,42.8 383.2,42.4 384.5,42.3 385.3,42.2 
			385.7,41.6 386.4,39.5 386.8,38.8 387,38.1 387.1,37.3 387.2,36.5 387.5,35.6 387.5,35.1 387.7,34.2 388,33.1 388.3,31.2 
			388.3,30.4 388.4,29.7 388.5,28.1 388.6,27.4 388.7,26.6 388.8,25.8 388.8,25.1 388.7,24.3 388.6,23.6 388.5,22.8 388.5,21.9 
			388.4,20.9 388.4,19.8 388.8,19.1 389.8,18.6 391.2,18.2 392.6,18.2 393.9,18.4 394.9,18.9 395.4,19.6 395.6,20.3 395.6,21.9 
			395.6,22.6 395.6,23.4 395.6,24.2 395.5,25 395.5,25.7 395.5,26.5 395.5,27.3 395.5,28.1 395.2,29.7 395.2,30.6 395.2,31.1 
			395.1,32 394.9,32.8 394.8,33.7 394.7,34.3 394.5,35.2 394.2,36 394.1,36.5 393.6,38.2 393.4,38.9 393.2,39.7 392.9,40.6 
			392.6,41.3 392.3,41.9 391.7,43.4 391.5,44 391.1,44.8 391,45.3 391.5,45.6 392.7,45.5 393.8,45.3 394.5,45 395.4,44.7 
			396.1,44.2 396.8,43.7 397.7,43 398.2,42.5 400,40 400.3,39.4 400.6,38.6 400.9,37.9 401.2,37.2 401.6,36.2 401.9,35.2 
			402.2,34.3 402.5,33.3 403.2,32.4 404.3,32.4 405.1,33.2 405.3,34.3 405,35.4 404.4,37.6 404.1,38.4 403.8,39 403.1,40.6 
			402.9,41.1 402.5,42 401.9,42.8 400.4,45 399.9,45.6 399,46.3 397.5,47.5 396.9,47.9 395.4,48.5 394.6,48.8 393.5,49.1 
			392.6,49.4 391.7,49.4 391,49.5 390.2,49.4 389.1,49.4 388.2,49.7 387.7,50.1 387.1,50.7 386.7,51.3 385.7,52.5 384.9,53.3 
			384.1,54 383.4,54.6 382.6,55.2 381.6,55.8 380.9,56.2 380.3,56.6 379.5,56.9 378.5,57.3 377.5,57.5 376.6,57.8 374.5,58 
			373.6,58.1 		"/>
		<path class="st2" d="M417.5,18.7l-1.1,0.7l-0.9,0.7l-0.6,0.5l-1,1.2l-0.6,0.9l-0.6,0.9l-0.5,0.8l-0.4,1l-0.5,1l-0.3,0.8l-0.4,1
			l-0.2,1.1l-0.2,0.8l-0.1,0.7v0.6l0.5,0.4l1.1,0.1l1.7-0.2h0.9l2.4-0.4l0.8-0.3l0.7-0.3l0.8-0.5l0.5-0.3l0.8-0.6l0.5-0.5l0.5-0.6
			l0.5-0.7l0.5-0.6l0.4-0.8l0.3-0.7l0.2-0.7l0.3-0.8l0.2-1.6v-0.9v-0.8l-0.2-0.8l-0.5-0.7l-0.6-0.5l-0.8-0.4L421,18h-0.8h-0.8
			l-0.8,0.3L417.5,18.7z M429.6,27.2l-0.3,0.7l-0.8,1.4l-1,1.2l-0.5,0.5l-0.7,0.6l-0.5,0.2l-0.8,0.6l-0.5,0.3l-0.7,0.5l-0.8,0.4
			l-0.7,0.4l-0.8,0.2l-0.8,0.3l-0.9,0.2l-1,0.3l-0.7,0.2l-0.8,0.1l-1.6,0.1l-1.5,0.2h-0.8l-2.4-0.1l-0.6,0.1l-0.4,0.4l-0.1,0.6
			l0.1,0.8l0.1,0.9l0.2,1.4l0.2,0.8l0.3,0.7l0.8,1.4l1.1,1.2l0.6,0.5l0.6,0.4l1.5,0.6l0.9,0.1l0.8,0.1h0.6h0.8h0.8l0.9-0.2l0.7-0.2
			l2.1-0.8l0.7-0.3l0.7-0.4l0.6-0.4l1.3-0.8l1.2-0.9l1-1.1l0.5-0.5l0.5-0.6l1-1.3l0.8-1.4l0.3-0.7l0.4-0.8l0.7-1.4l0.3-0.8l0.2-0.7
			l0.3-0.8l0.2-0.7l0.3-0.7l0.2-0.7l0.2-0.8l0.2-0.7l0.3-0.8l0.5-0.5l0.8-0.1l0.9,0.4l0.5,0.7v0.8l-0.2,0.8l-0.3,1l-0.4,1l-0.3,1
			l-0.4,1l-0.4,0.9l-0.6,1.5l-0.2,0.5l-0.4,0.8l-0.6,1.3l-0.4,0.7l-0.4,0.6l-0.4,0.7l-0.5,0.8l-0.2,0.4l-0.5,0.8l-0.4,0.7l-1,1.2
			l-0.7,0.8l-0.6,0.8l-1.2,1.1l-2,1.3l-0.6,0.4l-0.7,0.4l-1.1,0.3l-1,0.4l-1.8,0.5l-1.1,0.3l-0.9,0.2l-0.8,0.1l-3.1,0.2l-0.7-0.1
			l-0.8-0.1l-0.8-0.2l-0.7-0.2l-1.5-0.5l-0.7-0.2l-0.7-0.4l-0.7-0.5l-0.4-0.4l-0.7-0.6l-0.6-0.5l-0.5-0.6l-0.4-0.5l-0.5-0.7
			l-0.4-0.6l-0.4-0.7l-0.3-0.7l-0.3-0.7l-0.3-0.7l-0.6-2.2l-0.3-1.6v-0.8l-0.1-0.8l0.1-2.4l0.1-0.7v-0.8l0.1-0.8v-0.8l0.1-0.8l0.2-1
			l0.2-1.1l0.3-0.8l0.4-1l0.5-1l0.2-0.8l0.3-0.7l0.4-0.7l1-1.6l1.1-1.5l0.6-0.7l0.7-0.7l0.7-0.7l0.7-0.7l0.8-0.6l0.8-0.6l0.7-0.5
			l1-0.7l1.7-0.9l1.5-0.6l1.1-0.4l1.9-0.3h1.1h1.4l1.1,0.1l0.8,0.1l0.8,0.2l0.7,0.2l0.6,0.2l1.4,0.8l0.6,0.5l0.6,0.8l0.6,1l0.4,0.7
			l0.3,0.7l0.2,0.8l0.2,1l0.1,1.1l0.1,0.9l-0.1,1.1l-0.2,1.1l-0.2,0.9l-0.2,0.5l-0.3,0.8L429.6,27.2z"/>
		<g>
			<defs>
				<path id="SVGID_1_" d="M283.2,80.7c89.6-28.4,172.6-26,172.6-26c-10.2-0.5-20-0.8-29.3-0.8C330.3,53.9,283.2,80.7,283.2,80.7"/>
			</defs>
			<clipPath id="SVGID_2_">
				<use xlink:href="#SVGID_1_"  style="overflow:visible;"/>
			</clipPath>
			<g class="st3">
				
					<linearGradient id="SVGID_3_" gradientUnits="userSpaceOnUse" x1="-468.2965" y1="-4.5837" x2="-467.2965" y2="-4.5837" gradientTransform="matrix(173.6156 -9.4027 9.4027 173.6156 81628.4297 -3536.1636)">
					<stop  offset="0" style="stop-color:#FFFFFF"/>
					<stop  offset="1" style="stop-color:#1D1D1B"/>
				</linearGradient>
				<polygon class="st4" points="281.7,52.4 455.3,43 457.3,80.6 283.7,90 				"/>
			</g>
		</g>
		<g>
			<defs>
				<path id="SVGID_4_" d="M311.7,77.2c69.9-17.9,134.4-17.2,134.4-17.2c-5.6-0.2-10.9-0.2-16.1-0.2
					C350.7,59.7,311.7,77.2,311.7,77.2"/>
			</defs>
			<clipPath id="SVGID_5_">
				<use xlink:href="#SVGID_4_"  style="overflow:visible;"/>
			</clipPath>
			<g class="st5">
				
					<linearGradient id="SVGID_6_" gradientUnits="userSpaceOnUse" x1="-467.5253" y1="-4.2408" x2="-466.5253" y2="-4.2408" gradientTransform="matrix(134.9223 -7.3071 7.3071 134.9223 63422.2578 -2772.2412)">
					<stop  offset="0" style="stop-color:#FFFFFF"/>
					<stop  offset="1" style="stop-color:#1D1D1B"/>
				</linearGradient>
				<polygon class="st6" points="310.8,59.3 445.7,52 447,77.1 312.1,84.4 				"/>
			</g>
		</g>
		<g>
			<defs>
				<path id="SVGID_7_" d="M340.9,76.4c24.9-6.2,50.4-9.5,76-9.8c-3.1-0.1-6.2-0.1-9.1-0.1C363,66.5,340.9,76.4,340.9,76.4"/>
			</defs>
			<clipPath id="SVGID_8_">
				<use xlink:href="#SVGID_7_"  style="overflow:visible;"/>
			</clipPath>
			<g class="st7">
				
					<linearGradient id="SVGID_9_" gradientUnits="userSpaceOnUse" x1="-464.8501" y1="-4.0795" x2="-463.8501" y2="-4.0795" gradientTransform="matrix(76.3281 -4.1338 4.1338 76.3281 35838.8984 -1536.8118)">
					<stop  offset="0" style="stop-color:#FFFFFF"/>
					<stop  offset="1" style="stop-color:#1D1D1B"/>
				</linearGradient>
				<polygon class="st8" points="340.3,66.3 416.7,62.2 417.4,76.4 341.1,80.5 				"/>
			</g>
		</g>
		<path class="st2" d="M451.8,12.6l-0.5-7.4c0-1,0-2.2-0.1-3.5h-0.1c-0.3,1.1-0.7,2.6-1.1,3.8l-2.3,7h-2.6l-2.3-7.2
			c-0.2-1-0.6-2.5-0.9-3.6h-0.1c0,1.2,0,2.4-0.1,3.5l-0.5,7.4h-2.4l1-12.6h3.8l2.2,6.2c0.3,1,0.5,1.9,0.8,3.2l0,0
			c0.3-1.1,0.6-2.2,0.9-3.2l2.2-6.2h3.6l1,12.6H451.8z M438.2,0v2.1h-4v10.5h-2.5V2.1h-4V0H438.2z"/>
	</g>
</g>
</svg>
