<?xml version="1.0" encoding="utf-8"?>
<!-- Generator: Adobe Illustrator 21.1.0, SVG Export Plug-In . SVG Version: 6.00 Build 0)  -->
<svg version="1.1" id="Layer_1" xmlns="http://www.w3.org/2000/svg" xmlns:xlink="http://www.w3.org/1999/xlink" x="0px" y="0px"
	 viewBox="0 0 977.3 170.4" style="enable-background:new 0 0 977.3 170.4;" xml:space="preserve">
<style type="text/css">
	.st0{fill:#FAFAF8;}
	.st1{fill:#006EB7;}
	.st2{fill:#00A0DE;}
	.st3{clip-path:url(#SVGID_2_);}
	.st4{fill:#52C3F1;}
	.st5{fill:#51C3F1;}
	.st6{fill:#51C3F0;}
	.st7{fill:#51C2EF;}
	.st8{fill:#50C2EF;}
	.st9{fill:#50C2EE;}
	.st10{fill:#50C2ED;}
	.st11{fill:#4FC2ED;}
	.st12{fill:#4FC1ED;}
	.st13{fill:#4FC1EC;}
	.st14{fill:#4FC1EB;}
	.st15{fill:#4EC1EA;}
	.st16{fill:#4EC0EA;}
	.st17{fill:#4EC0E9;}
	.st18{fill:#4DC0E8;}
	.st19{fill:#4DBFE7;}
	.st20{fill:#4CBFE6;}
	.st21{fill:#4CBFE5;}
	.st22{fill:#4CBEE5;}
	.st23{fill:#4CBEE4;}
	.st24{fill:#4BBEE4;}
	.st25{fill:#4BBEE3;}
	.st26{fill:#4BBEE2;}
	.st27{fill:#4ABDE2;}
	.st28{fill:#4ABDE1;}
	.st29{fill:#4ABDE0;}
	.st30{fill:#49BDE0;}
	.st31{fill:#49BCDF;}
	.st32{fill:#49BCDE;}
	.st33{fill:#48BCDE;}
	.st34{fill:#48BCDD;}
	.st35{fill:#48BBDD;}
	.st36{fill:#48BBDC;}
	.st37{fill:#47BBDB;}
	.st38{fill:#47BADA;}
	.st39{fill:#46BAD9;}
	.st40{fill:#46BAD8;}
	.st41{fill:#45B9D7;}
	.st42{fill:#44B9D6;}
	.st43{fill:#44B9D5;}
	.st44{fill:#44B8D4;}
	.st45{fill:#43B8D4;}
	.st46{fill:#43B8D3;}
	.st47{fill:#43B8D2;}
	.st48{fill:#42B7D1;}
	.st49{fill:#42B7D0;}
	.st50{fill:#41B6CF;}
	.st51{fill:#41B6CE;}
	.st52{fill:#40B6CD;}
	.st53{fill:#40B5CC;}
	.st54{fill:#3FB5CC;}
	.st55{fill:#3FB5CB;}
	.st56{fill:#3EB4CA;}
	.st57{fill:#3EB4C9;}
	.st58{fill:#3DB4C8;}
	.st59{fill:#3DB3C7;}
	.st60{fill:#3CB3C6;}
	.st61{fill:#3CB2C5;}
	.st62{fill:#3BB2C4;}
	.st63{fill:#3BB2C3;}
	.st64{fill:#3AB1C2;}
	.st65{fill:#3AB1C1;}
	.st66{fill:#39B0BF;}
	.st67{fill:#38B0BE;}
	.st68{fill:#38B0BD;}
	.st69{fill:#37AFBC;}
	.st70{fill:#36AFBB;}
	.st71{fill:#36AEBA;}
	.st72{fill:#35AEB8;}
	.st73{fill:#35ADB7;}
	.st74{fill:#34ADB6;}
	.st75{fill:#33ACB5;}
	.st76{fill:#33ACB3;}
	.st77{fill:#32ABB2;}
	.st78{fill:#31ABB1;}
	.st79{fill:#30AAAF;}
	.st80{fill:#2FAAAE;}
	.st81{fill:#2FA9AD;}
	.st82{fill:#2EA9AB;}
	.st83{fill:#2DA8AA;}
	.st84{fill:#2CA8A8;}
	.st85{fill:#2BA7A7;}
	.st86{fill:#2AA7A5;}
	.st87{fill:#2AA6A4;}
	.st88{fill:#29A5A2;}
	.st89{fill:#28A5A1;}
	.st90{fill:#27A49F;}
	.st91{fill:#26A49E;}
	.st92{fill:#26A39C;}
	.st93{fill:#25A39B;}
	.st94{fill:#24A299;}
	.st95{fill:#23A197;}
	.st96{fill:#22A196;}
	.st97{fill:#21A094;}
	.st98{fill:#209F92;}
	.st99{fill:#1E9F90;}
	.st100{fill:#1D9E8F;}
	.st101{fill:#1C9D8D;}
	.st102{fill:#1B9D8B;}
	.st103{fill:#1A9C89;}
	.st104{fill:#199B88;}
	.st105{fill:#189B86;}
	.st106{fill:#169A84;}
	.st107{fill:#159982;}
	.st108{fill:#139980;}
	.st109{fill:#12987E;}
	.st110{fill:#10977C;}
	.st111{fill:#0E967A;}
	.st112{fill:#0C9678;}
	.st113{fill:#0A9576;}
	.st114{fill:#079474;}
	.st115{fill:#059372;}
	.st116{fill:#039270;}
	.st117{fill:#00926E;}
	.st118{fill:#00916B;}
	.st119{fill:#009069;}
	.st120{fill:#008F67;}
	.st121{fill:#008E65;}
	.st122{fill:#008E63;}
	.st123{fill:#008D60;}
	.st124{fill:#008C5E;}
	.st125{fill:#008B5C;}
	.st126{fill:#008A5A;}
	.st127{fill:#008957;}
	.st128{fill:#008955;}
	.st129{fill:#008853;}
	.st130{fill:#008750;}
	.st131{fill:#00864E;}
	.st132{fill:#00854C;}
	.st133{fill:#008449;}
	.st134{fill:#008347;}
	.st135{fill:#008345;}
	.st136{fill:#008243;}
	.st137{fill:#008140;}
	.st138{fill:#00803E;}
	.st139{fill:#007F3C;}
	.st140{fill:#007E3A;}
	.st141{fill:#007D38;}
	.st142{fill:#007D36;}
	.st143{fill:#007C34;}
	.st144{fill:#007B32;}
	.st145{fill:#007A30;}
	.st146{fill:#129CD8;}
</style>
<title>Asset 1</title>
<path class="st0" d="M613.5,117c-1.9,1.7-3,4.1-3.1,6.6c0,0.9,0.1,1.8,0.4,2.7c0.2,0.8,0.6,1.5,1,2.1c2.9-1.8,6-3.2,9.2-4.3
	c3.2-1.1,6.6-1.7,10-1.7c0.8,0,1.7,0.1,2.5,0.2c0.8,0.1,1.6,0.3,2.3,0.7c0.7,0.3,1.3,0.8,1.8,1.4c0.5,0.7,0.7,1.5,0.7,2.3
	c0,1.3-0.4,2.6-1.2,3.7c-0.9,1-2,1.9-3.2,2.4c-1.4,0.6-2.9,1.1-4.4,1.3c-1.6,0.3-3.2,0.4-4.8,0.4c-2.1,0-4.3-0.3-6.3-0.9
	c-2.2-0.6-4.2-1.8-5.8-3.4c-1.4,1-2.8,2.2-3.9,3.5c-1.4,1.5-2.6,3.1-3.7,4.8c-1.1,1.7-2,3.4-2.8,5.3c-0.7,1.6-1,3.3-1.1,5
	c0,0.9,0.1,1.7,0.2,2.6c0.1,0.8,0.4,1.5,0.9,2.1c0.4,0.6,1,1.1,1.7,1.4c0.8,0.4,1.7,0.6,2.6,0.5c1.3,0,2.6-0.3,3.8-0.7
	c2.3-0.9,4.5-2.2,6.4-3.8c0.6-0.5,1.1-1.1,1.5-1.7l1.2-2.6c0.3-0.7,0.8-1.4,1.3-2.1c0.5-0.6,1.1-1.1,1.8-1.4
	c0.8-0.4,1.7-0.6,2.5-0.5c0.3,0,0.5,0.1,0.8,0.2c0.3,0.2,0.4,0.5,0.4,0.8c-0.2,0.9-0.7,1.6-1.3,2.2c-0.9,1-1.8,2.1-2.7,3.3
	c-1.3,2.4-2.9,4.9-4.7,7.4c-1.7,2.5-3.7,4.7-5.8,6.8c-2.1,2-4.6,3.6-7.2,4.9c-2.7,1.3-5.7,1.9-8.6,1.9c-1.4,0-2.8-0.2-4.2-0.6
	c-1.2-0.4-2.4-0.9-3.4-1.7c-0.9-0.7-1.7-1.7-2.3-2.8c-0.6-1.1-0.8-2.3-0.8-3.5c0-1.1,0.3-2.1,0.8-3c0.6-0.9,1.6-1.4,2.7-1.3
	c1.3,0,2.3,1,2.3,2.3c0,0.6-0.2,1.3-0.6,1.7c-0.4,0.4-1.1,0.7-1.7,0.6h-0.6c-0.2,0-0.4-0.1-0.6-0.2c-0.1,0.3-0.1,0.6-0.1,0.9v0.7
	c0,0.9,0.2,1.8,0.7,2.6c0.5,0.8,1.1,1.5,1.9,2c0.8,0.6,1.8,1,2.7,1.2c1.1,0.3,2.2,0.4,3.3,0.4c2.3,0,4.6-0.6,6.6-1.7
	c2-1.2,3.9-2.6,5.5-4.3c1.7-1.7,3.2-3.6,4.6-5.6c1.4-2,2.6-3.9,3.7-5.6l-0.1-0.1c-1.6,1.3-3.3,2.4-5.2,3.2c-1.9,0.9-4,1.3-6.1,1.3
	c-2.2,0.1-4.3-0.7-5.8-2.2c-1.5-1.6-2.3-3.7-2.1-5.9c0-2,0.5-4,1.4-5.8c1-2,2.2-3.8,3.6-5.5c1.4-1.7,3-3.4,4.7-4.8
	c1.5-1.3,3.1-2.5,4.8-3.7c-1.1-1.5-1.7-3.3-1.7-5.2c0-1.4,0.3-2.8,1-4c0.6-1.2,1.5-2.2,2.5-3.1L613.5,117z M635.7,126.4
	c0-0.7-0.2-1.3-0.6-1.8c-0.4-0.4-0.9-0.8-1.5-1c-0.6-0.2-1.2-0.4-1.9-0.4c-0.7,0-1.3-0.1-1.9-0.1c-1.5,0-3,0.2-4.5,0.6
	c-3.1,0.8-6,2-8.7,3.7c-1.3,0.8-2.6,1.7-3.7,2.7c1.3,1.4,2.9,2.4,4.7,3c2.3,0.7,4.6,1.1,7,1.1c1.4,0,2.8-0.2,4.1-0.5
	c1.2-0.3,2.4-0.8,3.5-1.4c1-0.6,1.8-1.4,2.5-2.4C635.4,128.7,635.8,127.6,635.7,126.4L635.7,126.4z"/>
<path class="st0" d="M638.2,146.6l-8.4,12.2l0.1,0.1c0.6-0.7,1.4-1.6,2.3-2.6s2-2,3.1-3c1.1-1,2.3-2.1,3.5-3.1s2.4-1.9,3.6-2.7
	c0.2-0.4,0.4-0.7,0.7-1.1c0.5-0.3,1-0.5,1.6-0.4c0.5,0,0.9,0,1.3,0l1.2,0.1c-0.8,0.8-1.5,1.8-2.2,2.7c-0.7,1-1.1,2.3-1,3.5
	c-0.1,0.9,0.2,1.7,0.8,2.4c0.5,0.6,1.2,0.9,1.9,0.9c0.7,0,1.3-0.1,1.9-0.4c0.6-0.3,1.3-0.6,1.8-1c0.6-0.4,1.1-0.8,1.7-1.2
	s1-0.8,1.4-1.2l0.4,0.3c-0.4,0.4-0.9,0.9-1.5,1.4c-0.6,0.5-1.2,1-1.8,1.4c-0.7,0.4-1.4,0.8-2.1,1.1c-0.7,0.3-1.5,0.4-2.3,0.4
	c-1.3,0.1-2.5-0.4-3.4-1.3c-0.9-1-1.4-2.3-1.3-3.6c0-1,0.2-2,0.7-2.8l-0.1-0.1c-2.1,1.5-4.1,3.1-5.9,4.9c-2.2,2-4.4,4.4-6.9,7.1
	c-1,1.2-2,2.5-2.7,3.8c-0.9,1.6-1.8,3.2-2.5,4.9h-4.3c2.4-3.8,4.7-7.5,7.1-11.3c2.4-3.7,4.8-7.5,7.3-11.4L638.2,146.6z"/>
<path class="st0" d="M683,152.7c-1,1.2-2.2,2.1-3.6,2.8c-1.2,0.7-2.5,1-3.9,1.1c-1.1,0-2.2-0.3-3.2-0.8c-0.8-0.5-1.5-1.2-2-1.9h-0.1
	c-0.5,1.9-1.4,3.7-2.4,5.3c-1.2,1.9-2.6,3.7-4.2,5.2c-1.6,1.6-3.5,2.9-5.4,4c-1.9,1-3.9,1.6-6.1,1.6c-1.6,0.1-3.2-0.5-4.3-1.6
	c-1-1.2-1.5-2.8-1.5-4.4c0-1.2,0.3-2.3,0.7-3.4c0.5-1.4,1.2-2.7,2-3.9c0.9-1.4,1.9-2.6,3-3.8c1.2-1.2,2.4-2.4,3.8-3.4
	c1.3-1,2.8-1.8,4.3-2.4c1.5-0.6,3-0.9,4.6-0.9c1.6-0.1,3.1,0.5,4.2,1.6c1,1.1,1.6,2.6,1.6,4.1c0.1,1.1,0.6,2.1,1.4,2.8
	c1,0.9,2.2,1.4,3.5,1.3c1.3,0,2.6-0.3,3.7-1c1.2-0.7,2.3-1.6,3.3-2.6L683,152.7z M649.8,165.4c-0.1,0.9,0.2,1.9,0.7,2.7
	c0.4,0.7,1.2,1.1,2,1c1.2,0,2.5-0.4,3.5-1c1.2-0.7,2.4-1.5,3.4-2.5c1.1-1.1,2.1-2.3,3-3.5c0.9-1.3,1.7-2.7,2.4-4.1
	c0.7-1.3,1.2-2.7,1.6-4.1c0.4-1.2,0.6-2.4,0.6-3.7c0-0.8-0.2-1.7-0.7-2.3c-0.5-0.7-1.3-1.1-2.1-1c-1.1,0-2.1,0.3-3,0.9
	c-1.1,0.7-2.2,1.4-3.2,2.3c-1.1,1-2.2,2.1-3.1,3.4c-1,1.3-1.8,2.6-2.6,4c-0.7,1.3-1.3,2.7-1.8,4.1
	C650.1,162.8,649.8,164.1,649.8,165.4L649.8,165.4z"/>
<path class="st0" d="M690.3,146.6c-1.8,2.6-3.5,4.8-5.1,6.7c-1.5,1.9-2.9,3.6-4,5.1c-1,1.3-1.8,2.7-2.5,4.2
	c-0.6,1.1-0.9,2.4-0.9,3.7c0,1.8,0.8,2.8,2.3,2.8c1.7-0.1,3.3-0.8,4.6-1.9c1.8-1.5,3.5-3.2,5-5.1c1.7-2.1,3.4-4.5,5.2-7.2
	c1.8-2.7,3.5-5.4,5.3-8.2h4.5c-0.8,1.1-1.8,2.4-3.1,4.2c-1.3,1.7-2.5,3.5-3.7,5.4c-1.2,1.8-2.2,3.6-3.2,5.5
	c-0.8,1.4-1.2,2.9-1.3,4.5c0,0.8,0.2,1.5,0.7,2.1c0.5,0.5,1.2,0.8,2,0.8c1.8-0.1,3.6-0.7,5-1.8c1.8-1.3,3.5-2.8,4.9-4.5
	c1.5-1.8,2.8-3.9,3.9-6c1-1.9,1.6-4,1.8-6.1c-0.3-0.4-0.5-0.8-0.6-1.3c-0.1-0.4-0.2-0.8-0.2-1.2c0-1.4,0.7-2.1,2-2.1
	c0.8-0.1,1.6,0.4,1.9,1.2c0.4,0.9,0.5,1.9,0.5,2.9c0,0.6,0,1.1-0.1,1.7c-0.1,0.5-0.2,1.1-0.3,1.6c0.6,0.6,1.3,1.1,2,1.5
	c0.9,0.5,1.9,0.7,2.9,0.7c1.4,0,2.8-0.3,4-1c1.1-0.6,2-1.6,2.6-2.7l0.6,0.4c-1.5,2.7-3.9,4-7.3,4c-0.9,0-1.9-0.2-2.7-0.6
	c-0.8-0.4-1.6-0.9-2.3-1.5c-0.8,2-1.9,3.9-3.2,5.5c-1.4,1.8-3.1,3.5-4.9,5c-1.7,1.4-3.6,2.7-5.6,3.6c-1.7,0.9-3.6,1.3-5.5,1.4
	c-1.3,0-2.6-0.4-3.7-1.2c-1-0.8-1.6-2.1-1.5-3.5c0-0.7,0.1-1.5,0.3-2.2c0.2-0.7,0.4-1.1,0.5-1.4l-0.1-0.1c-0.9,1.1-1.8,2.2-2.7,3.3
	c-0.9,1-1.8,1.9-2.8,2.7c-0.9,0.7-1.8,1.3-2.9,1.8c-0.9,0.4-2,0.7-3,0.7c-1.4,0.1-2.7-0.4-3.8-1.3c-0.9-0.9-1.3-2.2-1.2-3.5
	c0-1.2,0.3-2.3,0.8-3.3c0.6-1.4,1.4-2.7,2.2-4c1-1.5,2.1-3.1,3.5-4.9l4.7-6.2L690.3,146.6z"/>
<path class="st0" d="M760.8,146.6h4.3c-1.6,2.3-3.2,4.5-4.7,6.7c-1.5,2.2-2.8,4.2-4,6c-1.2,1.8-2.1,3.4-2.8,4.8
	c-0.6,1-1,2.1-1.1,3.3c0,1.1,0.6,1.7,1.8,1.7c1.3-0.1,2.5-0.6,3.5-1.4c1.7-1.1,3.2-2.3,4.7-3.7c1.8-1.7,3.5-3.6,5.2-5.5
	c1.8-2.2,3.5-4.4,5-6.7l0.4,0.1c-1.2,1.8-2.6,3.8-4.2,5.8c-1.6,2-3.2,4-5,5.8c-1.6,1.7-3.4,3.2-5.3,4.5c-1.4,1.1-3.2,1.7-5,1.8
	c-1,0.1-2-0.3-2.8-1c-0.6-0.6-0.9-1.4-0.9-2.3c0-0.6,0.1-1.2,0.3-1.8c0.2-0.6,0.4-1.2,0.6-1.8l-0.1-0.1c-0.6,0.6-1.3,1.3-2.1,2.1
	c-0.9,0.8-1.8,1.6-2.8,2.3c-1,0.7-2,1.3-3.1,1.8c-0.9,0.5-2,0.7-3,0.7c-1.3,0.1-2.6-0.4-3.4-1.5c-0.7-1-1-2.2-1-3.4
	c0.1-2.1,0.7-4.2,1.7-6c1.2-2.2,2.6-4.3,4.3-6.1c1.7-1.9,3.6-3.5,5.7-4.8c1.7-1.2,3.8-1.8,5.9-1.9c0.8,0,1.6,0.1,2.3,0.4
	c0.6,0.2,1.2,0.6,1.7,1c0.4,0.4,0.8,0.9,1,1.4c0.2,0.5,0.4,1.1,0.6,1.6h0.1L760.8,146.6z M739.2,165.1c-0.1,0.8,0.2,1.6,0.6,2.3
	c0.4,0.6,1.1,0.9,1.8,0.8c0.9-0.1,1.8-0.3,2.6-0.8c1.1-0.6,2.2-1.4,3.2-2.2c1.2-1,2.3-2.1,3.3-3.2c1.1-1.2,2-2.5,2.9-3.9
	c0.8-1.3,1.5-2.7,2-4.2c0.5-1.3,0.8-2.6,0.8-4c0.1-1.6-1-2.9-2.6-3.1c-0.1,0-0.3,0-0.4,0c-1.6,0.1-3.2,0.7-4.4,1.7
	c-1.7,1.2-3.3,2.7-4.6,4.4c-1.5,1.8-2.7,3.8-3.7,5.9C739.7,160.9,739.2,163,739.2,165.1L739.2,165.1z"/>
<path class="st0" d="M779.1,146.6l-8.7,12.1l0.1,0.1l3.2-3.9c1.2-1.5,2.6-2.9,4-4.2c1.3-1.3,2.8-2.4,4.4-3.3
	c1.4-0.9,2.9-1.3,4.5-1.4c1.1-0.1,2.2,0.3,3.1,1.1c0.7,0.7,1.1,1.8,1.1,2.8c-0.1,0.9-0.3,1.7-0.8,2.5c-0.6,1.1-1.2,2.1-1.9,3.1
	c-0.7,1.1-1.6,2.2-2.4,3.4c-0.9,1.1-1.7,2.2-2.4,3.3c-0.7,1-1.4,2-1.9,2.8c-0.4,0.6-0.7,1.4-0.8,2.1c-0.1,0.9,0.5,1.7,1.4,1.9
	c0.2,0,0.3,0,0.5,0c1.6-0.1,3.2-0.5,4.5-1.4c2.1-1.4,4-3,5.7-4.8c0.9-0.9,1.8-1.8,2.7-2.9c0.9-1.1,1.8-2.1,2.6-3.1
	c0.8-1,1.6-2,2.3-2.9s1.2-1.7,1.6-2.3l0.5,0.3c-0.9,1.3-2,2.9-3.4,4.7c-1.4,1.8-2.9,3.6-4.6,5.4c-1,1.1-2,2.1-3,3
	c-0.9,0.9-1.9,1.8-3,2.5c-0.9,0.7-1.9,1.3-3,1.7c-0.9,0.4-1.9,0.6-2.9,0.6c-1.1,0-2.3-0.3-3.2-1.1c-0.8-0.7-1.3-1.8-1.2-2.9
	c0.1-1.6,0.6-3.1,1.6-4.3c1.1-1.6,2.2-3.1,3.5-4.7s2.4-3.1,3.5-4.6c0.9-1.1,1.5-2.4,1.6-3.8c0-0.5-0.2-0.9-0.5-1.2
	c-0.4-0.3-0.9-0.4-1.4-0.4c-1.3,0.1-2.6,0.5-3.7,1.2c-1.5,0.9-2.9,2-4.2,3.2c-1.5,1.4-2.9,2.9-4.3,4.5c-1.4,1.6-2.8,3.3-4,4.9
	s-2.3,3.2-3.3,4.8c-0.8,1.2-1.5,2.5-2.2,3.8h-4.1c1.1-1.9,2.4-3.9,3.7-5.9l3.9-5.9c1.3-2,2.5-3.9,3.7-5.7c1.2-1.8,2.2-3.5,3.1-5
	L779.1,146.6z"/>
<path class="st0" d="M838.5,123.7c-1.7,2.7-3.6,5.6-5.6,8.6s-4,6-6.1,9c-2,3-3.9,5.9-5.8,8.7s-3.6,5.4-5,7.7c-1.5,2.3-2.6,4.3-3.5,6
	c-0.7,1.1-1.1,2.4-1.3,3.7c0,0.4,0.1,0.8,0.4,1.2c0.3,0.3,0.7,0.5,1.1,0.4c1.4-0.1,2.7-0.5,3.8-1.3c1.8-1.2,3.5-2.6,5.1-4.2
	c1.8-1.7,3.5-3.6,5-5.6c1.5-1.9,2.9-3.9,4.2-6l0.5,0.3c-0.4,0.7-0.9,1.5-1.5,2.5c-0.6,0.9-1.3,1.9-2.1,2.9c-0.8,1-1.6,2-2.5,3.1
	c-0.9,1-1.8,2-2.7,2.9c-1.6,1.7-3.3,3.1-5.2,4.4c-1.4,1-3,1.7-4.8,1.8c-1.1,0.1-2.2-0.2-3.1-0.9c-0.7-0.6-1-1.4-1-2.3
	c0-0.8,0.2-1.7,0.5-2.4c0.4-0.8,0.7-1.5,1.1-2.1l-0.1-0.1c-0.7,0.8-1.5,1.6-2.3,2.5c-0.9,0.9-1.8,1.8-2.7,2.5
	c-0.9,0.8-2,1.4-3.1,1.9c-1,0.5-2.2,0.8-3.3,0.8c-1.4,0.1-2.7-0.4-3.7-1.4c-0.8-0.9-1.3-2.2-1.3-3.4c0.1-2.2,0.8-4.3,1.9-6.1
	c1.3-2.3,2.9-4.3,4.8-6.1c1.8-1.8,3.9-3.4,6.2-4.8c1.8-1.2,4-1.8,6.1-1.9c1.3-0.1,2.5,0.4,3.4,1.3c0.8,0.9,1.3,2.1,1.2,3.4h0.2
	l17-27.1L838.5,123.7z M815.1,150.9c0-1-0.2-1.9-0.5-2.8c-0.4-0.8-1.2-1.2-2.4-1.2c-1,0-2.1,0.4-2.9,0.9c-1.2,0.7-2.3,1.5-3.3,2.4
	c-1.2,1.1-2.2,2.2-3.2,3.5c-1,1.3-1.9,2.6-2.7,4c-0.7,1.3-1.4,2.6-1.9,3.9c-0.4,1.1-0.7,2.3-0.7,3.4c0,0.8,0.2,1.6,0.5,2.3
	c0.4,0.6,1.1,1,1.9,0.9c1-0.1,1.9-0.4,2.7-0.9c1.2-0.7,2.3-1.5,3.3-2.4c1.2-1.1,2.3-2.2,3.4-3.4c1.1-1.2,2.1-2.5,3-3.8
	c0.8-1.2,1.5-2.4,2.1-3.7C814.8,153.1,815,152,815.1,150.9L815.1,150.9z"/>
<path class="st0" d="M870,117c-1.9,1.7-3,4.1-3.1,6.6c0,0.9,0.1,1.8,0.4,2.7c0.2,0.8,0.6,1.5,1,2.1c2.9-1.8,6-3.2,9.2-4.3
	c3.2-1.1,6.6-1.7,10-1.7c0.8,0,1.7,0.1,2.5,0.2c0.8,0.1,1.6,0.3,2.3,0.7c0.7,0.3,1.3,0.8,1.8,1.4c0.5,0.7,0.7,1.5,0.7,2.3
	c0,1.3-0.4,2.6-1.2,3.7c-0.9,1-2,1.9-3.2,2.4c-1.4,0.6-2.9,1.1-4.4,1.3c-1.6,0.3-3.2,0.4-4.8,0.4c-2.1,0-4.3-0.3-6.3-0.9
	c-2.2-0.6-4.2-1.8-5.8-3.4c-1.4,1-2.8,2.2-3.9,3.5c-1.4,1.5-2.6,3.1-3.7,4.8c-1.1,1.7-2,3.4-2.8,5.3c-0.7,1.6-1,3.3-1.1,5
	c0,0.9,0.1,1.7,0.2,2.6c0.1,0.8,0.4,1.5,0.9,2.1c0.4,0.6,1,1.1,1.7,1.4c0.8,0.4,1.7,0.6,2.6,0.5c1.3,0,2.6-0.3,3.8-0.7
	c2.3-0.9,4.5-2.2,6.4-3.8c0.6-0.5,1.1-1.1,1.5-1.7l1.2-2.6c0.3-0.7,0.8-1.4,1.3-2.1c1-1.3,2.6-2,4.3-1.9c0.3,0,0.5,0.1,0.8,0.2
	c0.3,0.2,0.4,0.5,0.4,0.8c-0.2,0.9-0.7,1.6-1.3,2.2c-0.9,1-1.8,2.1-2.7,3.3c-1.3,2.4-2.9,4.9-4.7,7.4c-1.7,2.5-3.7,4.7-5.8,6.8
	c-2.1,2-4.6,3.6-7.2,4.9c-2.7,1.3-5.7,2-8.7,2c-1.4,0-2.8-0.2-4.2-0.6c-1.2-0.4-2.4-1-3.4-1.8c-1-0.7-1.7-1.7-2.3-2.8
	c-0.6-1.1-0.8-2.3-0.8-3.5c0-1.1,0.3-2.1,0.8-3c0.6-0.9,1.6-1.4,2.7-1.3c1.3,0,2.3,1,2.3,2.3c0,0.6-0.2,1.3-0.6,1.7
	c-0.4,0.4-1.1,0.7-1.7,0.6h-0.6c-0.2,0-0.4-0.1-0.6-0.2c-0.1,0.3-0.1,0.6-0.1,0.9v0.7c0,0.9,0.2,1.8,0.7,2.6c0.5,0.8,1.1,1.5,1.9,2
	c0.8,0.6,1.8,1,2.7,1.2c1.1,0.3,2.2,0.4,3.3,0.4c2.3,0,4.6-0.6,6.6-1.7c2-1.2,3.9-2.6,5.5-4.3c1.7-1.7,3.2-3.6,4.6-5.6
	c1.4-2,2.6-3.9,3.7-5.6l-0.1-0.1c-1.6,1.3-3.3,2.4-5.2,3.2c-1.9,0.9-4,1.3-6.1,1.3c-2.2,0.1-4.3-0.7-5.8-2.2
	c-1.5-1.6-2.3-3.7-2.1-5.9c0-2,0.5-4,1.4-5.8c1-2,2.2-3.8,3.6-5.5c1.4-1.7,3-3.4,4.7-4.8c1.5-1.3,3.1-2.5,4.8-3.7
	c-1.1-1.5-1.7-3.3-1.7-5.2c0-1.4,0.3-2.8,1-4c0.6-1.2,1.5-2.2,2.5-3.1L870,117z M892.2,126.4c0-0.7-0.2-1.3-0.6-1.8
	c-0.4-0.4-0.9-0.8-1.5-1c-0.6-0.2-1.2-0.4-1.9-0.4c-0.7,0-1.3-0.1-1.9-0.1c-1.5,0-3,0.2-4.5,0.6c-3.1,0.8-6,2-8.7,3.7
	c-1.3,0.8-2.5,1.6-3.7,2.5c1.3,1.4,2.9,2.4,4.7,3c2.3,0.7,4.6,1.1,7,1.1c1.4,0,2.8-0.2,4.1-0.5c1.2-0.3,2.4-0.8,3.5-1.4
	c1-0.6,1.8-1.4,2.5-2.4C891.9,128.7,892.2,127.5,892.2,126.4L892.2,126.4z"/>
<path class="st0" d="M910,123.4c-3.9,5.9-7.3,11.1-10.2,15.4l-7.5,11.2c-2.1,3.1-3.8,5.6-5.1,7.6c-1.3,2-2.4,3.6-3.1,4.9
	c-0.6,1-1.1,2-1.5,3c-0.3,0.6-0.4,1.3-0.4,1.9c0,1.1,0.5,1.6,1.5,1.6c1.4-0.1,2.7-0.6,3.9-1.4c1.7-1.1,3.3-2.3,4.8-3.7
	c1.8-1.7,3.6-3.5,5.2-5.5c1.8-2.1,3.5-4.3,5.1-6.7l0.7,0.3c-1.6,2.2-3.3,4.4-5,6.5c-1.6,1.9-3.3,3.7-5.1,5.4
	c-1.7,1.7-3.6,3.1-5.6,4.4c-1.3,0.8-2.7,1.3-4.2,1.4c-1.1,0.1-2.1-0.2-2.9-0.9c-0.6-0.7-0.9-1.5-0.9-2.4c0-1,0.2-1.9,0.5-2.9
	c0.4-1.2,1-2.4,1.7-3.6c0.8-1.4,1.8-3.1,3.1-5s2.9-4.4,4.8-7.3c1.9-2.9,4.2-6.3,6.8-10.3c2.6-4,5.6-8.6,9-14L910,123.4z"/>
<path class="st0" d="M932.1,152.7c-1,1.2-2.2,2.1-3.6,2.8c-1.2,0.7-2.5,1-3.9,1.1c-1.1,0-2.2-0.3-3.2-0.8c-0.8-0.5-1.5-1.2-2-1.9
	h-0.1c-0.5,1.9-1.4,3.7-2.4,5.3c-1.2,1.9-2.6,3.7-4.2,5.2c-1.6,1.6-3.5,2.9-5.4,4c-1.9,1-3.9,1.6-6.1,1.6c-1.6,0.1-3.2-0.5-4.3-1.6
	c-1-1.2-1.5-2.8-1.5-4.4c0-1.2,0.3-2.3,0.7-3.4c0.5-1.4,1.2-2.7,2-3.9c0.9-1.4,1.9-2.6,3-3.8c1.2-1.2,2.4-2.4,3.8-3.4
	c1.3-1,2.8-1.8,4.3-2.4c1.5-0.6,3-0.9,4.6-0.9c1.6-0.1,3.1,0.5,4.2,1.6c1,1.1,1.6,2.6,1.6,4.1c0.1,1.1,0.6,2.1,1.4,2.8
	c1,0.9,2.2,1.4,3.5,1.3c1.3,0,2.6-0.3,3.7-1c1.2-0.7,2.3-1.6,3.3-2.6L932.1,152.7z M898.9,165.4c-0.1,0.9,0.2,1.9,0.7,2.7
	c0.4,0.7,1.2,1.1,2,1c1.2,0,2.5-0.4,3.5-1c1.2-0.7,2.4-1.5,3.4-2.5c1.1-1.1,2.1-2.3,3-3.5c0.9-1.3,1.7-2.7,2.4-4.1
	c0.7-1.3,1.2-2.7,1.6-4.1c0.4-1.2,0.6-2.4,0.6-3.7c0-0.8-0.2-1.7-0.7-2.3c-0.5-0.7-1.3-1.1-2.1-1c-1.1,0-2.1,0.3-3,0.9
	c-1.1,0.7-2.2,1.4-3.2,2.3c-1.1,1-2.2,2.1-3.1,3.4c-1,1.3-1.8,2.6-2.6,4c-0.7,1.3-1.3,2.7-1.8,4.1
	C899.2,162.8,898.9,164.1,898.9,165.4z"/>
<path class="st0" d="M939.4,146.6c-1.8,2.6-3.5,4.8-5.1,6.7c-1.5,1.9-2.9,3.6-4,5.1c-1,1.3-1.8,2.7-2.5,4.2
	c-0.6,1.1-0.9,2.4-0.9,3.7c0,1.8,0.8,2.8,2.3,2.8c1.7-0.1,3.3-0.8,4.6-1.9c1.8-1.5,3.5-3.2,5-5.1c1.7-2.1,3.4-4.5,5.2-7.2
	s3.6-5.4,5.3-8.2h4.5c-0.8,1.1-1.8,2.4-3.1,4.2c-1.3,1.7-2.5,3.5-3.7,5.4c-1.2,1.8-2.2,3.6-3.2,5.5c-0.8,1.4-1.2,2.9-1.3,4.5
	c0,0.8,0.2,1.5,0.7,2.1c0.5,0.5,1.2,0.8,2,0.8c1.8-0.1,3.6-0.7,5-1.8c1.8-1.3,3.5-2.8,4.9-4.5c1.5-1.8,2.8-3.9,3.9-6
	c1-1.9,1.6-4,1.8-6.1c-0.3-0.4-0.5-0.8-0.6-1.3c-0.1-0.4-0.2-0.8-0.2-1.2c0-1.4,0.7-2.1,2-2.1c0.8-0.1,1.6,0.4,1.9,1.2
	c0.4,0.9,0.5,1.9,0.5,2.9c0,0.6,0,1.1-0.1,1.7c-0.1,0.5-0.2,1.1-0.3,1.6c0.6,0.6,1.3,1.1,2,1.5c0.9,0.5,1.9,0.7,2.9,0.7
	c1.4,0,2.8-0.3,4-1c1.1-0.6,2-1.6,2.6-2.7l0.6,0.4c-1.5,2.7-3.9,4-7.3,4c-0.9,0-1.9-0.2-2.7-0.6c-0.8-0.4-1.6-0.9-2.3-1.5
	c-0.8,2-1.9,3.9-3.2,5.5c-1.4,1.8-3.1,3.5-4.9,5c-1.7,1.4-3.6,2.7-5.6,3.6c-1.7,0.9-3.6,1.3-5.5,1.4c-1.3,0-2.6-0.4-3.7-1.2
	c-1-0.8-1.6-2.1-1.5-3.5c0-0.7,0.1-1.5,0.3-2.2c0.2-0.7,0.4-1.1,0.5-1.4l-0.1-0.1c-0.9,1.1-1.8,2.2-2.7,3.3c-0.9,1-1.8,1.9-2.8,2.7
	c-0.9,0.7-1.8,1.3-2.9,1.8c-0.9,0.4-2,0.7-3,0.7c-1.4,0.1-2.7-0.4-3.8-1.3c-0.9-0.9-1.3-2.2-1.2-3.5c0-1.2,0.3-2.3,0.8-3.3
	c0.6-1.4,1.4-2.7,2.2-4c1-1.5,2.1-3.1,3.5-4.9l4.7-6.2L939.4,146.6z"/>
<path class="st1" d="M203,19c4.9-0.1,9.8,0.2,14.7,1c3.1,0.6,5.9,1.9,8.3,3.9c2,1.5,3.6,3.5,4.7,5.7c1.1,2.2,1.6,4.7,1.5,7.2
	c0,0.8,0,1.7-0.1,2.5c-0.1,0.9-0.3,1.8-0.5,2.7c-1,4.3-3.2,8.2-6.2,11.3c-3.4,3.3-7.6,5.7-12.1,7c3.9,1,7.4,3.3,9.9,6.4
	c2.2,3,3.4,6.6,3.2,10.3c0,0.9-0.1,1.9-0.2,2.8c-0.1,1-0.3,2.1-0.6,3.1c-1.1,4.4-3.2,8.5-6,12.1c-2.9,3.6-6.5,6.7-10.6,8.9
	c-0.1,0.1-0.2,0.2-0.3,0.2c-0.1,0-0.2,0.1-0.3,0.2c-3.5,1.8-7.2,3-11,3.6c-5.4,0.8-10.8,1.1-16.3,1h-39.3L165,19H203z M159.1,97.5
	h25.5c5.5-0.1,11-1.1,16.2-3c5.1-1.8,8.4-5.8,9.9-11.8c0.2-0.8,0.3-1.6,0.4-2.3c0.1-0.7,0.2-1.3,0.2-2c-0.1-4.4-2.1-7.2-6-8.6
	c-4.4-1.5-9-2.2-13.7-2.1h-24.8L159.1,97.5z M169.8,56.3h24.3c6.6,0,11.6-1,15.2-3c3.6-2.1,6.1-5.5,7-9.5c0.2-0.8,0.3-1.6,0.4-2.3
	c0.1-0.7,0.2-1.3,0.2-2c0.2-3-1.5-5.7-4.1-7c-2.8-1.4-7.1-2.1-13.1-2.1h-23.1L169.8,56.3z"/>
<path class="st1" d="M269.4,19l-23.2,89.9h-13.1L256.3,19H269.4z"/>
<path class="st1" d="M294.7,43.1l-10.9,41.7c-0.3,1.4-0.6,2.7-0.8,3.9c-0.2,1.1-0.3,2.2-0.3,3.3c0,3,0.9,5.1,2.8,6.3
	c1.8,1.3,4.8,1.9,8.8,1.9c3.2,0,6.4-0.6,9.3-1.8c3-1.2,5.7-3,8.1-5.2l0.2-0.2c1.8-1.6,3.3-3.5,4.5-5.7c1.3-2.7,2.4-5.5,3.1-8.4
	c0.1-0.3,0.2-0.7,0.3-1.1s0.2-0.8,0.3-1.2l8.8-33.5H342l-17,65.7h-12.1l2.6-10.1c-3.3,3.9-7.4,7-12.1,9c-4.7,1.9-9.8,2.9-14.9,2.8
	c-7.1,0-12.1-1.3-15-4c-2.9-2.7-4.3-6.3-4.3-10.9c0-1.6,0.1-3.2,0.4-4.8c0.3-1.8,0.6-3.5,1.1-5.2l11-42.5L294.7,43.1z"/>
<path class="st1" d="M360.4,79.6c-0.2,1.1-0.3,2.1-0.4,3.2c-0.1,1-0.2,2-0.2,3c0,4.8,1.4,8.4,4.2,10.8c2.8,2.5,6.9,3.7,12.5,3.7
	c4.6,0.1,9.2-1,13.2-3.3c3.9-2.3,7-5.7,9.1-9.8h13.6c-3.5,7.1-9,13-15.8,17c-7,4.1-15.1,6.3-23.2,6.2c-8.7,0-15.4-2.1-20.1-6.2
	s-7-9.9-6.9-17.4c0-1.7,0.1-3.5,0.4-5.2c0.3-1.9,0.6-3.9,1.1-5.8c2.8-10.5,8.2-18.9,16.1-25.2s17.4-9.4,28.2-9.4
	c9.2,0,15.9,2.1,20,6.2c4.1,4.1,6.2,9.4,6.2,16c0,1.7-0.1,3.4-0.4,5.1c-0.3,1.9-0.6,3.7-1.1,5.5v0.4c-0.2,0.6-0.4,1.2-0.5,2
	c-0.2,0.8-0.5,1.8-0.9,3H360.4z M405.1,67.2c0-0.7,0.1-1.3,0.1-2c0-4.3-1.4-7.6-4.2-9.9c-2.8-2.3-6.7-3.5-11.8-3.6
	c-5.5-0.2-10.9,1.4-15.4,4.4c-4.3,3-7.6,7.4-10.1,13.2h41.2C404.9,68.7,405,68,405.1,67.2z"/>
<path class="st2" d="M447.4,108.8h-26L443.9,22h41.3c4.4-0.1,8.7,0.3,13,1.2c3,0.8,5.8,2.2,8.1,4.2c2.3,2,4.2,4.6,5.3,7.5
	c1.3,3.2,1.9,6.6,1.9,10c0,0.8,0,1.6-0.1,2.5c-0.1,0.9-0.2,1.8-0.4,2.7l-0.3,1.3l-0.3,1.3c-2.1,8.7-7.2,16.4-14.4,21.7
	c-7.1,5.3-15.8,7.9-26.2,7.9h-17.5L447.4,108.8z M459.5,62h13.3c3,0.1,6.1-0.7,8.6-2.4c2.3-1.7,4-4.3,4.6-7.1
	c0.2-0.7,0.3-1.3,0.4-1.9c0.1-0.5,0.1-1,0.1-1.5c0.1-1.7-0.7-3.4-2.1-4.4c-1.4-0.9-3.5-1.4-6.4-1.4h-13.7L459.5,62z"/>
<path class="st2" d="M531.4,108.8h-23.7L530.2,22h23.7L531.4,108.8z"/>
<path class="st2" d="M584.8,103.4l-1.8,1.6c-2.5,2-5.3,3.5-8.4,4.4c-3.3,0.9-6.8,1.4-10.2,1.3c-5.7,0-10.2-1.2-13.3-3.5
	c-3.1-2.3-4.9-6-4.7-9.9c0.1-0.8,0.2-1.6,0.3-2.5c0.1-0.9,0.3-1.8,0.5-2.7c1.6-5.8,4.6-10,9.2-12.7c4.6-2.6,9.5-4.5,14.7-5.7
	c1.8-0.4,3.6-0.8,5.3-1.2s3.4-0.7,5.1-0.9c3.2-0.6,6.4-1.4,9.6-2.4c2.7-0.9,4.2-2.3,4.8-4.2c0-0.1,0-0.3,0.1-0.4
	c0.1-0.1,0.1-0.3,0.1-0.4c0.1-0.1,0.1-0.2,0.1-0.3v-0.3c0-1.2-0.6-2.2-1.6-2.8c-1.5-0.7-3.1-1.1-4.8-1c-2.5-0.1-5,0.5-7.3,1.6
	c-1.8,1-3.1,2.7-3.6,4.7c-0.1,0.2-0.1,0.4-0.1,0.6v0.7h-22.4c2.5-8,6.7-13.8,12.4-17.5c5.8-3.6,13.8-5.5,24-5.5c7.7,0,14.1,1,19.1,3
	s7.5,6.3,7.5,13c0,1.3-0.1,2.7-0.3,4c-0.3,1.6-0.6,3.1-1,4.6l-7,27.1c-0.3,1.4-0.6,2.7-0.8,3.8c-0.2,1.1-0.3,2.1-0.3,3.2
	c0,1.1,0.2,2.2,0.5,3.2c0.4,1,1,1.9,1.8,2.5h-25.6c-0.1-0.6-0.2-1.3-0.3-2c-0.1-0.8-0.1-1.5-0.1-2.3c0-0.5,0-1,0.1-1.5
	c0-0.5,0.1-0.9,0.2-1.4C586,102.3,585.4,102.8,584.8,103.4z M588.4,81.6c-1.4,0.6-2.8,1.1-4.3,1.5c-0.8,0.3-1.5,0.5-2.3,0.7
	c-0.7,0.2-1.5,0.4-2.3,0.6c-2.2,0.6-4.4,1.4-6.4,2.3c-1.7,0.7-3,2.2-3.5,4c-0.1,0.2-0.1,0.5-0.1,0.7V92c0,1.2,0.5,2.3,1.6,3
	c1.3,0.8,2.9,1.2,4.4,1.1c5.3,0,9.1-1.7,11.5-5.1c2.4-3.5,4.2-7.4,5.3-11.6C591.1,80.3,589.8,81,588.4,81.6L588.4,81.6z"/>
<path class="st2" d="M658.2,55.3c1.4-1.4,2.7-2.6,4-3.8c1.2-1.1,2.4-2,3.7-2.9c2.2-1.5,4.6-2.6,7.1-3.3c2.6-0.7,5.3-1,7.9-1
	c5.8,0,10.2,1.4,13.3,4.1c3,2.7,4.6,6.6,4.6,11.7c0,1.3-0.1,2.6-0.3,3.8c-0.2,1.4-0.5,2.8-0.9,4.2l-10.5,40.6h-23.7l9.3-35.8
	c0.2-0.7,0.3-1.3,0.4-1.9c0.1-0.5,0.1-1.1,0.1-1.6c0.1-1.5-0.5-3-1.6-4c-1.3-1-3-1.4-4.6-1.3c-3.1-0.1-6.1,1.1-8.3,3.3
	c-2.3,2.2-4,5.3-5.1,9.5l-8.2,31.9h-23.5L638,46.3h22.1L658.2,55.3z"/>
<path class="st2" d="M724.8,108.8h-23.7L723.7,22h23.7l-11.2,42.8l20-18.5h28.1l-29.4,24.3l15.6,38.2h-28.2L735,87.1l-5.9,5.1
	L724.8,108.8z"/>
<path class="st2" d="M816.8,46.3h11.3l-3.7,14.1h-11.3l-6,23.2c-0.1,0.6-0.2,1.2-0.3,1.8c-0.1,0.5-0.2,1-0.2,1.6
	c0,1.2,0.5,2.3,1.3,3c1.1,0.7,2.4,1.1,3.7,1h0.8c0.6,0,1.2,0,1.8-0.1c0.6-0.1,1.4-0.2,2.5-0.4l-4.6,18c-2.5,0.3-4.6,0.6-6.2,0.8
	c-1.6,0.2-3.2,0.3-4.7,0.4c-0.7,0.1-1.4,0.1-2.1,0.1h-2.2c-6.2,0-10.4-0.9-12.7-2.7c-2.3-1.8-3.4-4.4-3.5-7.9c0-2.1,0.3-4.2,0.7-6.2
	c0.5-2.3,1.1-4.9,1.8-7.6l6.4-25h-8.7l3.7-14.1h8.7l5.2-20H822L816.8,46.3z"/>
<path class="st2" d="M881.3,101.4c-7.9,6.1-17.5,9.3-27.5,9.2c-8.5,0-15.2-2.2-20-6.6c-4.9-4.4-7.3-10.2-7.3-17.5
	c0-1.5,0.1-3,0.3-4.4c0.2-1.5,0.5-3,0.8-4.6c2.4-9.6,8-18,16-23.9c7.8-6.1,17.4-9.4,27.3-9.3c8.5,0,15.2,2.2,20,6.6
	s7.3,10.2,7.3,17.5c0,1.5-0.1,3-0.3,4.4c-0.2,1.6-0.5,3.2-0.9,4.7C894.9,87.1,889.2,95.6,881.3,101.4z M850.7,82
	c-0.2,1.2-0.3,2.5-0.3,3.8c0,2.9,0.7,5,2,6.4c1.3,1.4,3.3,2.1,5.9,2.1c3.6,0,7-1.5,9.3-4.2c2.6-2.8,4.5-6.9,5.9-12.5
	c0.4-1.5,0.7-3,0.9-4.5c0.2-1.2,0.3-2.5,0.3-3.7c0-2.9-0.7-5-2-6.4c-1.3-1.4-3.3-2.1-5.9-2.1c-3.5,0-6.9,1.4-9.2,4.1
	c-2.5,2.7-4.5,6.9-6,12.6C851.2,79.2,850.9,80.7,850.7,82z"/>
<path class="st2" d="M936.7,55.3c1.4-1.4,2.7-2.6,4-3.8c1.2-1.1,2.4-2,3.7-2.9c2.2-1.5,4.6-2.6,7.2-3.3c2.6-0.7,5.3-1,7.9-1
	c5.8,0,10.2,1.4,13.3,4.1c3,2.7,4.6,6.6,4.6,11.7c0,1.3-0.1,2.6-0.3,3.9c-0.2,1.4-0.5,2.8-0.9,4.2l-10.5,40.6h-23.7l9.3-35.9
	c0.2-0.7,0.3-1.3,0.4-1.9c0.1-0.5,0.1-1.1,0.1-1.6c0.1-1.5-0.5-3-1.6-4c-1.3-1-2.9-1.5-4.6-1.4c-3.1-0.1-6.1,1.1-8.3,3.3
	c-2.3,2.2-4,5.3-5.1,9.5l-8.2,31.9h-23.6l16.1-62.5h22.1L936.7,55.3z"/>
<g>
	<defs>
		<path id="SVGID_1_" d="M61.3,123.4c-34-0.3-61.3-28.1-61-62.1S28.4,0,62.3,0.3s61.3,28.1,61,62.1c0,0,0,0,0,0
			C123,96.3,95.3,123.6,61.3,123.4z M62.3,9.8C33.6,9.6,10.1,32.7,9.8,61.4c-0.3,28.7,22.8,52.2,51.5,52.5
			c28.7,0.3,52.2-22.8,52.5-51.5c0,0,0,0,0,0C114.1,33.6,91,10.1,62.3,9.8L62.3,9.8z"/>
	</defs>
	<clipPath id="SVGID_2_">
		<use xlink:href="#SVGID_1_"  style="overflow:visible;"/>
	</clipPath>
	<g class="st3">
		<polygon class="st4" points="10,9.6 9.6,59.1 9.6,9.6 		"/>
		<polygon class="st4" points="10.5,9.6 9.6,114.1 9.6,114.1 9.6,59.1 10,9.6 		"/>
		<polygon class="st4" points="11,9.6 10.1,114.1 9.6,114.1 10.5,9.6 		"/>
		<polygon class="st4" points="11.5,9.6 10.6,114.1 10.1,114.1 11,9.6 		"/>
		<polygon class="st4" points="11.9,9.6 11,114.1 10.6,114.1 11.5,9.6 		"/>
		<polygon class="st4" points="12.4,9.6 11.5,114.1 11,114.1 11.9,9.6 		"/>
		<polygon class="st4" points="12.9,9.6 12,114.1 11.5,114.1 12.4,9.6 		"/>
		<polygon class="st4" points="13.4,9.6 12.5,114.1 12,114.1 12.9,9.6 		"/>
		<polygon class="st4" points="13.8,9.6 12.9,114.1 12.5,114.1 13.4,9.6 		"/>
		<polygon class="st4" points="14.3,9.6 13.4,114.1 12.9,114.1 13.8,9.6 		"/>
		<polygon class="st4" points="14.8,9.6 13.9,114.1 13.4,114.1 14.3,9.6 		"/>
		<polygon class="st4" points="15.3,9.6 14.4,114.1 13.9,114.1 14.8,9.6 		"/>
		<polygon class="st4" points="15.7,9.6 14.9,114.1 14.4,114.1 15.3,9.6 		"/>
		<polygon class="st4" points="16.2,9.6 15.3,114.1 14.9,114.1 15.7,9.6 		"/>
		<polygon class="st4" points="16.7,9.6 15.8,114.1 15.3,114.1 16.2,9.6 		"/>
		<polygon class="st4" points="17.2,9.6 16.3,114.1 15.8,114.1 16.7,9.6 		"/>
		<polygon class="st4" points="17.6,9.6 16.8,114.1 16.3,114.1 17.2,9.6 		"/>
		<polygon class="st4" points="18.1,9.6 17.2,114.1 16.8,114.1 17.6,9.6 		"/>
		<polygon class="st4" points="18.6,9.6 17.7,114.1 17.2,114.1 18.1,9.6 		"/>
		<polygon class="st4" points="19.1,9.6 18.2,114.1 17.7,114.1 18.6,9.6 		"/>
		<polygon class="st4" points="19.5,9.6 18.7,114.1 18.2,114.1 19.1,9.6 		"/>
		<polygon class="st4" points="20,9.6 19.1,114.1 18.7,114.1 19.5,9.6 		"/>
		<polygon class="st4" points="20.5,9.6 19.6,114.1 19.1,114.1 20,9.6 		"/>
		<polygon class="st5" points="21,9.6 20.1,114.1 19.6,114.1 20.5,9.6 		"/>
		<polygon class="st5" points="21.5,9.6 20.6,114.1 20.1,114.1 21,9.6 		"/>
		<polygon class="st5" points="21.9,9.6 21,114.1 20.6,114.1 21.5,9.6 		"/>
		<polygon class="st5" points="22.4,9.6 21.5,114.1 21,114.1 21.9,9.6 		"/>
		<polygon class="st5" points="22.9,9.6 22,114.1 21.5,114.1 22.4,9.6 		"/>
		<polygon class="st5" points="23.4,9.6 22.5,114.1 22,114.1 22.9,9.6 		"/>
		<polygon class="st5" points="23.8,9.6 23,114.1 22.5,114.1 23.4,9.6 		"/>
		<polygon class="st5" points="24.3,9.6 23.4,114.1 23,114.1 23.8,9.6 		"/>
		<polygon class="st5" points="24.8,9.6 23.9,114.1 23.4,114.1 24.3,9.6 		"/>
		<polygon class="st5" points="25.3,9.6 24.4,114.1 23.9,114.1 24.8,9.6 		"/>
		<polygon class="st5" points="25.8,9.6 24.9,114.1 24.4,114.1 25.3,9.6 		"/>
		<polygon class="st5" points="26.2,9.6 25.3,114.1 24.9,114.1 25.8,9.6 		"/>
		<polygon class="st5" points="26.7,9.6 25.8,114.1 25.3,114.1 26.2,9.6 		"/>
		<polygon class="st5" points="27.2,9.6 26.3,114.1 25.8,114.1 26.7,9.6 		"/>
		<polygon class="st5" points="27.6,9.6 26.8,114.1 26.3,114.1 27.2,9.6 		"/>
		<polygon class="st5" points="28.1,9.6 27.2,114.1 26.8,114.1 27.6,9.6 		"/>
		<polygon class="st5" points="28.6,9.6 27.7,114.1 27.2,114.1 28.1,9.6 		"/>
		<polygon class="st5" points="29.1,9.6 28.2,114.1 27.7,114.1 28.6,9.6 		"/>
		<polygon class="st5" points="29.6,9.6 28.7,114.1 28.2,114.1 29.1,9.6 		"/>
		<polygon class="st5" points="30,9.6 29.1,114.1 28.7,114.1 29.6,9.6 		"/>
		<polygon class="st6" points="30.5,9.6 29.6,114.1 29.1,114.1 30,9.6 		"/>
		<polygon class="st6" points="31,9.6 30.1,114.1 29.6,114.1 30.5,9.6 		"/>
		<polygon class="st6" points="31.5,9.6 30.6,114.1 30.1,114.1 31,9.6 		"/>
		<polygon class="st6" points="31.9,9.6 31,114.1 30.6,114.1 31.5,9.6 		"/>
		<polygon class="st6" points="32.4,9.6 31.5,114.1 31,114.1 31.9,9.6 		"/>
		<polygon class="st6" points="32.9,9.6 32,114.1 31.5,114.1 32.4,9.6 		"/>
		<polygon class="st6" points="33.4,9.6 32.5,114.1 32,114.1 32.9,9.6 		"/>
		<polygon class="st6" points="33.8,9.6 33,114.1 32.5,114.1 33.4,9.6 		"/>
		<polygon class="st6" points="34.3,9.6 33.4,114.1 33,114.1 33.8,9.6 		"/>
		<polygon class="st6" points="34.8,9.6 33.9,114.1 33.4,114.1 34.3,9.6 		"/>
		<polygon class="st6" points="35.3,9.6 34.4,114.1 33.9,114.1 34.8,9.6 		"/>
		<polygon class="st6" points="35.8,9.6 34.8,114.1 34.4,114.1 35.3,9.6 		"/>
		<polygon class="st6" points="36.2,9.6 35.3,114.1 34.8,114.1 35.8,9.6 		"/>
		<polygon class="st6" points="36.7,9.6 35.8,114.1 35.3,114.1 36.2,9.6 		"/>
		<polygon class="st6" points="37.2,9.6 36.3,114.1 35.8,114.1 36.7,9.6 		"/>
		<polygon class="st7" points="37.7,9.6 36.8,114.1 36.3,114.1 37.2,9.6 		"/>
		<polygon class="st7" points="38.1,9.6 37.2,114.1 36.8,114.1 37.7,9.6 		"/>
		<polygon class="st7" points="38.6,9.6 37.7,114.1 37.2,114.1 38.1,9.6 		"/>
		<polygon class="st7" points="39.1,9.6 38.2,114.1 37.7,114.1 38.6,9.6 		"/>
		<polygon class="st8" points="39.6,9.6 38.7,114.1 38.2,114.1 39.1,9.6 		"/>
		<polygon class="st8" points="40,9.6 39.1,114.1 38.7,114.1 39.6,9.6 		"/>
		<polygon class="st8" points="40.5,9.6 39.6,114.1 39.1,114.1 40,9.6 		"/>
		<polygon class="st8" points="41,9.6 40.1,114.1 39.6,114.1 40.5,9.6 		"/>
		<polygon class="st8" points="41.5,9.6 40.6,114.1 40.1,114.1 41,9.6 		"/>
		<polygon class="st9" points="41.9,9.6 41,114.1 40.6,114.1 41.5,9.6 		"/>
		<polygon class="st9" points="42.4,9.6 41.5,114.1 41,114.1 41.9,9.6 		"/>
		<polygon class="st9" points="42.9,9.6 42,114.1 41.5,114.1 42.4,9.6 		"/>
		<polygon class="st9" points="43.4,9.6 42.5,114.1 42,114.1 42.9,9.6 		"/>
		<polygon class="st9" points="43.8,9.6 43,114.1 42.5,114.1 43.4,9.6 		"/>
		<polygon class="st9" points="44.3,9.6 43.4,114.1 43,114.1 43.8,9.6 		"/>
		<polygon class="st10" points="44.8,9.6 43.9,114.1 43.4,114.1 44.3,9.6 		"/>
		<polygon class="st10" points="45.3,9.6 44.4,114.1 43.9,114.1 44.8,9.6 		"/>
		<polygon class="st10" points="45.8,9.6 44.9,114.1 44.4,114.1 45.3,9.6 		"/>
		<polygon class="st11" points="46.2,9.6 45.3,114.1 44.9,114.1 45.8,9.6 		"/>
		<polygon class="st12" points="46.7,9.6 45.8,114.1 45.3,114.1 46.2,9.6 		"/>
		<polygon class="st12" points="47.2,9.6 46.3,114.1 45.8,114.1 46.7,9.6 		"/>
		<polygon class="st13" points="47.7,9.6 46.8,114.1 46.3,114.1 47.2,9.6 		"/>
		<polygon class="st13" points="48.1,9.6 47.2,114.1 46.8,114.1 47.7,9.6 		"/>
		<polygon class="st13" points="48.6,9.6 47.7,114.1 47.2,114.1 48.1,9.6 		"/>
		<polygon class="st13" points="49.1,9.6 48.2,114.1 47.7,114.1 48.6,9.6 		"/>
		<polygon class="st14" points="49.6,9.6 48.7,114.1 48.2,114.1 49.1,9.6 		"/>
		<polygon class="st14" points="50,9.6 49.2,114.1 48.7,114.1 49.6,9.6 		"/>
		<polygon class="st14" points="50.5,9.6 49.6,114.1 49.2,114.1 50,9.6 		"/>
		<polygon class="st14" points="51,9.6 50.1,114.1 49.6,114.1 50.5,9.6 		"/>
		<polygon class="st15" points="51.5,9.6 50.6,114.1 50.1,114.1 51,9.6 		"/>
		<polygon class="st16" points="52,9.6 51,114.1 50.6,114.1 51.5,9.6 		"/>
		<polygon class="st16" points="52.4,9.6 51.5,114.1 51,114.1 52,9.6 		"/>
		<polygon class="st16" points="52.9,9.6 52,114.1 51.5,114.1 52.4,9.6 		"/>
		<polygon class="st17" points="53.4,9.6 52.5,114.1 52,114.1 52.9,9.6 		"/>
		<polygon class="st17" points="53.8,9.6 53,114.1 52.5,114.1 53.4,9.6 		"/>
		<polygon class="st17" points="54.3,9.6 53.4,114.1 53,114.1 53.8,9.6 		"/>
		<polygon class="st18" points="54.8,9.6 53.9,114.1 53.4,114.1 54.3,9.6 		"/>
		<polygon class="st18" points="55.3,9.6 54.4,114.1 53.9,114.1 54.8,9.6 		"/>
		<polygon class="st18" points="55.8,9.6 54.9,114.1 54.4,114.1 55.3,9.6 		"/>
		<polygon class="st19" points="56.2,9.6 55.3,114.1 54.9,114.1 55.8,9.6 		"/>
		<polygon class="st19" points="56.7,9.6 55.8,114.1 55.3,114.1 56.2,9.6 		"/>
		<polygon class="st19" points="57.2,9.6 56.3,114.1 55.8,114.1 56.7,9.6 		"/>
		<polygon class="st20" points="57.7,9.6 56.8,114.1 56.3,114.1 57.2,9.6 		"/>
		<polygon class="st20" points="58.1,9.6 57.2,114.1 56.8,114.1 57.7,9.6 		"/>
		<polygon class="st21" points="58.6,9.6 57.7,114.1 57.2,114.1 58.1,9.6 		"/>
		<polygon class="st21" points="59.1,9.6 58.2,114.1 57.7,114.1 58.6,9.6 		"/>
		<polygon class="st22" points="59.6,9.6 58.7,114.1 58.2,114.1 59.1,9.6 		"/>
		<polygon class="st23" points="60,9.6 59.2,114.1 58.7,114.1 59.6,9.6 		"/>
		<polygon class="st24" points="60.5,9.6 59.6,114.1 59.2,114.1 60,9.6 		"/>
		<polygon class="st25" points="61,9.6 60.1,114.1 59.6,114.1 60.5,9.6 		"/>
		<polygon class="st25" points="61.5,9.6 60.6,114.1 60.1,114.1 61,9.6 		"/>
		<polygon class="st26" points="62,9.6 61,114.1 60.6,114.1 61.5,9.6 		"/>
		<polygon class="st27" points="62.4,9.6 61.5,114.1 61,114.1 62,9.6 		"/>
		<polygon class="st27" points="62.9,9.6 62,114.1 61.5,114.1 62.4,9.6 		"/>
		<polygon class="st28" points="63.4,9.6 62.5,114.1 62,114.1 62.9,9.6 		"/>
		<polygon class="st29" points="63.8,9.6 63,114.1 62.5,114.1 63.4,9.6 		"/>
		<polygon class="st30" points="64.3,9.6 63.4,114.1 63,114.1 63.8,9.6 		"/>
		<polygon class="st31" points="64.8,9.6 63.9,114.1 63.4,114.1 64.3,9.6 		"/>
		<polygon class="st31" points="65.3,9.6 64.4,114.1 63.9,114.1 64.8,9.6 		"/>
		<polygon class="st32" points="65.8,9.6 64.9,114.1 64.4,114.1 65.3,9.6 		"/>
		<polygon class="st33" points="66.2,9.6 65.3,114.1 64.9,114.1 65.8,9.6 		"/>
		<polygon class="st34" points="66.7,9.6 65.8,114.1 65.3,114.1 66.2,9.6 		"/>
		<polygon class="st35" points="67.2,9.6 66.3,114.1 65.8,114.1 66.7,9.6 		"/>
		<polygon class="st36" points="67.7,9.6 66.8,114.1 66.3,114.1 67.2,9.6 		"/>
		<polygon class="st37" points="68.1,9.6 67.2,114.1 66.8,114.1 67.7,9.6 		"/>
		<polygon class="st37" points="68.6,9.6 67.7,114.1 67.2,114.1 68.1,9.6 		"/>
		<polygon class="st38" points="69.1,9.6 68.2,114.1 67.7,114.1 68.6,9.6 		"/>
		<polygon class="st39" points="69.6,9.6 68.7,114.1 68.2,114.1 69.1,9.6 		"/>
		<polygon class="st39" points="70.1,9.6 69.2,114.1 68.7,114.1 69.6,9.6 		"/>
		<polygon class="st40" points="70.5,9.6 69.6,114.1 69.2,114.1 70.1,9.6 		"/>
		<polygon class="st41" points="71,9.6 70.1,114.1 69.6,114.1 70.5,9.6 		"/>
		<polygon class="st41" points="71.5,9.6 70.6,114.1 70.1,114.1 71,9.6 		"/>
		<polygon class="st42" points="71.9,9.6 71.1,114.1 70.6,114.1 71.5,9.6 		"/>
		<polygon class="st43" points="72.4,9.6 71.5,114.1 71.1,114.1 71.9,9.6 		"/>
		<polygon class="st44" points="72.9,9.6 72,114.1 71.5,114.1 72.4,9.6 		"/>
		<polygon class="st45" points="73.4,9.6 72.5,114.1 72,114.1 72.9,9.6 		"/>
		<polygon class="st46" points="73.9,9.6 73,114.1 72.5,114.1 73.4,9.6 		"/>
		<polygon class="st47" points="74.3,9.6 73.4,114.1 73,114.1 73.9,9.6 		"/>
		<polygon class="st48" points="74.8,9.6 73.9,114.1 73.4,114.1 74.3,9.6 		"/>
		<polygon class="st48" points="75.3,9.6 74.4,114.1 73.9,114.1 74.8,9.6 		"/>
		<polygon class="st49" points="75.8,9.6 74.9,114.1 74.4,114.1 75.3,9.6 		"/>
		<polygon class="st50" points="76.2,9.6 75.3,114.1 74.9,114.1 75.8,9.6 		"/>
		<polygon class="st51" points="76.7,9.6 75.8,114.1 75.3,114.1 76.2,9.6 		"/>
		<polygon class="st52" points="77.2,9.6 76.3,114.1 75.8,114.1 76.7,9.6 		"/>
		<polygon class="st53" points="77.7,9.6 76.8,114.1 76.3,114.1 77.2,9.6 		"/>
		<polygon class="st54" points="78.1,9.6 77.2,114.1 76.8,114.1 77.7,9.6 		"/>
		<polygon class="st55" points="78.6,9.6 77.7,114.1 77.2,114.1 78.1,9.6 		"/>
		<polygon class="st56" points="79.1,9.6 78.2,114.1 77.7,114.1 78.6,9.6 		"/>
		<polygon class="st57" points="79.6,9.6 78.7,114.1 78.2,114.1 79.1,9.6 		"/>
		<polygon class="st58" points="80.1,9.6 79.2,114.1 78.7,114.1 79.6,9.6 		"/>
		<polygon class="st59" points="80.5,9.6 79.6,114.1 79.2,114.1 80.1,9.6 		"/>
		<polygon class="st60" points="81,9.6 80.1,114.1 79.6,114.1 80.5,9.6 		"/>
		<polygon class="st61" points="81.5,9.6 80.6,114.1 80.1,114.1 81,9.6 		"/>
		<polygon class="st62" points="81.9,9.6 81.1,114.1 80.6,114.1 81.5,9.6 		"/>
		<polygon class="st63" points="82.4,9.6 81.5,114.1 81.1,114.1 81.9,9.6 		"/>
		<polygon class="st64" points="82.9,9.6 82,114.1 81.5,114.1 82.4,9.6 		"/>
		<polygon class="st65" points="83.4,9.6 82.5,114.1 82,114.1 82.9,9.6 		"/>
		<polygon class="st66" points="83.9,9.6 83,114.1 82.5,114.1 83.4,9.6 		"/>
		<polygon class="st67" points="84.3,9.6 83.4,114.1 83,114.1 83.9,9.6 		"/>
		<polygon class="st68" points="84.8,9.6 83.9,114.1 83.4,114.1 84.3,9.6 		"/>
		<polygon class="st69" points="85.3,9.6 84.4,114.1 83.9,114.1 84.8,9.6 		"/>
		<polygon class="st70" points="85.8,9.6 84.9,114.1 84.4,114.1 85.3,9.6 		"/>
		<polygon class="st71" points="86.2,9.6 85.3,114.1 84.9,114.1 85.8,9.6 		"/>
		<polygon class="st72" points="86.7,9.6 85.8,114.1 85.3,114.1 86.2,9.6 		"/>
		<polygon class="st73" points="87.2,9.6 86.3,114.1 85.8,114.1 86.7,9.6 		"/>
		<polygon class="st74" points="87.7,9.6 86.8,114.1 86.3,114.1 87.2,9.6 		"/>
		<polygon class="st75" points="88.1,9.6 87.2,114.1 86.8,114.1 87.7,9.6 		"/>
		<polygon class="st76" points="88.6,9.6 87.7,114.1 87.2,114.1 88.1,9.6 		"/>
		<polygon class="st77" points="89.1,9.6 88.2,114.1 87.7,114.1 88.6,9.6 		"/>
		<polygon class="st78" points="89.6,9.6 88.7,114.1 88.2,114.1 89.1,9.6 		"/>
		<polygon class="st79" points="90.1,9.6 89.2,114.1 88.7,114.1 89.6,9.6 		"/>
		<polygon class="st80" points="90.5,9.6 89.6,114.1 89.2,114.1 90.1,9.6 		"/>
		<polygon class="st81" points="91,9.6 90.1,114.1 89.6,114.1 90.5,9.6 		"/>
		<polygon class="st82" points="91.5,9.6 90.6,114.1 90.1,114.1 91,9.6 		"/>
		<polygon class="st83" points="92,9.6 91.1,114.1 90.6,114.1 91.5,9.6 		"/>
		<polygon class="st84" points="92.4,9.6 91.5,114.1 91.1,114.1 92,9.6 		"/>
		<polygon class="st85" points="92.9,9.6 92,114.1 91.5,114.1 92.4,9.6 		"/>
		<polygon class="st86" points="93.4,9.6 92.5,114.1 92,114.1 92.9,9.6 		"/>
		<polygon class="st87" points="93.9,9.6 93,114.1 92.5,114.1 93.4,9.6 		"/>
		<polygon class="st88" points="94.3,9.6 93.4,114.1 93,114.1 93.9,9.6 		"/>
		<polygon class="st89" points="94.8,9.6 93.9,114.1 93.4,114.1 94.3,9.6 		"/>
		<polygon class="st90" points="95.3,9.6 94.4,114.1 93.9,114.1 94.8,9.6 		"/>
		<polygon class="st91" points="95.8,9.6 94.9,114.1 94.4,114.1 95.3,9.6 		"/>
		<polygon class="st92" points="96.2,9.6 95.3,114.1 94.9,114.1 95.8,9.6 		"/>
		<polygon class="st93" points="96.7,9.6 95.8,114.1 95.3,114.1 96.2,9.6 		"/>
		<polygon class="st94" points="97.2,9.6 96.3,114.1 95.8,114.1 96.7,9.6 		"/>
		<polygon class="st95" points="97.7,9.6 96.8,114.1 96.3,114.1 97.2,9.6 		"/>
		<polygon class="st96" points="98.2,9.6 97.2,114.1 96.8,114.1 97.7,9.6 		"/>
		<polygon class="st97" points="98.6,9.6 97.7,114.1 97.2,114.1 98.2,9.6 		"/>
		<polygon class="st98" points="99.1,9.6 98.2,114.1 97.7,114.1 98.6,9.6 		"/>
		<polygon class="st99" points="99.6,9.6 98.7,114.1 98.2,114.1 99.1,9.6 		"/>
		<polygon class="st100" points="100.1,9.6 99.2,114.1 98.7,114.1 99.6,9.6 		"/>
		<polygon class="st101" points="100.5,9.6 99.6,114.1 99.2,114.1 100.1,9.6 		"/>
		<polygon class="st102" points="101,9.6 100.1,114.1 99.6,114.1 100.5,9.6 		"/>
		<polygon class="st103" points="101.5,9.6 100.6,114.1 100.1,114.1 101,9.6 		"/>
		<polygon class="st104" points="102,9.6 101.1,114.1 100.6,114.1 101.5,9.6 		"/>
		<polygon class="st105" points="102.4,9.6 101.5,114.1 101.1,114.1 102,9.6 		"/>
		<polygon class="st106" points="102.9,9.6 102,114.1 101.5,114.1 102.4,9.6 		"/>
		<polygon class="st107" points="103.4,9.6 102.5,114.1 102,114.1 102.9,9.6 		"/>
		<polygon class="st108" points="103.9,9.6 103,114.1 102.5,114.1 103.4,9.6 		"/>
		<polygon class="st109" points="104.3,9.6 103.4,114.1 103,114.1 103.9,9.6 		"/>
		<polygon class="st110" points="104.8,9.6 103.9,114.1 103.4,114.1 104.3,9.6 		"/>
		<polygon class="st111" points="105.3,9.6 104.4,114.1 103.9,114.1 104.8,9.6 		"/>
		<polygon class="st112" points="105.8,9.6 104.9,114.1 104.4,114.1 105.3,9.6 		"/>
		<polygon class="st113" points="106.2,9.6 105.3,114.1 104.9,114.1 105.8,9.6 		"/>
		<polygon class="st114" points="106.7,9.6 105.8,114.1 105.3,114.1 106.2,9.6 		"/>
		<polygon class="st115" points="107.2,9.6 106.3,114.1 105.8,114.1 106.7,9.6 		"/>
		<polygon class="st116" points="107.7,9.6 106.8,114.1 106.3,114.1 107.2,9.6 		"/>
		<polygon class="st117" points="108.2,9.6 107.3,114.1 106.8,114.1 107.7,9.6 		"/>
		<polygon class="st118" points="108.6,9.6 107.7,114.1 107.3,114.1 108.2,9.6 		"/>
		<polygon class="st119" points="109.1,9.6 108.2,114.1 107.7,114.1 108.6,9.6 		"/>
		<polygon class="st120" points="109.6,9.6 108.7,114.1 108.2,114.1 109.1,9.6 		"/>
		<polygon class="st121" points="110.1,9.6 109.2,114.1 108.7,114.1 109.6,9.6 		"/>
		<polygon class="st122" points="110.5,9.6 109.6,114.1 109.2,114.1 110.1,9.6 		"/>
		<polygon class="st123" points="111,9.6 110.1,114.1 109.6,114.1 110.5,9.6 		"/>
		<polygon class="st124" points="111.5,9.6 110.6,114.1 110.1,114.1 111,9.6 		"/>
		<polygon class="st125" points="112,9.6 111.1,114.1 110.6,114.1 111.5,9.6 		"/>
		<polygon class="st126" points="112.4,9.6 111.5,114.1 111.1,114.1 112,9.6 		"/>
		<polygon class="st127" points="112.9,9.6 112,114.1 111.5,114.1 112.4,9.6 		"/>
		<polygon class="st128" points="113.4,9.6 112.5,114.1 112,114.1 112.9,9.6 		"/>
		<polygon class="st129" points="113.9,9.6 113,114.1 112.5,114.1 113.4,9.6 		"/>
		<polygon class="st130" points="114.1,43.8 113.4,114.1 113,114.1 113.9,9.6 114.1,9.6 		"/>
		<polygon class="st131" points="114.1,99.4 113.9,114.1 113.4,114.1 114.1,43.8 		"/>
		<polygon class="st132" points="113.9,114.1 114.1,99.4 114.1,114.1 		"/>
		<polygon class="st4" points="2.5,0 1.4,123.7 0,123.7 0,0 		"/>
		<polygon class="st4" points="3,0 1.9,123.7 1.4,123.7 2.5,0 		"/>
		<polygon class="st4" points="3.4,0 2.4,123.7 1.9,123.7 3,0 		"/>
		<polygon class="st4" points="3.9,0 2.9,123.7 2.4,123.7 3.4,0 		"/>
		<polygon class="st4" points="4.4,0 3.3,123.7 2.9,123.7 3.9,0 		"/>
		<polygon class="st4" points="4.9,0 3.8,123.7 3.3,123.7 4.4,0 		"/>
		<polygon class="st4" points="5.3,0 4.3,123.7 3.8,123.7 4.9,0 		"/>
		<polygon class="st4" points="5.8,0 4.8,123.7 4.3,123.7 5.3,0 		"/>
		<polygon class="st4" points="6.3,0 5.2,123.7 4.8,123.7 5.8,0 		"/>
		<polygon class="st4" points="6.8,0 5.7,123.7 5.2,123.7 6.3,0 		"/>
		<polygon class="st4" points="7.2,0 6.2,123.7 5.7,123.7 6.8,0 		"/>
		<polygon class="st4" points="7.7,0 6.7,123.7 6.2,123.7 7.2,0 		"/>
		<polygon class="st4" points="8.2,0 7.2,123.7 6.7,123.7 7.7,0 		"/>
		<polygon class="st4" points="8.7,0 7.6,123.7 7.2,123.7 8.2,0 		"/>
		<polygon class="st4" points="9.2,0 8.1,123.7 7.6,123.7 8.7,0 		"/>
		<polygon class="st4" points="9.6,0 8.6,123.7 8.1,123.7 9.2,0 		"/>
		<polygon class="st4" points="10.1,0 9.1,123.7 8.6,123.7 9.6,0 		"/>
		<polygon class="st4" points="10.6,0 9.5,123.7 9.1,123.7 10.1,0 		"/>
		<polygon class="st4" points="11.1,0 10,123.7 9.5,123.7 10.6,0 		"/>
		<polygon class="st4" points="11.5,0 10.5,123.7 10,123.7 11.1,0 		"/>
		<polygon class="st4" points="12,0 11,123.7 10.5,123.7 11.5,0 		"/>
		<polygon class="st4" points="12.5,0 11.4,123.7 11,123.7 12,0 		"/>
		<polygon class="st4" points="13,0 11.9,123.7 11.4,123.7 12.5,0 		"/>
		<polygon class="st4" points="13.4,0 12.4,123.7 11.9,123.7 13,0 		"/>
		<polygon class="st4" points="13.9,0 12.9,123.7 12.4,123.7 13.4,0 		"/>
		<polygon class="st4" points="14.4,0 13.3,123.7 12.9,123.7 13.9,0 		"/>
		<polygon class="st4" points="14.9,0 13.8,123.7 13.3,123.7 14.4,0 		"/>
		<polygon class="st4" points="15.4,0 14.3,123.7 13.8,123.7 14.9,0 		"/>
		<polygon class="st4" points="15.8,0 14.8,123.7 14.3,123.7 15.4,0 		"/>
		<polygon class="st4" points="16.3,0 15.2,123.7 14.8,123.7 15.8,0 		"/>
		<polygon class="st4" points="16.8,0 15.7,123.7 15.2,123.7 16.3,0 		"/>
		<polygon class="st4" points="17.2,0 16.2,123.7 15.7,123.7 16.8,0 		"/>
		<polygon class="st4" points="17.7,0 16.7,123.7 16.2,123.7 17.2,0 		"/>
		<polygon class="st4" points="18.2,0 17.1,123.7 16.7,123.7 17.7,0 		"/>
		<polygon class="st4" points="18.7,0 17.6,123.7 17.1,123.7 18.2,0 		"/>
		<polygon class="st4" points="19.2,0 18.1,123.7 17.6,123.7 18.7,0 		"/>
		<polygon class="st4" points="19.6,0 18.6,123.7 18.1,123.7 19.2,0 		"/>
		<polygon class="st4" points="20.1,0 19,123.7 18.6,123.7 19.6,0 		"/>
		<polygon class="st4" points="20.6,0 19.5,123.7 19,123.7 20.1,0 		"/>
		<polygon class="st5" points="21.1,0 20,123.7 19.5,123.7 20.6,0 		"/>
		<polygon class="st5" points="21.5,0 20.5,123.7 20,123.7 21.1,0 		"/>
		<polygon class="st5" points="22,0 21,123.7 20.5,123.7 21.5,0 		"/>
		<polygon class="st5" points="22.5,0 21.4,123.7 21,123.7 22,0 		"/>
		<polygon class="st5" points="23,0 21.9,123.7 21.4,123.7 22.5,0 		"/>
		<polygon class="st5" points="23.5,0 22.4,123.7 21.9,123.7 23,0 		"/>
		<polygon class="st5" points="23.9,0 22.9,123.7 22.4,123.7 23.5,0 		"/>
		<polygon class="st5" points="24.4,0 23.3,123.7 22.9,123.7 23.9,0 		"/>
		<polygon class="st5" points="24.9,0 23.8,123.7 23.3,123.7 24.4,0 		"/>
		<polygon class="st5" points="25.4,0 24.3,123.7 23.8,123.7 24.9,0 		"/>
		<polygon class="st5" points="25.8,0 24.8,123.7 24.3,123.7 25.4,0 		"/>
		<polygon class="st5" points="26.3,0 25.2,123.7 24.8,123.7 25.8,0 		"/>
		<polygon class="st5" points="26.8,0 25.7,123.7 25.2,123.7 26.3,0 		"/>
		<polygon class="st5" points="27.3,0 26.2,123.7 25.7,123.7 26.8,0 		"/>
		<polygon class="st5" points="27.7,0 26.7,123.7 26.2,123.7 27.3,0 		"/>
		<polygon class="st5" points="28.2,0 27.1,123.7 26.7,123.7 27.7,0 		"/>
		<polygon class="st5" points="28.7,0 27.6,123.7 27.1,123.7 28.2,0 		"/>
		<polygon class="st5" points="29.2,0 28.1,123.7 27.6,123.7 28.7,0 		"/>
		<polygon class="st5" points="29.6,0 28.6,123.7 28.1,123.7 29.2,0 		"/>
		<polygon class="st5" points="30.1,0 29.1,123.7 28.6,123.7 29.6,0 		"/>
		<polygon class="st6" points="30.6,0 29.5,123.7 29.1,123.7 30.1,0 		"/>
		<polygon class="st6" points="31.1,0 30,123.7 29.5,123.7 30.6,0 		"/>
		<polygon class="st6" points="31.5,0 30.5,123.7 30,123.7 31.1,0 		"/>
		<polygon class="st6" points="32,0 31,123.7 30.5,123.7 31.5,0 		"/>
		<polygon class="st6" points="32.5,0 31.4,123.7 31,123.7 32,0 		"/>
		<polygon class="st6" points="33,0 31.9,123.7 31.4,123.7 32.5,0 		"/>
		<polygon class="st6" points="33.5,0 32.4,123.7 31.9,123.7 33,0 		"/>
		<polygon class="st6" points="33.9,0 32.9,123.7 32.4,123.7 33.5,0 		"/>
		<polygon class="st6" points="34.4,0 33.3,123.7 32.9,123.7 33.9,0 		"/>
		<polygon class="st6" points="34.9,0 33.8,123.7 33.3,123.7 34.4,0 		"/>
		<polygon class="st6" points="35.3,0 34.3,123.7 33.8,123.7 34.9,0 		"/>
		<polygon class="st6" points="35.8,0 34.8,123.7 34.3,123.7 35.3,0 		"/>
		<polygon class="st6" points="36.3,0 35.2,123.7 34.8,123.7 35.8,0 		"/>
		<polygon class="st6" points="36.8,0 35.7,123.7 35.2,123.7 36.3,0 		"/>
		<polygon class="st6" points="37.3,0 36.2,123.7 35.7,123.7 36.8,0 		"/>
		<polygon class="st7" points="37.7,0 36.7,123.7 36.2,123.7 37.3,0 		"/>
		<polygon class="st7" points="38.2,0 37.2,123.7 36.7,123.7 37.7,0 		"/>
		<polygon class="st7" points="38.7,0 37.6,123.7 37.2,123.7 38.2,0 		"/>
		<polygon class="st7" points="39.2,0 38.1,123.7 37.6,123.7 38.7,0 		"/>
		<polygon class="st8" points="39.6,0 38.6,123.7 38.1,123.7 39.2,0 		"/>
		<polygon class="st8" points="40.1,0 39.1,123.7 38.6,123.7 39.6,0 		"/>
		<polygon class="st8" points="40.6,0 39.5,123.7 39.1,123.7 40.1,0 		"/>
		<polygon class="st8" points="41.1,0 40,123.7 39.5,123.7 40.6,0 		"/>
		<polygon class="st8" points="41.5,0 40.5,123.7 40,123.7 41.1,0 		"/>
		<polygon class="st9" points="42,0 41,123.7 40.5,123.7 41.5,0 		"/>
		<polygon class="st9" points="42.5,0 41.4,123.7 41,123.7 42,0 		"/>
		<polygon class="st9" points="43,0 41.9,123.7 41.4,123.7 42.5,0 		"/>
		<polygon class="st9" points="43.5,0 42.4,123.7 41.9,123.7 43,0 		"/>
		<polygon class="st9" points="43.9,0 42.9,123.7 42.4,123.7 43.5,0 		"/>
		<polygon class="st9" points="44.4,0 43.3,123.7 42.9,123.7 43.9,0 		"/>
		<polygon class="st10" points="44.9,0 43.8,123.7 43.3,123.7 44.4,0 		"/>
		<polygon class="st10" points="45.4,0 44.3,123.7 43.8,123.7 44.9,0 		"/>
		<polygon class="st10" points="45.8,0 44.8,123.7 44.3,123.7 45.4,0 		"/>
		<polygon class="st11" points="46.3,0 45.2,123.7 44.8,123.7 45.8,0 		"/>
		<polygon class="st12" points="46.8,0 45.7,123.7 45.2,123.7 46.3,0 		"/>
		<polygon class="st12" points="47.3,0 46.2,123.7 45.7,123.7 46.8,0 		"/>
		<polygon class="st13" points="47.7,0 46.7,123.7 46.2,123.7 47.3,0 		"/>
		<polygon class="st13" points="48.2,0 47.2,123.7 46.7,123.7 47.7,0 		"/>
		<polygon class="st13" points="48.7,0 47.6,123.7 47.2,123.7 48.2,0 		"/>
		<polygon class="st13" points="49.2,0 48.1,123.7 47.6,123.7 48.7,0 		"/>
		<polygon class="st14" points="49.7,0 48.6,123.7 48.1,123.7 49.2,0 		"/>
		<polygon class="st14" points="50.1,0 49.1,123.7 48.6,123.7 49.7,0 		"/>
		<polygon class="st14" points="50.6,0 49.5,123.7 49.1,123.7 50.1,0 		"/>
		<polygon class="st14" points="51.1,0 50,123.7 49.5,123.7 50.6,0 		"/>
		<polygon class="st15" points="51.5,0 50.5,123.7 50,123.7 51.1,0 		"/>
		<polygon class="st16" points="52,0 51,123.7 50.5,123.7 51.5,0 		"/>
		<polygon class="st16" points="52.5,0 51.4,123.7 51,123.7 52,0 		"/>
		<polygon class="st16" points="53,0 51.9,123.7 51.4,123.7 52.5,0 		"/>
		<polygon class="st17" points="53.5,0 52.4,123.7 51.9,123.7 53,0 		"/>
		<polygon class="st17" points="53.9,0 52.9,123.7 52.4,123.7 53.5,0 		"/>
		<polygon class="st17" points="54.4,0 53.3,123.7 52.9,123.7 53.9,0 		"/>
		<polygon class="st18" points="54.9,0 53.8,123.7 53.3,123.7 54.4,0 		"/>
		<polygon class="st18" points="55.4,0 54.3,123.7 53.8,123.7 54.9,0 		"/>
		<polygon class="st18" points="55.8,0 54.8,123.7 54.3,123.7 55.4,0 		"/>
		<polygon class="st19" points="56.3,0 55.3,123.7 54.8,123.7 55.8,0 		"/>
		<polygon class="st19" points="56.8,0 55.7,123.7 55.3,123.7 56.3,0 		"/>
		<polygon class="st19" points="57.3,0 56.2,123.7 55.7,123.7 56.8,0 		"/>
		<polygon class="st20" points="57.7,0 56.7,123.7 56.2,123.7 57.3,0 		"/>
		<polygon class="st20" points="58.2,0 57.2,123.7 56.7,123.7 57.7,0 		"/>
		<polygon class="st21" points="58.7,0 57.6,123.7 57.2,123.7 58.2,0 		"/>
		<polygon class="st21" points="59.2,0 58.1,123.7 57.6,123.7 58.7,0 		"/>
		<polygon class="st22" points="59.7,0 58.6,123.7 58.1,123.7 59.2,0 		"/>
		<polygon class="st23" points="60.1,0 59.1,123.7 58.6,123.7 59.7,0 		"/>
		<polygon class="st24" points="60.6,0 59.5,123.7 59.1,123.7 60.1,0 		"/>
		<polygon class="st25" points="61.1,0 60,123.7 59.5,123.7 60.6,0 		"/>
		<polygon class="st25" points="61.5,0 60.5,123.7 60,123.7 61.1,0 		"/>
		<polygon class="st26" points="62,0 61,123.7 60.5,123.7 61.5,0 		"/>
		<polygon class="st27" points="62.5,0 61.5,123.7 61,123.7 62,0 		"/>
		<polygon class="st27" points="63,0 61.9,123.7 61.5,123.7 62.5,0 		"/>
		<polygon class="st28" points="63.5,0 62.4,123.7 61.9,123.7 63,0 		"/>
		<polygon class="st29" points="63.9,0 62.9,123.7 62.4,123.7 63.5,0 		"/>
		<polygon class="st30" points="64.4,0 63.3,123.7 62.9,123.7 63.9,0 		"/>
		<polygon class="st31" points="64.9,0 63.8,123.7 63.3,123.7 64.4,0 		"/>
		<polygon class="st31" points="65.4,0 64.3,123.7 63.8,123.7 64.9,0 		"/>
		<polygon class="st32" points="65.8,0 64.8,123.7 64.3,123.7 65.4,0 		"/>
		<polygon class="st33" points="66.3,0 65.3,123.7 64.8,123.7 65.8,0 		"/>
		<polygon class="st34" points="66.8,0 65.7,123.7 65.3,123.7 66.3,0 		"/>
		<polygon class="st35" points="67.3,0 66.2,123.7 65.7,123.7 66.8,0 		"/>
		<polygon class="st36" points="67.8,0 66.7,123.7 66.2,123.7 67.3,0 		"/>
		<polygon class="st37" points="68.2,0 67.2,123.7 66.7,123.7 67.8,0 		"/>
		<polygon class="st37" points="68.7,0 67.6,123.7 67.2,123.7 68.2,0 		"/>
		<polygon class="st38" points="69.2,0 68.1,123.7 67.6,123.7 68.7,0 		"/>
		<polygon class="st39" points="69.7,0 68.6,123.7 68.1,123.7 69.2,0 		"/>
		<polygon class="st39" points="70.1,0 69.1,123.7 68.6,123.7 69.7,0 		"/>
		<polygon class="st40" points="70.6,0 69.6,123.7 69.1,123.7 70.1,0 		"/>
		<polygon class="st41" points="71.1,0 70,123.7 69.6,123.7 70.6,0 		"/>
		<polygon class="st41" points="71.6,0 70.5,123.7 70,123.7 71.1,0 		"/>
		<polygon class="st42" points="72,0 71,123.7 70.5,123.7 71.6,0 		"/>
		<polygon class="st43" points="72.5,0 71.4,123.7 71,123.7 72,0 		"/>
		<polygon class="st44" points="73,0 71.9,123.7 71.4,123.7 72.5,0 		"/>
		<polygon class="st45" points="73.5,0 72.4,123.7 71.9,123.7 73,0 		"/>
		<polygon class="st46" points="73.9,0 72.9,123.7 72.4,123.7 73.5,0 		"/>
		<polygon class="st47" points="74.4,0 73.4,123.7 72.9,123.7 73.9,0 		"/>
		<polygon class="st48" points="74.9,0 73.8,123.7 73.4,123.7 74.4,0 		"/>
		<polygon class="st48" points="75.4,0 74.3,123.7 73.8,123.7 74.9,0 		"/>
		<polygon class="st49" points="75.8,0 74.8,123.7 74.3,123.7 75.4,0 		"/>
		<polygon class="st50" points="76.3,0 75.3,123.7 74.8,123.7 75.8,0 		"/>
		<polygon class="st51" points="76.8,0 75.7,123.7 75.3,123.7 76.3,0 		"/>
		<polygon class="st52" points="77.3,0 76.2,123.7 75.7,123.7 76.8,0 		"/>
		<polygon class="st53" points="77.8,0 76.7,123.7 76.2,123.7 77.3,0 		"/>
		<polygon class="st54" points="78.2,0 77.2,123.7 76.7,123.7 77.8,0 		"/>
		<polygon class="st55" points="78.7,0 77.6,123.7 77.2,123.7 78.2,0 		"/>
		<polygon class="st56" points="79.2,0 78.1,123.7 77.6,123.7 78.7,0 		"/>
		<polygon class="st57" points="79.7,0 78.6,123.7 78.1,123.7 79.2,0 		"/>
		<polygon class="st58" points="80.1,0 79.1,123.7 78.6,123.7 79.7,0 		"/>
		<polygon class="st59" points="80.6,0 79.6,123.7 79.1,123.7 80.1,0 		"/>
		<polygon class="st60" points="81.1,0 80,123.7 79.6,123.7 80.6,0 		"/>
		<polygon class="st61" points="81.6,0 80.5,123.7 80,123.7 81.1,0 		"/>
		<polygon class="st62" points="82,0 81,123.7 80.5,123.7 81.6,0 		"/>
		<polygon class="st63" points="82.5,0 81.4,123.7 81,123.7 82,0 		"/>
		<polygon class="st64" points="83,0 81.9,123.7 81.4,123.7 82.5,0 		"/>
		<polygon class="st65" points="83.5,0 82.4,123.7 81.9,123.7 83,0 		"/>
		<polygon class="st66" points="83.9,0 82.9,123.7 82.4,123.7 83.5,0 		"/>
		<polygon class="st67" points="84.4,0 83.4,123.7 82.9,123.7 83.9,0 		"/>
		<polygon class="st68" points="84.9,0 83.8,123.7 83.4,123.7 84.4,0 		"/>
		<polygon class="st69" points="85.4,0 84.3,123.7 83.8,123.7 84.9,0 		"/>
		<polygon class="st70" points="85.8,0 84.8,123.7 84.3,123.7 85.4,0 		"/>
		<polygon class="st71" points="86.3,0 85.3,123.7 84.8,123.7 85.8,0 		"/>
		<polygon class="st72" points="86.8,0 85.7,123.7 85.3,123.7 86.3,0 		"/>
		<polygon class="st73" points="87.3,0 86.2,123.7 85.7,123.7 86.8,0 		"/>
		<polygon class="st74" points="87.8,0 86.7,123.7 86.2,123.7 87.3,0 		"/>
		<polygon class="st75" points="88.2,0 87.2,123.7 86.7,123.7 87.8,0 		"/>
		<polygon class="st76" points="88.7,0 87.6,123.7 87.2,123.7 88.2,0 		"/>
		<polygon class="st77" points="89.2,0 88.1,123.7 87.6,123.7 88.7,0 		"/>
		<polygon class="st78" points="89.7,0 88.6,123.7 88.1,123.7 89.2,0 		"/>
		<polygon class="st79" points="90.1,0 89.1,123.7 88.6,123.7 89.7,0 		"/>
		<polygon class="st80" points="90.6,0 89.6,123.7 89.1,123.7 90.1,0 		"/>
		<polygon class="st81" points="91.1,0 90,123.7 89.6,123.7 90.6,0 		"/>
		<polygon class="st82" points="91.6,0 90.5,123.7 90,123.7 91.1,0 		"/>
		<polygon class="st83" points="92,0 91,123.7 90.5,123.7 91.6,0 		"/>
		<polygon class="st84" points="92.5,0 91.5,123.7 91,123.7 92,0 		"/>
		<polygon class="st85" points="93,0 91.9,123.7 91.5,123.7 92.5,0 		"/>
		<polygon class="st86" points="93.5,0 92.4,123.7 91.9,123.7 93,0 		"/>
		<polygon class="st87" points="93.9,0 92.9,123.7 92.4,123.7 93.5,0 		"/>
		<polygon class="st88" points="94.4,0 93.4,123.7 92.9,123.7 93.9,0 		"/>
		<polygon class="st89" points="94.9,0 93.8,123.7 93.4,123.7 94.4,0 		"/>
		<polygon class="st90" points="95.4,0 94.3,123.7 93.8,123.7 94.9,0 		"/>
		<polygon class="st91" points="95.8,0 94.8,123.7 94.3,123.7 95.4,0 		"/>
		<polygon class="st92" points="96.3,0 95.3,123.7 94.8,123.7 95.8,0 		"/>
		<polygon class="st93" points="96.8,0 95.7,123.7 95.3,123.7 96.3,0 		"/>
		<polygon class="st94" points="97.3,0 96.2,123.7 95.7,123.7 96.8,0 		"/>
		<polygon class="st95" points="97.8,0 96.7,123.7 96.2,123.7 97.3,0 		"/>
		<polygon class="st96" points="98.2,0 97.2,123.7 96.7,123.7 97.8,0 		"/>
		<polygon class="st97" points="98.7,0 97.7,123.7 97.2,123.7 98.2,0 		"/>
		<polygon class="st98" points="99.2,0 98.1,123.7 97.7,123.7 98.7,0 		"/>
		<polygon class="st99" points="99.7,0 98.6,123.7 98.1,123.7 99.2,0 		"/>
		<polygon class="st100" points="100.1,0 99.1,123.7 98.6,123.7 99.7,0 		"/>
		<polygon class="st101" points="100.6,0 99.6,123.7 99.1,123.7 100.1,0 		"/>
		<polygon class="st102" points="101.1,0 100,123.7 99.6,123.7 100.6,0 		"/>
		<polygon class="st103" points="101.6,0 100.5,123.7 100,123.7 101.1,0 		"/>
		<polygon class="st104" points="102,0 101,123.7 100.5,123.7 101.6,0 		"/>
		<polygon class="st105" points="102.5,0 101.5,123.7 101,123.7 102,0 		"/>
		<polygon class="st106" points="103,0 101.9,123.7 101.5,123.7 102.5,0 		"/>
		<polygon class="st107" points="103.5,0 102.4,123.7 101.9,123.7 103,0 		"/>
		<polygon class="st108" points="103.9,0 102.9,123.7 102.4,123.7 103.5,0 		"/>
		<polygon class="st109" points="104.4,0 103.4,123.7 102.9,123.7 103.9,0 		"/>
		<polygon class="st110" points="104.9,0 103.8,123.7 103.4,123.7 104.4,0 		"/>
		<polygon class="st111" points="105.4,0 104.3,123.7 103.8,123.7 104.9,0 		"/>
		<polygon class="st112" points="105.8,0 104.8,123.7 104.3,123.7 105.4,0 		"/>
		<polygon class="st113" points="106.3,0 105.3,123.7 104.8,123.7 105.8,0 		"/>
		<polygon class="st114" points="106.8,0 105.8,123.7 105.3,123.7 106.3,0 		"/>
		<polygon class="st115" points="107.3,0 106.2,123.7 105.8,123.7 106.8,0 		"/>
		<polygon class="st116" points="107.8,0 106.7,123.7 106.2,123.7 107.3,0 		"/>
		<polygon class="st117" points="108.2,0 107.2,123.7 106.7,123.7 107.8,0 		"/>
		<polygon class="st118" points="108.7,0 107.7,123.7 107.2,123.7 108.2,0 		"/>
		<polygon class="st119" points="109.2,0 108.1,123.7 107.7,123.7 108.7,0 		"/>
		<polygon class="st120" points="109.7,0 108.6,123.7 108.1,123.7 109.2,0 		"/>
		<polygon class="st121" points="110.1,0 109.1,123.7 108.6,123.7 109.7,0 		"/>
		<polygon class="st122" points="110.6,0 109.6,123.7 109.1,123.7 110.1,0 		"/>
		<polygon class="st123" points="111.1,0 110,123.7 109.6,123.7 110.6,0 		"/>
		<polygon class="st124" points="111.6,0 110.5,123.7 110,123.7 111.1,0 		"/>
		<polygon class="st125" points="112,0 111,123.7 110.5,123.7 111.6,0 		"/>
		<polygon class="st126" points="112.5,0 111.5,123.7 111,123.7 112,0 		"/>
		<polygon class="st127" points="113,0 111.9,123.7 111.5,123.7 112.5,0 		"/>
		<polygon class="st128" points="113.5,0 112.4,123.7 111.9,123.7 113,0 		"/>
		<polygon class="st129" points="113.9,0 112.9,123.7 112.4,123.7 113.5,0 		"/>
		<polygon class="st130" points="114.4,0 113.4,123.7 112.9,123.7 113.9,0 		"/>
		<polygon class="st131" points="114.9,0 113.8,123.7 113.4,123.7 114.4,0 		"/>
		<polygon class="st132" points="115.4,0 114.3,123.7 113.8,123.7 114.9,0 		"/>
		<polygon class="st133" points="115.9,0 114.8,123.7 114.3,123.7 115.4,0 		"/>
		<polygon class="st134" points="116.3,0 115.3,123.7 114.8,123.7 115.9,0 		"/>
		<polygon class="st135" points="116.8,0 115.8,123.7 115.3,123.7 116.3,0 		"/>
		<polygon class="st136" points="117.3,0 116.2,123.7 115.8,123.7 116.8,0 		"/>
		<polygon class="st137" points="117.8,0 116.7,123.7 116.2,123.7 117.3,0 		"/>
		<polygon class="st138" points="118.2,0 117.2,123.7 116.7,123.7 117.8,0 		"/>
		<polygon class="st139" points="118.7,0 117.7,123.7 117.2,123.7 118.2,0 		"/>
		<polygon class="st140" points="119.2,0 118.1,123.7 117.7,123.7 118.7,0 		"/>
		<polygon class="st141" points="119.7,0 118.6,123.7 118.1,123.7 119.2,0 		"/>
		<polygon class="st142" points="120.1,0 119.1,123.7 118.6,123.7 119.7,0 		"/>
		<polygon class="st143" points="120.6,0 119.6,123.7 119.1,123.7 120.1,0 		"/>
		<polygon class="st144" points="121.1,0 120,123.7 119.6,123.7 120.6,0 		"/>
		<polygon class="st145" points="121.6,0 120.5,123.7 120,123.7 121.1,0 		"/>
		<polygon class="st145" points="120.5,123.7 121.6,0 123.7,0 123.7,123.7 		"/>
	</g>
</g>
<path class="st146" d="M90.3,46.3c0.1,0.6,0.2,1.2,0.2,1.8c0,5.1-4.2,9.3-9.3,9.3c-5.1,0-9.3-4.2-9.3-9.3s4.2-9.3,9.3-9.3
	c3,0,5.7,1.5,7.4,3.7c-3.2-5.6-9.2-9.3-16.1-9.3c-10.3,0-18.6,8.3-18.6,18.6c0,10.3,8.3,18.6,18.6,18.6c10.3,0,18.6-8.3,18.6-18.6
	C91.1,50,90.8,48.1,90.3,46.3z"/>
</svg>
